%TF.GenerationSoftware,KiCad,Pcbnew,(5.1.7-0-10_14)*%
%TF.CreationDate,2021-04-20T14:35:29-04:00*%
%TF.ProjectId,Oscillator,4f736369-6c6c-4617-946f-722e6b696361,rev?*%
%TF.SameCoordinates,Original*%
%TF.FileFunction,Soldermask,Bot*%
%TF.FilePolarity,Negative*%
%FSLAX46Y46*%
G04 Gerber Fmt 4.6, Leading zero omitted, Abs format (unit mm)*
G04 Created by KiCad (PCBNEW (5.1.7-0-10_14)) date 2021-04-20 14:35:29*
%MOMM*%
%LPD*%
G01*
G04 APERTURE LIST*
%ADD10O,2.600000X2.000000*%
%ADD11C,1.600000*%
%ADD12C,3.600000*%
%ADD13O,2.100000X1.300000*%
%ADD14C,2.700000*%
%ADD15C,1.700000*%
%ADD16C,6.000000*%
%ADD17O,1.700000X1.700000*%
%ADD18R,1.700000X1.700000*%
%ADD19O,1.600000X1.600000*%
%ADD20R,1.600000X1.600000*%
%ADD21C,1.800000*%
%ADD22R,1.050000X1.500000*%
%ADD23O,1.050000X1.500000*%
%ADD24R,1.800000X1.800000*%
G04 APERTURE END LIST*
D10*
%TO.C,RV204*%
X157650000Y-45500000D03*
X146350000Y-45500000D03*
D11*
X154500000Y-53000000D03*
X152000000Y-53000000D03*
X149500000Y-53000000D03*
%TD*%
D10*
%TO.C,RV203*%
X134600000Y-45500000D03*
X123300000Y-45500000D03*
D11*
X131450000Y-53000000D03*
X128950000Y-53000000D03*
X126450000Y-53000000D03*
%TD*%
D10*
%TO.C,RV202*%
X111550000Y-45500000D03*
X100250000Y-45500000D03*
D11*
X108400000Y-53000000D03*
X105900000Y-53000000D03*
X103400000Y-53000000D03*
%TD*%
D10*
%TO.C,RV201*%
X88500000Y-45500000D03*
X77200000Y-45500000D03*
D11*
X85350000Y-53000000D03*
X82850000Y-53000000D03*
X80350000Y-53000000D03*
%TD*%
D12*
%TO.C,J210*%
X150200000Y-129725000D03*
D13*
X150200000Y-124925000D03*
X150200000Y-133125000D03*
X150200000Y-135325000D03*
%TD*%
D12*
%TO.C,J209*%
X128300000Y-129725000D03*
D13*
X128300000Y-124925000D03*
X128300000Y-133125000D03*
X128300000Y-135325000D03*
%TD*%
D12*
%TO.C,J208*%
X106400000Y-129725000D03*
D13*
X106400000Y-124925000D03*
X106400000Y-133125000D03*
X106400000Y-135325000D03*
%TD*%
D12*
%TO.C,J206*%
X84500000Y-129725000D03*
D13*
X84500000Y-124925000D03*
X84500000Y-133125000D03*
X84500000Y-135325000D03*
%TD*%
D12*
%TO.C,J205*%
X150200000Y-106975000D03*
D13*
X150200000Y-102175000D03*
X150200000Y-110375000D03*
X150200000Y-112575000D03*
%TD*%
D12*
%TO.C,J203*%
X128300000Y-106975000D03*
D13*
X128300000Y-102175000D03*
X128300000Y-110375000D03*
X128300000Y-112575000D03*
%TD*%
D12*
%TO.C,J202*%
X106400000Y-106975000D03*
D13*
X106400000Y-102175000D03*
X106400000Y-110375000D03*
X106400000Y-112575000D03*
%TD*%
D12*
%TO.C,J201*%
X84500000Y-106975000D03*
D13*
X84500000Y-102175000D03*
X84500000Y-110375000D03*
X84500000Y-112575000D03*
%TD*%
D14*
%TO.C,SW201*%
X125250000Y-75550000D03*
X109250000Y-75550000D03*
D15*
X122250000Y-67500000D03*
X119650000Y-67500000D03*
X117250000Y-67500000D03*
X114750000Y-67500000D03*
X112250000Y-67500000D03*
X122250000Y-85800000D03*
X119750000Y-85800000D03*
X117250000Y-85800000D03*
X114750000Y-85800000D03*
X112250000Y-85800000D03*
%TD*%
D16*
%TO.C,REF\u002A\u002A*%
X72150000Y-83000000D03*
%TD*%
%TO.C,REF\u002A\u002A*%
X154950000Y-83000000D03*
%TD*%
%TO.C,REF\u002A\u002A*%
X255400000Y-83000000D03*
%TD*%
%TO.C,REF\u002A\u002A*%
X172600000Y-83000000D03*
%TD*%
D17*
%TO.C,J303*%
X210890000Y-141210000D03*
X208350000Y-141210000D03*
X210890000Y-138670000D03*
X208350000Y-138670000D03*
X210890000Y-136130000D03*
X208350000Y-136130000D03*
X210890000Y-133590000D03*
X208350000Y-133590000D03*
X210890000Y-131050000D03*
D18*
X208350000Y-131050000D03*
%TD*%
D17*
%TO.C,J302*%
X253770000Y-141350000D03*
X251230000Y-141350000D03*
X248690000Y-141350000D03*
X246150000Y-141350000D03*
X243610000Y-141350000D03*
X241070000Y-141350000D03*
X238530000Y-141350000D03*
X235990000Y-141350000D03*
D18*
X233450000Y-141350000D03*
%TD*%
D17*
%TO.C,J301*%
X262620000Y-32300000D03*
X260080000Y-32300000D03*
X257540000Y-32300000D03*
X255000000Y-32300000D03*
X252460000Y-32300000D03*
X249920000Y-32300000D03*
X247380000Y-32300000D03*
X244840000Y-32300000D03*
X242300000Y-32300000D03*
X239760000Y-32300000D03*
X237220000Y-32300000D03*
X234680000Y-32300000D03*
X232140000Y-32300000D03*
D18*
X229600000Y-32300000D03*
%TD*%
D17*
%TO.C,J207*%
X153295000Y-141350000D03*
X150755000Y-141350000D03*
X148215000Y-141350000D03*
X145675000Y-141350000D03*
X143135000Y-141350000D03*
X140595000Y-141350000D03*
X138055000Y-141350000D03*
X135515000Y-141350000D03*
D18*
X132975000Y-141350000D03*
%TD*%
D17*
%TO.C,J204*%
X162215000Y-32300000D03*
X159675000Y-32300000D03*
X157135000Y-32300000D03*
X154595000Y-32300000D03*
X152055000Y-32300000D03*
X149515000Y-32300000D03*
X146975000Y-32300000D03*
X144435000Y-32300000D03*
X141895000Y-32300000D03*
X139355000Y-32300000D03*
X136815000Y-32300000D03*
X134275000Y-32300000D03*
X131735000Y-32300000D03*
D18*
X129195000Y-32300000D03*
%TD*%
D19*
%TO.C,U703*%
X206420000Y-59600000D03*
X198800000Y-67220000D03*
X206420000Y-62140000D03*
X198800000Y-64680000D03*
X206420000Y-64680000D03*
X198800000Y-62140000D03*
X206420000Y-67220000D03*
D20*
X198800000Y-59600000D03*
%TD*%
D19*
%TO.C,U701*%
X179920000Y-59600000D03*
X172300000Y-67220000D03*
X179920000Y-62140000D03*
X172300000Y-64680000D03*
X179920000Y-64680000D03*
X172300000Y-62140000D03*
X179920000Y-67220000D03*
D20*
X172300000Y-59600000D03*
%TD*%
D19*
%TO.C,U605*%
X208920000Y-104000000D03*
X201300000Y-119240000D03*
X208920000Y-106540000D03*
X201300000Y-116700000D03*
X208920000Y-109080000D03*
X201300000Y-114160000D03*
X208920000Y-111620000D03*
X201300000Y-111620000D03*
X208920000Y-114160000D03*
X201300000Y-109080000D03*
X208920000Y-116700000D03*
X201300000Y-106540000D03*
X208920000Y-119240000D03*
D20*
X201300000Y-104000000D03*
%TD*%
D19*
%TO.C,U604*%
X256120000Y-55250000D03*
X248500000Y-70490000D03*
X256120000Y-57790000D03*
X248500000Y-67950000D03*
X256120000Y-60330000D03*
X248500000Y-65410000D03*
X256120000Y-62870000D03*
X248500000Y-62870000D03*
X256120000Y-65410000D03*
X248500000Y-60330000D03*
X256120000Y-67950000D03*
X248500000Y-57790000D03*
X256120000Y-70490000D03*
D20*
X248500000Y-55250000D03*
%TD*%
D19*
%TO.C,U603*%
X189370000Y-122500000D03*
X181750000Y-137740000D03*
X189370000Y-125040000D03*
X181750000Y-135200000D03*
X189370000Y-127580000D03*
X181750000Y-132660000D03*
X189370000Y-130120000D03*
X181750000Y-130120000D03*
X189370000Y-132660000D03*
X181750000Y-127580000D03*
X189370000Y-135200000D03*
X181750000Y-125040000D03*
X189370000Y-137740000D03*
D20*
X181750000Y-122500000D03*
%TD*%
D19*
%TO.C,U602*%
X258250000Y-103660000D03*
X250630000Y-118900000D03*
X258250000Y-106200000D03*
X250630000Y-116360000D03*
X258250000Y-108740000D03*
X250630000Y-113820000D03*
X258250000Y-111280000D03*
X250630000Y-111280000D03*
X258250000Y-113820000D03*
X250630000Y-108740000D03*
X258250000Y-116360000D03*
X250630000Y-106200000D03*
X258250000Y-118900000D03*
D20*
X250630000Y-103660000D03*
%TD*%
D19*
%TO.C,U601*%
X234920000Y-88400000D03*
X227300000Y-103640000D03*
X234920000Y-90940000D03*
X227300000Y-101100000D03*
X234920000Y-93480000D03*
X227300000Y-98560000D03*
X234920000Y-96020000D03*
X227300000Y-96020000D03*
X234920000Y-98560000D03*
X227300000Y-93480000D03*
X234920000Y-101100000D03*
X227300000Y-90940000D03*
X234920000Y-103640000D03*
D20*
X227300000Y-88400000D03*
%TD*%
D19*
%TO.C,U503*%
X189300000Y-103780000D03*
X181680000Y-119020000D03*
X189300000Y-106320000D03*
X181680000Y-116480000D03*
X189300000Y-108860000D03*
X181680000Y-113940000D03*
X189300000Y-111400000D03*
X181680000Y-111400000D03*
X189300000Y-113940000D03*
X181680000Y-108860000D03*
X189300000Y-116480000D03*
X181680000Y-106320000D03*
X189300000Y-119020000D03*
D20*
X181680000Y-103780000D03*
%TD*%
D19*
%TO.C,U502*%
X236140000Y-62150000D03*
X228520000Y-79930000D03*
X236140000Y-64690000D03*
X228520000Y-77390000D03*
X236140000Y-67230000D03*
X228520000Y-74850000D03*
X236140000Y-69770000D03*
X228520000Y-72310000D03*
X236140000Y-72310000D03*
X228520000Y-69770000D03*
X236140000Y-74850000D03*
X228520000Y-67230000D03*
X236140000Y-77390000D03*
X228520000Y-64690000D03*
X236140000Y-79930000D03*
D20*
X228520000Y-62150000D03*
%TD*%
D19*
%TO.C,U501*%
X189320000Y-83900000D03*
X181700000Y-99140000D03*
X189320000Y-86440000D03*
X181700000Y-96600000D03*
X189320000Y-88980000D03*
X181700000Y-94060000D03*
X189320000Y-91520000D03*
X181700000Y-91520000D03*
X189320000Y-94060000D03*
X181700000Y-88980000D03*
X189320000Y-96600000D03*
X181700000Y-86440000D03*
X189320000Y-99140000D03*
D20*
X181700000Y-83900000D03*
%TD*%
D19*
%TO.C,U201*%
X156250000Y-57575000D03*
X148630000Y-65195000D03*
X156250000Y-60115000D03*
X148630000Y-62655000D03*
X156250000Y-62655000D03*
X148630000Y-60115000D03*
X156250000Y-65195000D03*
D20*
X148630000Y-57575000D03*
%TD*%
D21*
%TO.C,RV702*%
X175000000Y-35200000D03*
X177540000Y-40280000D03*
X175000000Y-47900000D03*
%TD*%
%TO.C,RV701*%
X169500000Y-35200000D03*
X172040000Y-40280000D03*
X169500000Y-47900000D03*
%TD*%
%TO.C,RV602*%
X213500000Y-35200000D03*
X216040000Y-40280000D03*
X213500000Y-47900000D03*
%TD*%
%TO.C,RV601*%
X219100000Y-35200000D03*
X221640000Y-40280000D03*
X219100000Y-47900000D03*
%TD*%
%TO.C,RV506*%
X197000000Y-35200000D03*
X199540000Y-40280000D03*
X197000000Y-47900000D03*
%TD*%
%TO.C,RV505*%
X191500000Y-35200000D03*
X194040000Y-40280000D03*
X191500000Y-47900000D03*
%TD*%
%TO.C,RV504*%
X208000000Y-35200000D03*
X210540000Y-40280000D03*
X208000000Y-47900000D03*
%TD*%
%TO.C,RV503*%
X186000000Y-35200000D03*
X188540000Y-40280000D03*
X186000000Y-47900000D03*
%TD*%
%TO.C,RV502*%
X202500000Y-35200000D03*
X205040000Y-40280000D03*
X202500000Y-47900000D03*
%TD*%
%TO.C,RV501*%
X180500000Y-35200000D03*
X183040000Y-40280000D03*
X180500000Y-47900000D03*
%TD*%
%TO.C,RV402*%
X259600000Y-138050000D03*
X257060000Y-132970000D03*
X259600000Y-125350000D03*
%TD*%
%TO.C,RV401*%
X265100000Y-138050000D03*
X262560000Y-132970000D03*
X265100000Y-125350000D03*
%TD*%
D19*
%TO.C,R719*%
X212100000Y-70220000D03*
D11*
X212100000Y-62600000D03*
%TD*%
D19*
%TO.C,R718*%
X208600000Y-73300000D03*
D11*
X216220000Y-73300000D03*
%TD*%
D19*
%TO.C,R717*%
X208600000Y-59600000D03*
D11*
X216220000Y-59600000D03*
%TD*%
D19*
%TO.C,R716*%
X198780000Y-73400000D03*
D11*
X206400000Y-73400000D03*
%TD*%
D19*
%TO.C,R715*%
X242800000Y-42900000D03*
D11*
X242800000Y-35280000D03*
%TD*%
D19*
%TO.C,R714*%
X216200000Y-76300000D03*
D11*
X208580000Y-76300000D03*
%TD*%
D19*
%TO.C,R713*%
X193100000Y-77720000D03*
D11*
X193100000Y-70100000D03*
%TD*%
D19*
%TO.C,R712*%
X193100000Y-60280000D03*
D11*
X193100000Y-67900000D03*
%TD*%
D19*
%TO.C,R711*%
X181900000Y-70130000D03*
D11*
X181900000Y-77750000D03*
%TD*%
D19*
%TO.C,R710*%
X190000000Y-60280000D03*
D11*
X190000000Y-67900000D03*
%TD*%
D19*
%TO.C,R709*%
X187000000Y-67900000D03*
D11*
X187000000Y-60280000D03*
%TD*%
D19*
%TO.C,R708*%
X169700000Y-64180000D03*
D11*
X169700000Y-71800000D03*
%TD*%
D19*
%TO.C,R707*%
X171680000Y-74400000D03*
D11*
X179300000Y-74400000D03*
%TD*%
D19*
%TO.C,R706*%
X234900000Y-45500000D03*
D11*
X227280000Y-45500000D03*
%TD*%
D19*
%TO.C,R705*%
X236800000Y-35300000D03*
D11*
X236800000Y-42920000D03*
%TD*%
D19*
%TO.C,R704*%
X233800000Y-35300000D03*
D11*
X233800000Y-42920000D03*
%TD*%
D19*
%TO.C,R703*%
X230750000Y-35300000D03*
D11*
X230750000Y-42920000D03*
%TD*%
D19*
%TO.C,R702*%
X227750000Y-35300000D03*
D11*
X227750000Y-42920000D03*
%TD*%
D19*
%TO.C,R701*%
X239800000Y-42920000D03*
D11*
X239800000Y-35300000D03*
%TD*%
D19*
%TO.C,R644*%
X258750000Y-65450000D03*
D11*
X258750000Y-57830000D03*
%TD*%
D19*
%TO.C,R643*%
X238680000Y-67450000D03*
D11*
X246300000Y-67450000D03*
%TD*%
D19*
%TO.C,R642*%
X256170000Y-73750000D03*
D11*
X248550000Y-73750000D03*
%TD*%
D19*
%TO.C,R641*%
X259150000Y-92850000D03*
D11*
X251530000Y-92850000D03*
%TD*%
D19*
%TO.C,R640*%
X199100000Y-115850000D03*
D11*
X191480000Y-115850000D03*
%TD*%
D19*
%TO.C,R639*%
X191500000Y-118900000D03*
D11*
X199120000Y-118900000D03*
%TD*%
D19*
%TO.C,R638*%
X240780000Y-103200000D03*
D11*
X248400000Y-103200000D03*
%TD*%
D19*
%TO.C,R637*%
X246300000Y-56250000D03*
D11*
X238680000Y-56250000D03*
%TD*%
D19*
%TO.C,R636*%
X246300000Y-59300000D03*
D11*
X238680000Y-59300000D03*
%TD*%
D19*
%TO.C,R635*%
X258750000Y-67600000D03*
D11*
X258750000Y-75220000D03*
%TD*%
D19*
%TO.C,R634*%
X240780000Y-117900000D03*
D11*
X248400000Y-117900000D03*
%TD*%
D19*
%TO.C,R633*%
X191530000Y-141250000D03*
D11*
X199150000Y-141250000D03*
%TD*%
D19*
%TO.C,R632*%
X263900000Y-119020000D03*
D11*
X263900000Y-111400000D03*
%TD*%
D19*
%TO.C,R631*%
X260850000Y-119050000D03*
D11*
X260850000Y-111430000D03*
%TD*%
D19*
%TO.C,R630*%
X199150000Y-138200000D03*
D11*
X191530000Y-138200000D03*
%TD*%
D19*
%TO.C,R629*%
X179500000Y-124750000D03*
D11*
X171880000Y-124750000D03*
%TD*%
D19*
%TO.C,R628*%
X199150000Y-135150000D03*
D11*
X191530000Y-135150000D03*
%TD*%
D19*
%TO.C,R627*%
X191530000Y-125000000D03*
D11*
X199150000Y-125000000D03*
%TD*%
D19*
%TO.C,R626*%
X246300000Y-53250000D03*
D11*
X238680000Y-53250000D03*
%TD*%
D19*
%TO.C,R625*%
X237500000Y-98550000D03*
D11*
X237500000Y-106170000D03*
%TD*%
D19*
%TO.C,R624*%
X214380000Y-52850000D03*
D11*
X222000000Y-52850000D03*
%TD*%
D19*
%TO.C,R623*%
X189350000Y-140800000D03*
D11*
X181730000Y-140800000D03*
%TD*%
D19*
%TO.C,R622*%
X199150000Y-121950000D03*
D11*
X191530000Y-121950000D03*
%TD*%
D19*
%TO.C,R621*%
X199150000Y-128050000D03*
D11*
X191530000Y-128050000D03*
%TD*%
D19*
%TO.C,R620*%
X179000000Y-132950000D03*
D11*
X179000000Y-140570000D03*
%TD*%
D19*
%TO.C,R619*%
X263850000Y-42900000D03*
D11*
X263850000Y-35280000D03*
%TD*%
D19*
%TO.C,R618*%
X248400000Y-111850000D03*
D11*
X240780000Y-111850000D03*
%TD*%
D19*
%TO.C,R617*%
X248400000Y-114850000D03*
D11*
X240780000Y-114850000D03*
%TD*%
D19*
%TO.C,R616*%
X224650000Y-93420000D03*
D11*
X224650000Y-85800000D03*
%TD*%
D19*
%TO.C,R615*%
X224600000Y-98680000D03*
D11*
X224600000Y-106300000D03*
%TD*%
D19*
%TO.C,R614*%
X171780000Y-114550000D03*
D11*
X179400000Y-114550000D03*
%TD*%
D19*
%TO.C,R613*%
X244750000Y-48550000D03*
D11*
X237130000Y-48550000D03*
%TD*%
D19*
%TO.C,R612*%
X234920000Y-48550000D03*
D11*
X227300000Y-48550000D03*
%TD*%
D19*
%TO.C,R611*%
X251550000Y-89800000D03*
D11*
X259170000Y-89800000D03*
%TD*%
D19*
%TO.C,R610*%
X221600000Y-85800000D03*
D11*
X221600000Y-93420000D03*
%TD*%
D19*
%TO.C,R609*%
X221550000Y-106270000D03*
D11*
X221550000Y-98650000D03*
%TD*%
D19*
%TO.C,R608*%
X251530000Y-95950000D03*
D11*
X259150000Y-95950000D03*
%TD*%
D19*
%TO.C,R607*%
X230930000Y-117950000D03*
D11*
X238550000Y-117950000D03*
%TD*%
D19*
%TO.C,R606*%
X179400000Y-117550000D03*
D11*
X171780000Y-117550000D03*
%TD*%
D19*
%TO.C,R605*%
X237550000Y-93350000D03*
D11*
X237550000Y-85730000D03*
%TD*%
D19*
%TO.C,R604*%
X258200000Y-100550000D03*
D11*
X250580000Y-100550000D03*
%TD*%
D19*
%TO.C,R603*%
X248370000Y-100150000D03*
D11*
X240750000Y-100150000D03*
%TD*%
D19*
%TO.C,R602*%
X238570000Y-114850000D03*
D11*
X230950000Y-114850000D03*
%TD*%
D19*
%TO.C,R601*%
X238800000Y-127700000D03*
D11*
X246420000Y-127700000D03*
%TD*%
D19*
%TO.C,R527*%
X261620000Y-45500000D03*
D11*
X254000000Y-45500000D03*
%TD*%
D19*
%TO.C,R526*%
X257800000Y-35300000D03*
D11*
X257800000Y-42920000D03*
%TD*%
D19*
%TO.C,R525*%
X195100000Y-90450000D03*
D11*
X195100000Y-82830000D03*
%TD*%
D19*
%TO.C,R524*%
X205300000Y-89900000D03*
D11*
X197680000Y-89900000D03*
%TD*%
D19*
%TO.C,R523*%
X244280000Y-45500000D03*
D11*
X251900000Y-45500000D03*
%TD*%
D19*
%TO.C,R522*%
X245800000Y-35300000D03*
D11*
X245800000Y-42920000D03*
%TD*%
D19*
%TO.C,R521*%
X205300000Y-86900000D03*
D11*
X197680000Y-86900000D03*
%TD*%
D19*
%TO.C,R520*%
X248800000Y-42920000D03*
D11*
X248800000Y-35300000D03*
%TD*%
D19*
%TO.C,R519*%
X226170000Y-79900000D03*
D11*
X218550000Y-79900000D03*
%TD*%
D19*
%TO.C,R518*%
X251800000Y-42920000D03*
D11*
X251800000Y-35300000D03*
%TD*%
D19*
%TO.C,R517*%
X218530000Y-76900000D03*
D11*
X226150000Y-76900000D03*
%TD*%
D19*
%TO.C,R516*%
X218650000Y-71700000D03*
D11*
X226270000Y-71700000D03*
%TD*%
D19*
%TO.C,R515*%
X192570000Y-52800000D03*
D11*
X184950000Y-52800000D03*
%TD*%
D19*
%TO.C,R514*%
X254800000Y-42920000D03*
D11*
X254800000Y-35300000D03*
%TD*%
D19*
%TO.C,R513*%
X218530000Y-64200000D03*
D11*
X226150000Y-64200000D03*
%TD*%
D19*
%TO.C,R512*%
X212170000Y-52800000D03*
D11*
X204550000Y-52800000D03*
%TD*%
D19*
%TO.C,R511*%
X199100000Y-99200000D03*
D11*
X191480000Y-99200000D03*
%TD*%
D19*
%TO.C,R510*%
X211080000Y-99200000D03*
D11*
X218700000Y-99200000D03*
%TD*%
D19*
%TO.C,R509*%
X208920000Y-99200000D03*
D11*
X201300000Y-99200000D03*
%TD*%
D19*
%TO.C,R508*%
X226170000Y-67200000D03*
D11*
X218550000Y-67200000D03*
%TD*%
D19*
%TO.C,R507*%
X260800000Y-42920000D03*
D11*
X260800000Y-35300000D03*
%TD*%
D19*
%TO.C,R506*%
X202350000Y-52800000D03*
D11*
X194730000Y-52800000D03*
%TD*%
D19*
%TO.C,R505*%
X171775000Y-108400000D03*
D11*
X179395000Y-108400000D03*
%TD*%
D19*
%TO.C,R504*%
X179375000Y-105300000D03*
D11*
X171755000Y-105300000D03*
%TD*%
D19*
%TO.C,R503*%
X179475000Y-95700000D03*
D11*
X171855000Y-95700000D03*
%TD*%
D19*
%TO.C,R502*%
X189300000Y-80800000D03*
D11*
X181680000Y-80800000D03*
%TD*%
D19*
%TO.C,R501*%
X175130000Y-52820000D03*
D11*
X182750000Y-52820000D03*
%TD*%
D19*
%TO.C,R420*%
X201330000Y-122350000D03*
D11*
X208950000Y-122350000D03*
%TD*%
D19*
%TO.C,R419*%
X246550000Y-130300000D03*
D11*
X246550000Y-137920000D03*
%TD*%
D19*
%TO.C,R418*%
X249600000Y-137900000D03*
D11*
X249600000Y-130280000D03*
%TD*%
D19*
%TO.C,R417*%
X218770000Y-123750000D03*
D11*
X211150000Y-123750000D03*
%TD*%
D19*
%TO.C,R416*%
X211100000Y-117650000D03*
D11*
X218720000Y-117650000D03*
%TD*%
D19*
%TO.C,R415*%
X230930000Y-124000000D03*
D11*
X238550000Y-124000000D03*
%TD*%
D19*
%TO.C,R414*%
X218720000Y-120700000D03*
D11*
X211100000Y-120700000D03*
%TD*%
D19*
%TO.C,R413*%
X218720000Y-114650000D03*
D11*
X211100000Y-114650000D03*
%TD*%
D19*
%TO.C,R412*%
X228670000Y-111050000D03*
D11*
X221050000Y-111050000D03*
%TD*%
D19*
%TO.C,R411*%
X254000000Y-137950000D03*
D11*
X254000000Y-130330000D03*
%TD*%
D19*
%TO.C,R410*%
X238550000Y-121000000D03*
D11*
X230930000Y-121000000D03*
%TD*%
D19*
%TO.C,R409*%
X228670000Y-135050000D03*
D11*
X221050000Y-135050000D03*
%TD*%
D19*
%TO.C,R408*%
X240830000Y-124100000D03*
D11*
X248450000Y-124100000D03*
%TD*%
D19*
%TO.C,R407*%
X211100000Y-108550000D03*
D11*
X218720000Y-108550000D03*
%TD*%
D19*
%TO.C,R406*%
X211100000Y-102200000D03*
D11*
X218720000Y-102200000D03*
%TD*%
D19*
%TO.C,R405*%
X240830000Y-121000000D03*
D11*
X248450000Y-121000000D03*
%TD*%
D19*
%TO.C,R404*%
X218720000Y-105200000D03*
D11*
X211100000Y-105200000D03*
%TD*%
D19*
%TO.C,R403*%
X237400000Y-137900000D03*
D11*
X237400000Y-130280000D03*
%TD*%
D19*
%TO.C,R402*%
X243500000Y-137920000D03*
D11*
X243500000Y-130300000D03*
%TD*%
D19*
%TO.C,R401*%
X240450000Y-137900000D03*
D11*
X240450000Y-130280000D03*
%TD*%
D19*
%TO.C,R303*%
X199120000Y-103700000D03*
D11*
X191500000Y-103700000D03*
%TD*%
D19*
%TO.C,R302*%
X234400000Y-137900000D03*
D11*
X234400000Y-130280000D03*
%TD*%
D19*
%TO.C,R301*%
X199100000Y-106700000D03*
D11*
X191480000Y-106700000D03*
%TD*%
D19*
%TO.C,R208*%
X143595000Y-37675000D03*
D11*
X135975000Y-37675000D03*
%TD*%
D19*
%TO.C,R207*%
X116555000Y-55850000D03*
D11*
X124175000Y-55850000D03*
%TD*%
D19*
%TO.C,R206*%
X138330000Y-56825000D03*
D11*
X145950000Y-56825000D03*
%TD*%
D19*
%TO.C,R205*%
X87425000Y-61600000D03*
D11*
X95045000Y-61600000D03*
%TD*%
D19*
%TO.C,R204*%
X96425000Y-55925000D03*
D11*
X104045000Y-55925000D03*
%TD*%
D19*
%TO.C,R203*%
X106480000Y-55900000D03*
D11*
X114100000Y-55900000D03*
%TD*%
D19*
%TO.C,R202*%
X84275000Y-55875000D03*
D11*
X76655000Y-55875000D03*
%TD*%
D19*
%TO.C,R201*%
X86525000Y-55900000D03*
D11*
X94145000Y-55900000D03*
%TD*%
D22*
%TO.C,Q701*%
X190660000Y-57200000D03*
D23*
X193200000Y-57200000D03*
X191930000Y-57200000D03*
%TD*%
D22*
%TO.C,Q603*%
X251100000Y-51650000D03*
D23*
X253640000Y-51650000D03*
X252370000Y-51650000D03*
%TD*%
D22*
%TO.C,Q602*%
X260860000Y-105200000D03*
D23*
X263400000Y-105200000D03*
X262130000Y-105200000D03*
%TD*%
D22*
%TO.C,Q601*%
X240610000Y-92400000D03*
D23*
X243150000Y-92400000D03*
X241880000Y-92400000D03*
%TD*%
D22*
%TO.C,Q403*%
X201760000Y-126600000D03*
D23*
X204300000Y-126600000D03*
X203030000Y-126600000D03*
%TD*%
D22*
%TO.C,Q402*%
X215410000Y-137450000D03*
D23*
X217950000Y-137450000D03*
X216680000Y-137450000D03*
%TD*%
D22*
%TO.C,Q401*%
X215910000Y-131250000D03*
D23*
X218450000Y-131250000D03*
X217180000Y-131250000D03*
%TD*%
D19*
%TO.C,D702*%
X196300000Y-62980000D03*
D20*
X196300000Y-70600000D03*
%TD*%
D19*
%TO.C,D701*%
X184200000Y-60300000D03*
D20*
X184200000Y-67920000D03*
%TD*%
D19*
%TO.C,D604*%
X246300000Y-62100000D03*
D20*
X238680000Y-62100000D03*
%TD*%
D19*
%TO.C,D603*%
X246300000Y-64650000D03*
D20*
X238680000Y-64650000D03*
%TD*%
D19*
%TO.C,D602*%
X171880000Y-127550000D03*
D20*
X179500000Y-127550000D03*
%TD*%
D19*
%TO.C,D601*%
X248400000Y-106000000D03*
D20*
X240780000Y-106000000D03*
%TD*%
D19*
%TO.C,D506*%
X216000000Y-90150000D03*
D20*
X208380000Y-90150000D03*
%TD*%
D19*
%TO.C,D505*%
X216020000Y-92700000D03*
D20*
X208400000Y-92700000D03*
%TD*%
D19*
%TO.C,D504*%
X216100000Y-95200000D03*
D20*
X208480000Y-95200000D03*
%TD*%
D19*
%TO.C,D503*%
X206300000Y-95200000D03*
D20*
X198680000Y-95200000D03*
%TD*%
D19*
%TO.C,D502*%
X206300000Y-92700000D03*
D20*
X198680000Y-92700000D03*
%TD*%
D19*
%TO.C,D501*%
X179475000Y-92900000D03*
D20*
X171855000Y-92900000D03*
%TD*%
D19*
%TO.C,D204*%
X145825000Y-60075000D03*
D20*
X138205000Y-60075000D03*
%TD*%
D19*
%TO.C,D203*%
X124200000Y-58775000D03*
D20*
X116580000Y-58775000D03*
%TD*%
D21*
%TO.C,D202*%
X141770000Y-76000000D03*
D24*
X139230000Y-76000000D03*
%TD*%
D21*
%TO.C,D201*%
X95270000Y-76000000D03*
D24*
X92730000Y-76000000D03*
%TD*%
D11*
%TO.C,C711*%
X172300000Y-70300000D03*
X177300000Y-70300000D03*
%TD*%
%TO.C,C710*%
X174900000Y-56500000D03*
X179900000Y-56500000D03*
%TD*%
%TO.C,C709*%
X198800000Y-70300000D03*
X203800000Y-70300000D03*
%TD*%
%TO.C,C708*%
X201400000Y-56500000D03*
X206400000Y-56500000D03*
%TD*%
%TO.C,C707*%
X209100000Y-67600000D03*
X209100000Y-62600000D03*
%TD*%
%TO.C,C706*%
X215800000Y-67200000D03*
X215800000Y-62200000D03*
%TD*%
%TO.C,C705*%
X196200000Y-78800000D03*
X196200000Y-73800000D03*
%TD*%
%TO.C,C704*%
X242100000Y-45500000D03*
X237100000Y-45500000D03*
%TD*%
%TO.C,C703*%
X184500000Y-70500000D03*
X189500000Y-70500000D03*
%TD*%
%TO.C,C702*%
X196200000Y-60800000D03*
X196200000Y-55800000D03*
%TD*%
%TO.C,C701*%
X169650000Y-61950000D03*
X169650000Y-56950000D03*
%TD*%
%TO.C,C614*%
X246300000Y-70500000D03*
X241300000Y-70500000D03*
%TD*%
%TO.C,C613*%
X258750000Y-50000000D03*
X258750000Y-55000000D03*
%TD*%
%TO.C,C612*%
X260450000Y-108750000D03*
X265450000Y-108750000D03*
%TD*%
%TO.C,C611*%
X243400000Y-108750000D03*
X248400000Y-108750000D03*
%TD*%
%TO.C,C610*%
X211100000Y-111600000D03*
X216100000Y-111600000D03*
%TD*%
%TO.C,C609*%
X194100000Y-112800000D03*
X199100000Y-112800000D03*
%TD*%
%TO.C,C608*%
X191550000Y-131100000D03*
X196550000Y-131100000D03*
%TD*%
%TO.C,C607*%
X174500000Y-130350000D03*
X179500000Y-130350000D03*
%TD*%
%TO.C,C606*%
X237100000Y-96000000D03*
X242100000Y-96000000D03*
%TD*%
%TO.C,C605*%
X220100000Y-96050000D03*
X225100000Y-96050000D03*
%TD*%
%TO.C,C604*%
X172900000Y-135150000D03*
D20*
X175400000Y-135150000D03*
%TD*%
D11*
%TO.C,C603*%
X233600000Y-85300000D03*
X228600000Y-85300000D03*
%TD*%
%TO.C,C602*%
X249300000Y-96000000D03*
X244300000Y-96000000D03*
%TD*%
%TO.C,C601*%
X231350000Y-137900000D03*
X231350000Y-132900000D03*
%TD*%
%TO.C,C510*%
X191450000Y-109750000D03*
X196450000Y-109750000D03*
%TD*%
%TO.C,C509*%
X174400000Y-111500000D03*
X179400000Y-111500000D03*
%TD*%
%TO.C,C508*%
X191500000Y-93000000D03*
X196500000Y-93000000D03*
%TD*%
%TO.C,C507*%
X174475000Y-101700000D03*
X179475000Y-101700000D03*
%TD*%
%TO.C,C506*%
X192000000Y-88400000D03*
X192000000Y-83400000D03*
%TD*%
%TO.C,C505*%
X208250000Y-82400000D03*
D20*
X205750000Y-82400000D03*
%TD*%
D11*
%TO.C,C504*%
X202500000Y-79500000D03*
D20*
X200000000Y-79500000D03*
%TD*%
D11*
%TO.C,C503*%
X197700000Y-83900000D03*
X202700000Y-83900000D03*
%TD*%
%TO.C,C502*%
X196500000Y-96100000D03*
X191500000Y-96100000D03*
%TD*%
%TO.C,C501*%
X174475000Y-98700000D03*
X179475000Y-98700000D03*
%TD*%
%TO.C,C203*%
X135325000Y-58775000D03*
D20*
X132825000Y-58775000D03*
%TD*%
D11*
%TO.C,C202*%
X129500000Y-58825000D03*
D20*
X127000000Y-58825000D03*
%TD*%
D11*
%TO.C,C201*%
X143550000Y-52750000D03*
X138550000Y-52750000D03*
%TD*%
M02*
