%FSLAX45Y45*%
G04 Gerber Fmt 4.5, Leading zero omitted, Abs format (unit mm)*
G04 Created by KiCad (PCBNEW (5.1.7-0-10_14)) date 2021-03-27 18:26:58*
%MOMM*%
%LPD*%
G01*
G04 APERTURE LIST*
%TA.AperFunction,Profile*%
%ADD10C,0.200000*%
%TD*%
%ADD11C,0.200000*%
%ADD12C,0.300000*%
G04 APERTURE END LIST*
D10*
X16750000Y-3000000D02*
X6705000Y-3000000D01*
X16750000Y-14335000D02*
X6705000Y-14335000D01*
X6705000Y-14335000D02*
X6705000Y-3000000D01*
X26795000Y-3000000D02*
X26795000Y-14335000D01*
X16750000Y-3000000D02*
X26795000Y-3000000D01*
X16750000Y-14335000D02*
X26795000Y-14335000D01*
X16750000Y-3000000D02*
X16750000Y-14335000D01*
D11*
X10485000Y-6355000D02*
X10525000Y-6395000D01*
X10525000Y-6355000D02*
X10485000Y-6395000D01*
X10515000Y-8525000D02*
X10555000Y-8565000D01*
X10555000Y-8525000D02*
X10515000Y-8565000D01*
X10525000Y-6055000D02*
X10565000Y-6095000D01*
X10565000Y-6055000D02*
X10525000Y-6095000D01*
X10690000Y-8365000D02*
X10730000Y-8405000D01*
X10730000Y-8365000D02*
X10690000Y-8405000D01*
X11270354Y-6050354D02*
X11310354Y-6090354D01*
X11310354Y-6050354D02*
X11270354Y-6090354D01*
X11292469Y-4682469D02*
X11332469Y-4722469D01*
X11332469Y-4682469D02*
X11292469Y-4722469D01*
X11580000Y-11755000D02*
X11620000Y-11795000D01*
X11620000Y-11755000D02*
X11580000Y-11795000D01*
X11705000Y-8924998D02*
X11745000Y-8964998D01*
X11745000Y-8924998D02*
X11705000Y-8964998D01*
X11750000Y-12055000D02*
X11790000Y-12095000D01*
X11790000Y-12055000D02*
X11750000Y-12095000D01*
X11815000Y-11865000D02*
X11855000Y-11905000D01*
X11855000Y-11865000D02*
X11815000Y-11905000D01*
X11887500Y-11755000D02*
X11927500Y-11795000D01*
X11927500Y-11755000D02*
X11887500Y-11795000D01*
X11900000Y-6545000D02*
X11940000Y-6585000D01*
X11940000Y-6545000D02*
X11900000Y-6585000D01*
X12132469Y-3842469D02*
X12172469Y-3882469D01*
X12172469Y-3842469D02*
X12132469Y-3882469D01*
X12153765Y-5483765D02*
X12193765Y-5523765D01*
X12193765Y-5483765D02*
X12153765Y-5523765D01*
X12275000Y-13550000D02*
X12315000Y-13590000D01*
X12315000Y-13550000D02*
X12275000Y-13590000D01*
X12312265Y-9034765D02*
X12352265Y-9074765D01*
X12352265Y-9034765D02*
X12312265Y-9074765D01*
X12313735Y-3513735D02*
X12353735Y-3553735D01*
X12353735Y-3513735D02*
X12313735Y-3553735D01*
X12365000Y-13850000D02*
X12405000Y-13890000D01*
X12405000Y-13850000D02*
X12365000Y-13890000D01*
X12505000Y-3425000D02*
X12545000Y-3465000D01*
X12545000Y-3425000D02*
X12505000Y-3465000D01*
X12545000Y-4990000D02*
X12585000Y-5030000D01*
X12585000Y-4990000D02*
X12545000Y-5030000D01*
X12695000Y-4740000D02*
X12735000Y-4780000D01*
X12735000Y-4740000D02*
X12695000Y-4780000D01*
X12713735Y-3363735D02*
X12753735Y-3403735D01*
X12753735Y-3363735D02*
X12713735Y-3403735D01*
X12995000Y-5425000D02*
X13035000Y-5465000D01*
X13035000Y-5425000D02*
X12995000Y-5465000D01*
X13025000Y-4740000D02*
X13065000Y-4780000D01*
X13065000Y-4740000D02*
X13025000Y-4780000D01*
X13160500Y-5465000D02*
X13200500Y-5505000D01*
X13200500Y-5465000D02*
X13160500Y-5505000D01*
X13233735Y-13549999D02*
X13273735Y-13589999D01*
X13273735Y-13549999D02*
X13233735Y-13589999D01*
X13395000Y-13549999D02*
X13435000Y-13589999D01*
X13435000Y-13549999D02*
X13395000Y-13589999D01*
X13435000Y-5135000D02*
X13475000Y-5175000D01*
X13475000Y-5135000D02*
X13435000Y-5175000D01*
X13475000Y-13850000D02*
X13515000Y-13890000D01*
X13515000Y-13850000D02*
X13475000Y-13890000D01*
X13535000Y-5135000D02*
X13575000Y-5175000D01*
X13575000Y-5135000D02*
X13535000Y-5175000D01*
X13585000Y-13850000D02*
X13625000Y-13890000D01*
X13625000Y-13850000D02*
X13585000Y-13890000D01*
X13615000Y-4725000D02*
X13655000Y-4765000D01*
X13655000Y-4725000D02*
X13615000Y-4765000D01*
X13625000Y-4585000D02*
X13665000Y-4625000D01*
X13665000Y-4585000D02*
X13625000Y-4625000D01*
X13725000Y-4725000D02*
X13765000Y-4765000D01*
X13765000Y-4725000D02*
X13725000Y-4765000D01*
X13785000Y-13550000D02*
X13825000Y-13590000D01*
X13825000Y-13550000D02*
X13785000Y-13590000D01*
X13835000Y-4990000D02*
X13875000Y-5030000D01*
X13875000Y-4990000D02*
X13835000Y-5030000D01*
X13837735Y-4399735D02*
X13877735Y-4439735D01*
X13877735Y-4399735D02*
X13837735Y-4439735D01*
X13862500Y-8625000D02*
X13902500Y-8665000D01*
X13902500Y-8625000D02*
X13862500Y-8665000D01*
X13905000Y-13777500D02*
X13945000Y-13817500D01*
X13945000Y-13777500D02*
X13905000Y-13817500D01*
X13935000Y-8485000D02*
X13975000Y-8525000D01*
X13975000Y-8485000D02*
X13935000Y-8525000D01*
X14028183Y-5738183D02*
X14068183Y-5778183D01*
X14068183Y-5738183D02*
X14028183Y-5778183D01*
X14107000Y-5875713D02*
X14147000Y-5915713D01*
X14147000Y-5875713D02*
X14107000Y-5915713D01*
X14217500Y-4415000D02*
X14257500Y-4455000D01*
X14257500Y-4415000D02*
X14217500Y-4455000D01*
X14375000Y-4715000D02*
X14415000Y-4755000D01*
X14415000Y-4715000D02*
X14375000Y-4755000D01*
X14387235Y-7247235D02*
X14427235Y-7287235D01*
X14427235Y-7247235D02*
X14387235Y-7287235D01*
X14485000Y-3832500D02*
X14525000Y-3872500D01*
X14525000Y-3832500D02*
X14485000Y-3872500D01*
X14543896Y-5325000D02*
X14583896Y-5365000D01*
X14583896Y-5325000D02*
X14543896Y-5365000D01*
X14545000Y-7675000D02*
X14585000Y-7715000D01*
X14585000Y-7675000D02*
X14545000Y-7715000D01*
X14616396Y-5153604D02*
X14656396Y-5193604D01*
X14656396Y-5153604D02*
X14616396Y-5193604D01*
X14628500Y-7795000D02*
X14668500Y-7835000D01*
X14668500Y-7795000D02*
X14628500Y-7835000D01*
X14645000Y-7935000D02*
X14685000Y-7975000D01*
X14685000Y-7935000D02*
X14645000Y-7975000D01*
X14682146Y-13607854D02*
X14722146Y-13647854D01*
X14722146Y-13607854D02*
X14682146Y-13647854D01*
X14718354Y-13911646D02*
X14758354Y-13951646D01*
X14758354Y-13911646D02*
X14718354Y-13951646D01*
X14765000Y-3765000D02*
X14805000Y-3805000D01*
X14805000Y-3765000D02*
X14765000Y-3805000D01*
X15025000Y-3508735D02*
X15065000Y-3548735D01*
X15065000Y-3508735D02*
X15025000Y-3548735D01*
X15045000Y-6705000D02*
X15085000Y-6745000D01*
X15085000Y-6705000D02*
X15045000Y-6745000D01*
X15135000Y-3436235D02*
X15175000Y-3476235D01*
X15175000Y-3436235D02*
X15135000Y-3476235D01*
X15328541Y-3436235D02*
X15368541Y-3476235D01*
X15368541Y-3436235D02*
X15328541Y-3476235D01*
X15485000Y-5485000D02*
X15525000Y-5525000D01*
X15525000Y-5485000D02*
X15485000Y-5525000D01*
X15543735Y-5323735D02*
X15583735Y-5363735D01*
X15583735Y-5323735D02*
X15543735Y-5363735D01*
X15605000Y-5485000D02*
X15645000Y-5525000D01*
X15645000Y-5485000D02*
X15605000Y-5525000D01*
X16020000Y-3436235D02*
X16060000Y-3476235D01*
X16060000Y-3436235D02*
X16020000Y-3476235D01*
X17298896Y-12203896D02*
X17338896Y-12243896D01*
X17338896Y-12203896D02*
X17298896Y-12243896D01*
X17354104Y-12389104D02*
X17394104Y-12429104D01*
X17394104Y-12389104D02*
X17354104Y-12429104D01*
X17407396Y-7512604D02*
X17447396Y-7552604D01*
X17447396Y-7512604D02*
X17407396Y-7552604D01*
X17410104Y-7089896D02*
X17450104Y-7129896D01*
X17450104Y-7089896D02*
X17410104Y-7129896D01*
X17550000Y-10437500D02*
X17590000Y-10477500D01*
X17590000Y-10437500D02*
X17550000Y-10477500D01*
X17550000Y-10585000D02*
X17590000Y-10625000D01*
X17590000Y-10585000D02*
X17550000Y-10625000D01*
X17685000Y-12875000D02*
X17725000Y-12915000D01*
X17725000Y-12875000D02*
X17685000Y-12915000D01*
X17706104Y-6326104D02*
X17746104Y-6366104D01*
X17746104Y-6326104D02*
X17706104Y-6366104D01*
X17706832Y-13097322D02*
X17746832Y-13137322D01*
X17746832Y-13097322D02*
X17706832Y-13137322D01*
X17735000Y-7845000D02*
X17775000Y-7885000D01*
X17775000Y-7845000D02*
X17735000Y-7885000D01*
X17767500Y-9535000D02*
X17807500Y-9575000D01*
X17807500Y-9535000D02*
X17767500Y-9575000D01*
X17772958Y-5624328D02*
X17812958Y-5664328D01*
X17812958Y-5624328D02*
X17772958Y-5664328D01*
X17778604Y-6253604D02*
X17818604Y-6293604D01*
X17818604Y-6253604D02*
X17778604Y-6293604D01*
X17780133Y-5948018D02*
X17820133Y-5988018D01*
X17820133Y-5948018D02*
X17780133Y-5988018D01*
X17780489Y-12677772D02*
X17820489Y-12717772D01*
X17820489Y-12677772D02*
X17780489Y-12717772D01*
X17783605Y-9808636D02*
X17823605Y-9848636D01*
X17823605Y-9808636D02*
X17783605Y-9848636D01*
X17785000Y-5765000D02*
X17825000Y-5805000D01*
X17825000Y-5765000D02*
X17785000Y-5805000D01*
X17836388Y-5471082D02*
X17876388Y-5511082D01*
X17876388Y-5471082D02*
X17836388Y-5511082D01*
X17850000Y-10275000D02*
X17890000Y-10315000D01*
X17890000Y-10275000D02*
X17850000Y-10315000D01*
X18175000Y-6517000D02*
X18215000Y-6557000D01*
X18215000Y-6517000D02*
X18175000Y-6557000D01*
X18175000Y-6662000D02*
X18215000Y-6702000D01*
X18215000Y-6662000D02*
X18175000Y-6702000D01*
X18190000Y-5525000D02*
X18230000Y-5565000D01*
X18230000Y-5525000D02*
X18190000Y-5565000D01*
X18190000Y-10165000D02*
X18230000Y-10205000D01*
X18230000Y-10165000D02*
X18190000Y-10205000D01*
X18245617Y-4749383D02*
X18285617Y-4789383D01*
X18285617Y-4749383D02*
X18245617Y-4789383D01*
X18275000Y-6517000D02*
X18315000Y-6557000D01*
X18315000Y-6517000D02*
X18275000Y-6557000D01*
X18315648Y-4614352D02*
X18355648Y-4654352D01*
X18355648Y-4614352D02*
X18315648Y-4654352D01*
X18335000Y-7140000D02*
X18375000Y-7180000D01*
X18375000Y-7140000D02*
X18335000Y-7180000D01*
X18360000Y-6215000D02*
X18400000Y-6255000D01*
X18400000Y-6215000D02*
X18360000Y-6255000D01*
X18377432Y-8017500D02*
X18417432Y-8057500D01*
X18417432Y-8017500D02*
X18377432Y-8057500D01*
X18377500Y-4778735D02*
X18417500Y-4818735D01*
X18417500Y-4778735D02*
X18377500Y-4818735D01*
X18405001Y-10065000D02*
X18445001Y-10105000D01*
X18445001Y-10065000D02*
X18405001Y-10105000D01*
X18405001Y-10165000D02*
X18445001Y-10205000D01*
X18445001Y-10165000D02*
X18405001Y-10205000D01*
X18405001Y-11010000D02*
X18445001Y-11050000D01*
X18445001Y-11010000D02*
X18405001Y-11050000D01*
X18426497Y-7865905D02*
X18466497Y-7905905D01*
X18466497Y-7865905D02*
X18426497Y-7905905D01*
X18464765Y-11159765D02*
X18504765Y-11199765D01*
X18504765Y-11159765D02*
X18464765Y-11199765D01*
X18466060Y-8063815D02*
X18506060Y-8103815D01*
X18506060Y-8063815D02*
X18466060Y-8103815D01*
X18505000Y-5580000D02*
X18545000Y-5620000D01*
X18545000Y-5580000D02*
X18505000Y-5620000D01*
X18547500Y-8612053D02*
X18587500Y-8652053D01*
X18587500Y-8612053D02*
X18547500Y-8652053D01*
X18600772Y-11442403D02*
X18640772Y-11482403D01*
X18640772Y-11442403D02*
X18600772Y-11482403D01*
X18605000Y-5600000D02*
X18645000Y-5640000D01*
X18645000Y-5600000D02*
X18605000Y-5640000D01*
X18615000Y-8060000D02*
X18655000Y-8100000D01*
X18655000Y-8060000D02*
X18615000Y-8100000D01*
X18618626Y-11982500D02*
X18658626Y-12022500D01*
X18658626Y-11982500D02*
X18618626Y-12022500D01*
X18619078Y-13116935D02*
X18659078Y-13156935D01*
X18659078Y-13116935D02*
X18619078Y-13156935D01*
X18620000Y-8540896D02*
X18660000Y-8580896D01*
X18660000Y-8540896D02*
X18620000Y-8580896D01*
X18622458Y-12907000D02*
X18662458Y-12947000D01*
X18662458Y-12907000D02*
X18622458Y-12947000D01*
X18625000Y-12130000D02*
X18665000Y-12170000D01*
X18665000Y-12130000D02*
X18625000Y-12170000D01*
X18638258Y-13638212D02*
X18678258Y-13678212D01*
X18678258Y-13638212D02*
X18638258Y-13678212D01*
X18647500Y-5385000D02*
X18687500Y-5425000D01*
X18687500Y-5385000D02*
X18647500Y-5425000D01*
X18658735Y-13906265D02*
X18698735Y-13946265D01*
X18698735Y-13906265D02*
X18658735Y-13946265D01*
X18678877Y-8825862D02*
X18718877Y-8865862D01*
X18718877Y-8825862D02*
X18678877Y-8865862D01*
X18682973Y-7770134D02*
X18722973Y-7810134D01*
X18722973Y-7770134D02*
X18682973Y-7810134D01*
X18688604Y-8713604D02*
X18728604Y-8753604D01*
X18728604Y-8713604D02*
X18688604Y-8753604D01*
X18700000Y-11285000D02*
X18740000Y-11325000D01*
X18740000Y-11285000D02*
X18700000Y-11325000D01*
X18700000Y-11430000D02*
X18740000Y-11470000D01*
X18740000Y-11430000D02*
X18700000Y-11470000D01*
X18700000Y-12055000D02*
X18740000Y-12095000D01*
X18740000Y-12055000D02*
X18700000Y-12095000D01*
X18710758Y-13077000D02*
X18750758Y-13117000D01*
X18750758Y-13077000D02*
X18710758Y-13117000D01*
X18720000Y-4630000D02*
X18760000Y-4670000D01*
X18760000Y-4630000D02*
X18720000Y-4670000D01*
X18720000Y-4935000D02*
X18760000Y-4975000D01*
X18760000Y-4935000D02*
X18720000Y-4975000D01*
X18720000Y-5055000D02*
X18760000Y-5095000D01*
X18760000Y-5055000D02*
X18720000Y-5095000D01*
X18720000Y-5690000D02*
X18760000Y-5730000D01*
X18760000Y-5690000D02*
X18720000Y-5730000D01*
X18720000Y-5820000D02*
X18760000Y-5860000D01*
X18760000Y-5820000D02*
X18720000Y-5860000D01*
X18735000Y-10237500D02*
X18775000Y-10277500D01*
X18775000Y-10237500D02*
X18735000Y-10277500D01*
X18760000Y-10019485D02*
X18800000Y-10059485D01*
X18800000Y-10019485D02*
X18760000Y-10059485D01*
X18760104Y-7842500D02*
X18800104Y-7882500D01*
X18800104Y-7842500D02*
X18760104Y-7882500D01*
X18767458Y-12962666D02*
X18807458Y-13002666D01*
X18807458Y-12962666D02*
X18767458Y-13002666D01*
X18775883Y-7597679D02*
X18815883Y-7637679D01*
X18815883Y-7597679D02*
X18775883Y-7637679D01*
X18802396Y-6272604D02*
X18842396Y-6312604D01*
X18842396Y-6272604D02*
X18802396Y-6312604D01*
X18807537Y-7692537D02*
X18847537Y-7732537D01*
X18847537Y-7692537D02*
X18807537Y-7732537D01*
X18812829Y-6385568D02*
X18852829Y-6425568D01*
X18852829Y-6385568D02*
X18812829Y-6425568D01*
X18831742Y-10164485D02*
X18871742Y-10204485D01*
X18871742Y-10164485D02*
X18831742Y-10204485D01*
X18870000Y-12055000D02*
X18910000Y-12095000D01*
X18910000Y-12055000D02*
X18870000Y-12095000D01*
X18882634Y-6870598D02*
X18922634Y-6910598D01*
X18922634Y-6870598D02*
X18882634Y-6910598D01*
X18890000Y-4885000D02*
X18930000Y-4925000D01*
X18930000Y-4885000D02*
X18890000Y-4925000D01*
X18892604Y-6122396D02*
X18932604Y-6162396D01*
X18932604Y-6122396D02*
X18892604Y-6162396D01*
X18906985Y-10091985D02*
X18946985Y-10131985D01*
X18946985Y-10091985D02*
X18906985Y-10131985D01*
X18940000Y-5380000D02*
X18980000Y-5420000D01*
X18980000Y-5380000D02*
X18940000Y-5420000D01*
X19001379Y-4581379D02*
X19041379Y-4621379D01*
X19041379Y-4581379D02*
X19001379Y-4621379D01*
X19020000Y-7175000D02*
X19060000Y-7215000D01*
X19060000Y-7175000D02*
X19020000Y-7215000D01*
X19056265Y-8016265D02*
X19096265Y-8056265D01*
X19096265Y-8016265D02*
X19056265Y-8056265D01*
X19105000Y-12945000D02*
X19145000Y-12985000D01*
X19145000Y-12945000D02*
X19105000Y-12985000D01*
X19112015Y-10092015D02*
X19152015Y-10132015D01*
X19152015Y-10092015D02*
X19112015Y-10132015D01*
X19120000Y-7837000D02*
X19160000Y-7877000D01*
X19160000Y-7837000D02*
X19120000Y-7877000D01*
X19125000Y-11095000D02*
X19165000Y-11135000D01*
X19165000Y-11095000D02*
X19125000Y-11135000D01*
X19165000Y-7665000D02*
X19205000Y-7705000D01*
X19205000Y-7665000D02*
X19165000Y-7705000D01*
X19165000Y-7115000D02*
X19205000Y-7155000D01*
X19205000Y-7115000D02*
X19165000Y-7155000D01*
X19168374Y-8959517D02*
X19208374Y-8999517D01*
X19208374Y-8959517D02*
X19168374Y-8999517D01*
X19257647Y-9647500D02*
X19297647Y-9687500D01*
X19297647Y-9647500D02*
X19257647Y-9687500D01*
X19270000Y-8551500D02*
X19310000Y-8591500D01*
X19310000Y-8551500D02*
X19270000Y-8591500D01*
X19295000Y-10577500D02*
X19335000Y-10617500D01*
X19335000Y-10577500D02*
X19295000Y-10617500D01*
X19301345Y-6531137D02*
X19341345Y-6571137D01*
X19341345Y-6531137D02*
X19301345Y-6571137D01*
X19301464Y-10468505D02*
X19341464Y-10508505D01*
X19341464Y-10468505D02*
X19301464Y-10508505D01*
X19305000Y-9940000D02*
X19345000Y-9980000D01*
X19345000Y-9940000D02*
X19305000Y-9980000D01*
X19315104Y-13149896D02*
X19355104Y-13189896D01*
X19355104Y-13149896D02*
X19315104Y-13189896D01*
X19324104Y-5010896D02*
X19364104Y-5050896D01*
X19364104Y-5010896D02*
X19324104Y-5050896D01*
X19340000Y-5380000D02*
X19380000Y-5420000D01*
X19380000Y-5380000D02*
X19340000Y-5420000D01*
X19365899Y-5890357D02*
X19405899Y-5930357D01*
X19405899Y-5890357D02*
X19365899Y-5930357D01*
X19367500Y-10722500D02*
X19407500Y-10762500D01*
X19407500Y-10722500D02*
X19367500Y-10762500D01*
X19405000Y-8385000D02*
X19445000Y-8425000D01*
X19445000Y-8385000D02*
X19405000Y-8425000D01*
X19410000Y-5632500D02*
X19450000Y-5672500D01*
X19450000Y-5632500D02*
X19410000Y-5672500D01*
X19475000Y-6212500D02*
X19515000Y-6252500D01*
X19515000Y-6212500D02*
X19475000Y-6252500D01*
X19537500Y-7190000D02*
X19577500Y-7230000D01*
X19577500Y-7190000D02*
X19537500Y-7230000D01*
X19538852Y-7485940D02*
X19578852Y-7525940D01*
X19578852Y-7485940D02*
X19538852Y-7525940D01*
X19591235Y-8826235D02*
X19631235Y-8866235D01*
X19631235Y-8826235D02*
X19591235Y-8866235D01*
X19605000Y-5175000D02*
X19645000Y-5215000D01*
X19645000Y-5175000D02*
X19605000Y-5215000D01*
X19680000Y-11675000D02*
X19720000Y-11715000D01*
X19720000Y-11675000D02*
X19680000Y-11715000D01*
X19685000Y-12020000D02*
X19725000Y-12060000D01*
X19725000Y-12020000D02*
X19685000Y-12060000D01*
X19685000Y-12380000D02*
X19725000Y-12420000D01*
X19725000Y-12380000D02*
X19685000Y-12420000D01*
X19685000Y-13725000D02*
X19725000Y-13765000D01*
X19725000Y-13725000D02*
X19685000Y-13765000D01*
X19720000Y-5175000D02*
X19760000Y-5215000D01*
X19760000Y-5175000D02*
X19720000Y-5215000D01*
X19740951Y-9853482D02*
X19780951Y-9893482D01*
X19780951Y-9853482D02*
X19740951Y-9893482D01*
X19750975Y-8092767D02*
X19790975Y-8132767D01*
X19790975Y-8092767D02*
X19750975Y-8132767D01*
X19825000Y-8160000D02*
X19865000Y-8200000D01*
X19865000Y-8160000D02*
X19825000Y-8200000D01*
X19857952Y-4484361D02*
X19897952Y-4524361D01*
X19897952Y-4484361D02*
X19857952Y-4524361D01*
X19885000Y-12025000D02*
X19925000Y-12065000D01*
X19925000Y-12025000D02*
X19885000Y-12065000D01*
X19894896Y-5345000D02*
X19934896Y-5385000D01*
X19934896Y-5345000D02*
X19894896Y-5385000D01*
X19895000Y-13130001D02*
X19935000Y-13170001D01*
X19935000Y-13130001D02*
X19895000Y-13170001D01*
X19920000Y-8330000D02*
X19960000Y-8370000D01*
X19960000Y-8330000D02*
X19920000Y-8370000D01*
X19925000Y-8160000D02*
X19965000Y-8200000D01*
X19965000Y-8160000D02*
X19925000Y-8200000D01*
X19955000Y-4360000D02*
X19995000Y-4400000D01*
X19995000Y-4360000D02*
X19955000Y-4400000D01*
X19955000Y-10848000D02*
X19995000Y-10888000D01*
X19995000Y-10848000D02*
X19955000Y-10888000D01*
X19960000Y-7745000D02*
X20000000Y-7785000D01*
X20000000Y-7745000D02*
X19960000Y-7785000D01*
X19985000Y-4508879D02*
X20025000Y-4548879D01*
X20025000Y-4508879D02*
X19985000Y-4548879D01*
X19991765Y-9291235D02*
X20031765Y-9331235D01*
X20031765Y-9291235D02*
X19991765Y-9331235D01*
X20010000Y-6234000D02*
X20050000Y-6274000D01*
X20050000Y-6234000D02*
X20010000Y-6274000D01*
X20020000Y-6379000D02*
X20060000Y-6419000D01*
X20060000Y-6379000D02*
X20020000Y-6419000D01*
X20020000Y-8965000D02*
X20060000Y-9005000D01*
X20060000Y-8965000D02*
X20020000Y-9005000D01*
X20026275Y-8856195D02*
X20066275Y-8896195D01*
X20066275Y-8856195D02*
X20026275Y-8896195D01*
X20027195Y-11537114D02*
X20067195Y-11577114D01*
X20067195Y-11537114D02*
X20027195Y-11577114D01*
X20030000Y-8330000D02*
X20070000Y-8370000D01*
X20070000Y-8330000D02*
X20030000Y-8370000D01*
X20040000Y-13650000D02*
X20080000Y-13690000D01*
X20080000Y-13650000D02*
X20040000Y-13690000D01*
X20059126Y-4987500D02*
X20099126Y-5027500D01*
X20099126Y-4987500D02*
X20059126Y-5027500D01*
X20060000Y-7745000D02*
X20100000Y-7785000D01*
X20100000Y-7745000D02*
X20060000Y-7785000D01*
X20108722Y-6425135D02*
X20148722Y-6465135D01*
X20148722Y-6425135D02*
X20108722Y-6465135D01*
X20110000Y-6234000D02*
X20150000Y-6274000D01*
X20150000Y-6234000D02*
X20110000Y-6274000D01*
X20137501Y-7381490D02*
X20177501Y-7421490D01*
X20177501Y-7381490D02*
X20137501Y-7421490D01*
X20137501Y-7651020D02*
X20177501Y-7691020D01*
X20177501Y-7651020D02*
X20137501Y-7691020D01*
X20140000Y-4915000D02*
X20180000Y-4955000D01*
X20180000Y-4915000D02*
X20140000Y-4955000D01*
X20143765Y-8943765D02*
X20183765Y-8983765D01*
X20183765Y-8943765D02*
X20143765Y-8983765D01*
X20197444Y-6379000D02*
X20237444Y-6419000D01*
X20237444Y-6379000D02*
X20197444Y-6419000D01*
X20210001Y-6234000D02*
X20250001Y-6274000D01*
X20250001Y-6234000D02*
X20210001Y-6274000D01*
X20231816Y-10703000D02*
X20271816Y-10743000D01*
X20271816Y-10703000D02*
X20231816Y-10743000D01*
X20327735Y-9832265D02*
X20367735Y-9872265D01*
X20367735Y-9832265D02*
X20327735Y-9872265D01*
X20331816Y-10703000D02*
X20371816Y-10743000D01*
X20371816Y-10703000D02*
X20331816Y-10743000D01*
X20360000Y-6379000D02*
X20400000Y-6419000D01*
X20400000Y-6379000D02*
X20360000Y-6419000D01*
X20367178Y-4581379D02*
X20407178Y-4621379D01*
X20407178Y-4581379D02*
X20367178Y-4621379D01*
X20420000Y-9930000D02*
X20460000Y-9970000D01*
X20460000Y-9930000D02*
X20420000Y-9970000D01*
X20430265Y-9729735D02*
X20470265Y-9769735D01*
X20470265Y-9729735D02*
X20430265Y-9769735D01*
X20440000Y-6234000D02*
X20480000Y-6274000D01*
X20480000Y-6234000D02*
X20440000Y-6274000D01*
X20440000Y-13870000D02*
X20480000Y-13910000D01*
X20480000Y-13870000D02*
X20440000Y-13910000D01*
X20460000Y-6379000D02*
X20500000Y-6419000D01*
X20500000Y-6379000D02*
X20460000Y-6419000D01*
X20481180Y-10995000D02*
X20521180Y-11035000D01*
X20521180Y-10995000D02*
X20481180Y-11035000D01*
X20492235Y-4447235D02*
X20532235Y-4487235D01*
X20532235Y-4447235D02*
X20492235Y-4487235D01*
X20496111Y-5545000D02*
X20536111Y-5585000D01*
X20536111Y-5545000D02*
X20496111Y-5585000D01*
X20507500Y-4915000D02*
X20547500Y-4955000D01*
X20547500Y-4915000D02*
X20507500Y-4955000D01*
X20507500Y-5015000D02*
X20547500Y-5055000D01*
X20547500Y-5015000D02*
X20507500Y-5055000D01*
X20510000Y-11165000D02*
X20550000Y-11205000D01*
X20550000Y-11165000D02*
X20510000Y-11205000D01*
X20520000Y-5760000D02*
X20560000Y-5800000D01*
X20560000Y-5760000D02*
X20520000Y-5800000D01*
X20521515Y-9820985D02*
X20561515Y-9860985D01*
X20561515Y-9820985D02*
X20521515Y-9860985D01*
X20542265Y-4602265D02*
X20582265Y-4642265D01*
X20582265Y-4602265D02*
X20542265Y-4642265D01*
X20555000Y-12963695D02*
X20595000Y-13003695D01*
X20595000Y-12963695D02*
X20555000Y-13003695D01*
X20569924Y-12818695D02*
X20609924Y-12858695D01*
X20609924Y-12818695D02*
X20569924Y-12858695D01*
X20576235Y-11606235D02*
X20616235Y-11646235D01*
X20616235Y-11606235D02*
X20576235Y-11646235D01*
X20580000Y-5087500D02*
X20620000Y-5127500D01*
X20620000Y-5087500D02*
X20580000Y-5127500D01*
X20580771Y-12130760D02*
X20620771Y-12170760D01*
X20620771Y-12130760D02*
X20580771Y-12170760D01*
X20594604Y-13760396D02*
X20634604Y-13800396D01*
X20634604Y-13760396D02*
X20594604Y-13800396D01*
X20610000Y-10928000D02*
X20650000Y-10968000D01*
X20650000Y-10928000D02*
X20610000Y-10968000D01*
X20610000Y-11165001D02*
X20650000Y-11205001D01*
X20650000Y-11165001D02*
X20610000Y-11205001D01*
X20610000Y-13170000D02*
X20650000Y-13210000D01*
X20650000Y-13170000D02*
X20610000Y-13210000D01*
X20612976Y-4531555D02*
X20652976Y-4571555D01*
X20652976Y-4531555D02*
X20612976Y-4571555D01*
X20618044Y-12668044D02*
X20658044Y-12708044D01*
X20658044Y-12668044D02*
X20618044Y-12708044D01*
X20639396Y-14045604D02*
X20679396Y-14085604D01*
X20679396Y-14045604D02*
X20639396Y-14085604D01*
X20653735Y-11528735D02*
X20693735Y-11568735D01*
X20693735Y-11528735D02*
X20653735Y-11568735D01*
X20655000Y-13000000D02*
X20695000Y-13040000D01*
X20695000Y-13000000D02*
X20655000Y-13040000D01*
X20661275Y-12891195D02*
X20701275Y-12931195D01*
X20701275Y-12891195D02*
X20661275Y-12931195D01*
X20685000Y-12320000D02*
X20725000Y-12360000D01*
X20725000Y-12320000D02*
X20685000Y-12360000D01*
X20711395Y-11165001D02*
X20751395Y-11205001D01*
X20751395Y-11165001D02*
X20711395Y-11205001D01*
X20715000Y-10928000D02*
X20755000Y-10968000D01*
X20755000Y-10928000D02*
X20715000Y-10968000D01*
X20721484Y-10426137D02*
X20761484Y-10466137D01*
X20761484Y-10426137D02*
X20721484Y-10466137D01*
X20730000Y-10326500D02*
X20770000Y-10366500D01*
X20770000Y-10326500D02*
X20730000Y-10366500D01*
X20732127Y-11655977D02*
X20772127Y-11695977D01*
X20772127Y-11655977D02*
X20732127Y-11695977D01*
X20755000Y-11530000D02*
X20795000Y-11570000D01*
X20795000Y-11530000D02*
X20755000Y-11570000D01*
X20811891Y-10181500D02*
X20851891Y-10221500D01*
X20851891Y-10181500D02*
X20811891Y-10221500D01*
X20848735Y-5148765D02*
X20888735Y-5188765D01*
X20888735Y-5148765D02*
X20848735Y-5188765D01*
X20867532Y-12940000D02*
X20907532Y-12980000D01*
X20907532Y-12940000D02*
X20867532Y-12980000D01*
X20870000Y-9720000D02*
X20910000Y-9760000D01*
X20910000Y-9720000D02*
X20870000Y-9760000D01*
X20905000Y-4445000D02*
X20945000Y-4485000D01*
X20945000Y-4445000D02*
X20905000Y-4485000D01*
X20949016Y-12479017D02*
X20989016Y-12519017D01*
X20989016Y-12479017D02*
X20949016Y-12519017D01*
X20950000Y-8550000D02*
X20990000Y-8590000D01*
X20990000Y-8550000D02*
X20950000Y-8590000D01*
X20955677Y-5503717D02*
X20995677Y-5543717D01*
X20995677Y-5503717D02*
X20955677Y-5543717D01*
X20960000Y-8285000D02*
X21000000Y-8325000D01*
X21000000Y-8285000D02*
X20960000Y-8325000D01*
X20971225Y-12926225D02*
X21011225Y-12966225D01*
X21011225Y-12926225D02*
X20971225Y-12966225D01*
X20981638Y-12578923D02*
X21021638Y-12618923D01*
X21021638Y-12578923D02*
X20981638Y-12618923D01*
X20989272Y-9360981D02*
X21029272Y-9400981D01*
X21029272Y-9360981D02*
X20989272Y-9400981D01*
X20993735Y-5178735D02*
X21033735Y-5218735D01*
X21033735Y-5178735D02*
X20993735Y-5218735D01*
X21020000Y-9655000D02*
X21060000Y-9695000D01*
X21060000Y-9655000D02*
X21020000Y-9695000D01*
X21023664Y-5083318D02*
X21063664Y-5123318D01*
X21063664Y-5083318D02*
X21023664Y-5123318D01*
X21043160Y-5431217D02*
X21083160Y-5471217D01*
X21083160Y-5431217D02*
X21043160Y-5471217D01*
X21045000Y-8455000D02*
X21085000Y-8495000D01*
X21085000Y-8455000D02*
X21045000Y-8495000D01*
X21046265Y-5331265D02*
X21086265Y-5371265D01*
X21086265Y-5331265D02*
X21046265Y-5371265D01*
X21066225Y-12831224D02*
X21106225Y-12871224D01*
X21106225Y-12831224D02*
X21066225Y-12871224D01*
X21088782Y-9372500D02*
X21128782Y-9412500D01*
X21128782Y-9372500D02*
X21088782Y-9412500D01*
X21100015Y-9177485D02*
X21140015Y-9217485D01*
X21140015Y-9177485D02*
X21100015Y-9217485D01*
X21105000Y-4920000D02*
X21145000Y-4960000D01*
X21145000Y-4920000D02*
X21105000Y-4960000D01*
X21115010Y-9059960D02*
X21155010Y-9099960D01*
X21155010Y-9059960D02*
X21115010Y-9099960D01*
X21116235Y-5503765D02*
X21156235Y-5543765D01*
X21156235Y-5503765D02*
X21116235Y-5543765D01*
X21130000Y-8285000D02*
X21170000Y-8325000D01*
X21170000Y-8285000D02*
X21130000Y-8325000D01*
X21140000Y-4585000D02*
X21180000Y-4625000D01*
X21180000Y-4585000D02*
X21140000Y-4625000D01*
X21185588Y-5962242D02*
X21225588Y-6002242D01*
X21225588Y-5962242D02*
X21185588Y-6002242D01*
X21208050Y-12258931D02*
X21248050Y-12298931D01*
X21248050Y-12258931D02*
X21208050Y-12298931D01*
X21230000Y-13990000D02*
X21270000Y-14030000D01*
X21270000Y-13990000D02*
X21230000Y-14030000D01*
X21240000Y-10250000D02*
X21280000Y-10290000D01*
X21280000Y-10250000D02*
X21240000Y-10290000D01*
X21242104Y-13137896D02*
X21282104Y-13177896D01*
X21282104Y-13137896D02*
X21242104Y-13177896D01*
X21250000Y-5025000D02*
X21290000Y-5065000D01*
X21290000Y-5025000D02*
X21250000Y-5065000D01*
X21258088Y-5889906D02*
X21298088Y-5929906D01*
X21298088Y-5889906D02*
X21258088Y-5929906D01*
X21355000Y-13310001D02*
X21395000Y-13350001D01*
X21395000Y-13310001D02*
X21355000Y-13350001D01*
X21362396Y-10267396D02*
X21402396Y-10307396D01*
X21402396Y-10267396D02*
X21362396Y-10307396D01*
X21386398Y-12166070D02*
X21426398Y-12206070D01*
X21426398Y-12166070D02*
X21386398Y-12206070D01*
X21395000Y-8527500D02*
X21435000Y-8567500D01*
X21435000Y-8527500D02*
X21395000Y-8567500D01*
X21399699Y-13677960D02*
X21439699Y-13717960D01*
X21439699Y-13677960D02*
X21399699Y-13717960D01*
X21402500Y-4585000D02*
X21442500Y-4625000D01*
X21442500Y-4585000D02*
X21402500Y-4625000D01*
X21402500Y-4915000D02*
X21442500Y-4955000D01*
X21442500Y-4915000D02*
X21402500Y-4955000D01*
X21410001Y-10705000D02*
X21450001Y-10745000D01*
X21450001Y-10705000D02*
X21410001Y-10745000D01*
X21417604Y-10452604D02*
X21457604Y-10492604D01*
X21457604Y-10452604D02*
X21417604Y-10492604D01*
X21430817Y-14186000D02*
X21470817Y-14226000D01*
X21470817Y-14186000D02*
X21430817Y-14226000D01*
X21433107Y-10196685D02*
X21473107Y-10236685D01*
X21473107Y-10196685D02*
X21433107Y-10236685D01*
X21441235Y-10578765D02*
X21481235Y-10618765D01*
X21481235Y-10578765D02*
X21441235Y-10618765D01*
X21455000Y-12365000D02*
X21495000Y-12405000D01*
X21495000Y-12365000D02*
X21455000Y-12405000D01*
X21455002Y-10799127D02*
X21495002Y-10839127D01*
X21495002Y-10799127D02*
X21455002Y-10839127D01*
X21505000Y-4832500D02*
X21545000Y-4872500D01*
X21545000Y-4832500D02*
X21505000Y-4872500D01*
X21507500Y-8630000D02*
X21547500Y-8670000D01*
X21547500Y-8630000D02*
X21507500Y-8670000D01*
X21527500Y-12232500D02*
X21567500Y-12272500D01*
X21567500Y-12232500D02*
X21527500Y-12272500D01*
X21533869Y-10336339D02*
X21573869Y-10376339D01*
X21573869Y-10336339D02*
X21533869Y-10376339D01*
X21545000Y-5327500D02*
X21585000Y-5367500D01*
X21585000Y-5327500D02*
X21545000Y-5367500D01*
X21549229Y-4978102D02*
X21589229Y-5018102D01*
X21589229Y-4978102D02*
X21549229Y-5018102D01*
X21550000Y-12000000D02*
X21590000Y-12040000D01*
X21590000Y-12000000D02*
X21550000Y-12040000D01*
X21553735Y-7903735D02*
X21593735Y-7943735D01*
X21593735Y-7903735D02*
X21553735Y-7943735D01*
X21557604Y-8367604D02*
X21597604Y-8407604D01*
X21597604Y-8367604D02*
X21557604Y-8407604D01*
X21597500Y-11880000D02*
X21637500Y-11920000D01*
X21637500Y-11880000D02*
X21597500Y-11920000D01*
X21611146Y-12287303D02*
X21651146Y-12327303D01*
X21651146Y-12287303D02*
X21611146Y-12327303D01*
X21642000Y-10830000D02*
X21682000Y-10870000D01*
X21682000Y-10830000D02*
X21642000Y-10870000D01*
X21642000Y-11485000D02*
X21682000Y-11525000D01*
X21682000Y-11485000D02*
X21642000Y-11525000D01*
X21645896Y-12909765D02*
X21685896Y-12949765D01*
X21685896Y-12909765D02*
X21645896Y-12949765D01*
X21660104Y-8474896D02*
X21700104Y-8514896D01*
X21700104Y-8474896D02*
X21660104Y-8514896D01*
X21680000Y-13310001D02*
X21720000Y-13350001D01*
X21720000Y-13310001D02*
X21680000Y-13350001D01*
X21695000Y-7865000D02*
X21735000Y-7905000D01*
X21735000Y-7865000D02*
X21695000Y-7905000D01*
X21718396Y-12828604D02*
X21758396Y-12868604D01*
X21758396Y-12828604D02*
X21718396Y-12868604D01*
X21748264Y-12444204D02*
X21788264Y-12484204D01*
X21788264Y-12444204D02*
X21748264Y-12484204D01*
X21755000Y-4685000D02*
X21795000Y-4725000D01*
X21795000Y-4685000D02*
X21755000Y-4725000D01*
X21765000Y-8868844D02*
X21805000Y-8908844D01*
X21805000Y-8868844D02*
X21765000Y-8908844D01*
X21797834Y-8127374D02*
X21837834Y-8167374D01*
X21837834Y-8127374D02*
X21797834Y-8167374D01*
X21800000Y-4525000D02*
X21840000Y-4565000D01*
X21840000Y-4525000D02*
X21800000Y-4565000D01*
X21820000Y-10690000D02*
X21860000Y-10730000D01*
X21860000Y-10690000D02*
X21820000Y-10730000D01*
X21831031Y-13916031D02*
X21871031Y-13956031D01*
X21871031Y-13916031D02*
X21831031Y-13956031D01*
X21895000Y-8272374D02*
X21935000Y-8312374D01*
X21935000Y-8272374D02*
X21895000Y-8312374D01*
X21924500Y-11290000D02*
X21964500Y-11330000D01*
X21964500Y-11290000D02*
X21924500Y-11330000D01*
X21935000Y-8955000D02*
X21975000Y-8995000D01*
X21975000Y-8955000D02*
X21935000Y-8995000D01*
X21946037Y-10938717D02*
X21986037Y-10978717D01*
X21986037Y-10938717D02*
X21946037Y-10978717D01*
X21955767Y-12454224D02*
X21995767Y-12494224D01*
X21995767Y-12454224D02*
X21955767Y-12494224D01*
X21971733Y-4528678D02*
X22011733Y-4568678D01*
X22011733Y-4528678D02*
X21971733Y-4568678D01*
X21979418Y-8325980D02*
X22019418Y-8365980D01*
X22019418Y-8325980D02*
X21979418Y-8365980D01*
X21982704Y-8101603D02*
X22022704Y-8141603D01*
X22022704Y-8101603D02*
X21982704Y-8141603D01*
X21988485Y-7578485D02*
X22028485Y-7618485D01*
X22028485Y-7578485D02*
X21988485Y-7618485D01*
X21990000Y-4925000D02*
X22030000Y-4965000D01*
X22030000Y-4925000D02*
X21990000Y-4965000D01*
X22006084Y-4675003D02*
X22046084Y-4715003D01*
X22046084Y-4675003D02*
X22006084Y-4715003D01*
X22013562Y-13938561D02*
X22053562Y-13978561D01*
X22053562Y-13938561D02*
X22013562Y-13978561D01*
X22047220Y-7417219D02*
X22087220Y-7457219D01*
X22087220Y-7417219D02*
X22047220Y-7457219D01*
X22050000Y-8860000D02*
X22090000Y-8900000D01*
X22090000Y-8860000D02*
X22050000Y-8900000D01*
X22080000Y-4456178D02*
X22120000Y-4496178D01*
X22120000Y-4456178D02*
X22080000Y-4496178D01*
X22173273Y-12023275D02*
X22213273Y-12063275D01*
X22213273Y-12023275D02*
X22173273Y-12063275D01*
X22179104Y-10414104D02*
X22219104Y-10454104D01*
X22219104Y-10414104D02*
X22179104Y-10454104D01*
X22230000Y-12290000D02*
X22270000Y-12330000D01*
X22270000Y-12290000D02*
X22230000Y-12330000D01*
X22248605Y-12671395D02*
X22288605Y-12711395D01*
X22288605Y-12671395D02*
X22248605Y-12711395D01*
X22250000Y-10822500D02*
X22290000Y-10862500D01*
X22290000Y-10822500D02*
X22250000Y-10862500D01*
X22250000Y-11370000D02*
X22290000Y-11410000D01*
X22290000Y-11370000D02*
X22250000Y-11410000D01*
X22300000Y-10422000D02*
X22340000Y-10462000D01*
X22340000Y-10422000D02*
X22300000Y-10462000D01*
X22305623Y-9772500D02*
X22345623Y-9812500D01*
X22345623Y-9772500D02*
X22305623Y-9812500D01*
X22317485Y-6142485D02*
X22357485Y-6182485D01*
X22357485Y-6142485D02*
X22317485Y-6182485D01*
X22318677Y-9394500D02*
X22358677Y-9434500D01*
X22358677Y-9394500D02*
X22318677Y-9434500D01*
X22335104Y-7590104D02*
X22375104Y-7630104D01*
X22375104Y-7590104D02*
X22335104Y-7630104D01*
X22337881Y-10014911D02*
X22377881Y-10054911D01*
X22377881Y-10014911D02*
X22337881Y-10054911D01*
X22347500Y-7379586D02*
X22387500Y-7419586D01*
X22387500Y-7379586D02*
X22347500Y-7419586D01*
X22350000Y-3813000D02*
X22390000Y-3853000D01*
X22390000Y-3813000D02*
X22350000Y-3853000D01*
X22350000Y-3958000D02*
X22390000Y-3998000D01*
X22390000Y-3958000D02*
X22350000Y-3998000D01*
X22374741Y-12695000D02*
X22414741Y-12735000D01*
X22414741Y-12695000D02*
X22374741Y-12735000D01*
X22380000Y-6035000D02*
X22420000Y-6075000D01*
X22420000Y-6035000D02*
X22380000Y-6075000D01*
X22426265Y-11323735D02*
X22466265Y-11363735D01*
X22466265Y-11323735D02*
X22426265Y-11363735D01*
X22447241Y-12812111D02*
X22487241Y-12852111D01*
X22487241Y-12812111D02*
X22447241Y-12852111D01*
X22459838Y-12944959D02*
X22499838Y-12984959D01*
X22499838Y-12944959D02*
X22459838Y-12984959D01*
X22460000Y-7550000D02*
X22500000Y-7590000D01*
X22500000Y-7550000D02*
X22460000Y-7590000D01*
X22465000Y-11045000D02*
X22505000Y-11085000D01*
X22505000Y-11045000D02*
X22465000Y-11085000D01*
X22470000Y-7380000D02*
X22510000Y-7420000D01*
X22510000Y-7380000D02*
X22470000Y-7420000D01*
X22490000Y-13150000D02*
X22530000Y-13190000D01*
X22530000Y-13150000D02*
X22490000Y-13190000D01*
X22515218Y-13334374D02*
X22555218Y-13374374D01*
X22555218Y-13334374D02*
X22515218Y-13374374D01*
X22521604Y-10071604D02*
X22561604Y-10111604D01*
X22561604Y-10071604D02*
X22521604Y-10111604D01*
X22522500Y-6040000D02*
X22562500Y-6080000D01*
X22562500Y-6040000D02*
X22522500Y-6080000D01*
X22522500Y-6526213D02*
X22562500Y-6566213D01*
X22562500Y-6526213D02*
X22522500Y-6566213D01*
X22527694Y-12871503D02*
X22567694Y-12911503D01*
X22567694Y-12871503D02*
X22527694Y-12911503D01*
X22547012Y-8999482D02*
X22587012Y-9039482D01*
X22587012Y-8999482D02*
X22547012Y-9039482D01*
X22554546Y-10166023D02*
X22594546Y-10206023D01*
X22594546Y-10166023D02*
X22554546Y-10206023D01*
X22561741Y-9119728D02*
X22601741Y-9159728D01*
X22601741Y-9119728D02*
X22561741Y-9159728D01*
X22571379Y-13080452D02*
X22611379Y-13120452D01*
X22611379Y-13080452D02*
X22571379Y-13120452D01*
X22638334Y-13006174D02*
X22678334Y-13046174D01*
X22678334Y-13006174D02*
X22638334Y-13046174D01*
X22640896Y-13570896D02*
X22680896Y-13610896D01*
X22680896Y-13570896D02*
X22640896Y-13610896D01*
X22694823Y-12704376D02*
X22734823Y-12744376D01*
X22734823Y-12704376D02*
X22694823Y-12744376D01*
X22835000Y-5785000D02*
X22875000Y-5825000D01*
X22875000Y-5785000D02*
X22835000Y-5825000D01*
X22900000Y-13683396D02*
X22940000Y-13723396D01*
X22940000Y-13683396D02*
X22900000Y-13723396D01*
X22958765Y-5941235D02*
X22998765Y-5981235D01*
X22998765Y-5941235D02*
X22958765Y-5981235D01*
X22975000Y-13040000D02*
X23015000Y-13080000D01*
X23015000Y-13040000D02*
X22975000Y-13080000D01*
X23029476Y-6011946D02*
X23069476Y-6051946D01*
X23069476Y-6011946D02*
X23029476Y-6051946D01*
X23060595Y-8024435D02*
X23100595Y-8064435D01*
X23100595Y-8024435D02*
X23060595Y-8064435D01*
X23075000Y-9010000D02*
X23115000Y-9050000D01*
X23115000Y-9010000D02*
X23075000Y-9050000D01*
X23075000Y-9470000D02*
X23115000Y-9510000D01*
X23115000Y-9470000D02*
X23075000Y-9510000D01*
X23082500Y-7900000D02*
X23122500Y-7940000D01*
X23122500Y-7900000D02*
X23082500Y-7940000D01*
X23121265Y-13458735D02*
X23161265Y-13498735D01*
X23161265Y-13458735D02*
X23121265Y-13498735D01*
X23144791Y-5999161D02*
X23184791Y-6039161D01*
X23184791Y-5999161D02*
X23144791Y-6039161D01*
X23155000Y-7535000D02*
X23195000Y-7575000D01*
X23195000Y-7535000D02*
X23155000Y-7575000D01*
X23156284Y-7187427D02*
X23196284Y-7227427D01*
X23196284Y-7187427D02*
X23156284Y-7227427D01*
X23175000Y-8950000D02*
X23215000Y-8990000D01*
X23215000Y-8950000D02*
X23175000Y-8990000D01*
X23175000Y-9275000D02*
X23215000Y-9315000D01*
X23215000Y-9275000D02*
X23175000Y-9315000D01*
X23230000Y-7255000D02*
X23270000Y-7295000D01*
X23270000Y-7255000D02*
X23230000Y-7295000D01*
X23230000Y-7425000D02*
X23270000Y-7465000D01*
X23270000Y-7425000D02*
X23230000Y-7465000D01*
X23240000Y-5020000D02*
X23280000Y-5060000D01*
X23280000Y-5020000D02*
X23240000Y-5060000D01*
X23248765Y-12868765D02*
X23288765Y-12908765D01*
X23288765Y-12868765D02*
X23248765Y-12908765D01*
X23275000Y-13310000D02*
X23315000Y-13350000D01*
X23315000Y-13310000D02*
X23275000Y-13350000D01*
X23276068Y-10543932D02*
X23316068Y-10583932D01*
X23316068Y-10543932D02*
X23276068Y-10583932D01*
X23290000Y-4875000D02*
X23330000Y-4915000D01*
X23330000Y-4875000D02*
X23290000Y-4915000D01*
X23300000Y-7845000D02*
X23340000Y-7885000D01*
X23340000Y-7845000D02*
X23300000Y-7885000D01*
X23300000Y-7965000D02*
X23340000Y-8005000D01*
X23340000Y-7965000D02*
X23300000Y-8005000D01*
X23302500Y-7040000D02*
X23342500Y-7080000D01*
X23342500Y-7040000D02*
X23302500Y-7080000D01*
X23314118Y-7200924D02*
X23354118Y-7240924D01*
X23354118Y-7200924D02*
X23314118Y-7240924D01*
X23346779Y-10614643D02*
X23386779Y-10654643D01*
X23386779Y-10614643D02*
X23346779Y-10654643D01*
X23602383Y-12037409D02*
X23642383Y-12077409D01*
X23642383Y-12037409D02*
X23602383Y-12077409D01*
X23625000Y-11940000D02*
X23665000Y-11980000D01*
X23665000Y-11940000D02*
X23625000Y-11980000D01*
X23700000Y-3985000D02*
X23740000Y-4025000D01*
X23740000Y-3985000D02*
X23700000Y-4025000D01*
X23710000Y-12190000D02*
X23750000Y-12230000D01*
X23750000Y-12190000D02*
X23710000Y-12230000D01*
X23715000Y-7555000D02*
X23755000Y-7595000D01*
X23755000Y-7555000D02*
X23715000Y-7595000D01*
X23725000Y-5505000D02*
X23765000Y-5545000D01*
X23765000Y-5505000D02*
X23725000Y-5545000D01*
X23735000Y-7760000D02*
X23775000Y-7800000D01*
X23775000Y-7760000D02*
X23735000Y-7800000D01*
X23780000Y-10880000D02*
X23820000Y-10920000D01*
X23820000Y-10880000D02*
X23780000Y-10920000D01*
X23797500Y-7255000D02*
X23837500Y-7295000D01*
X23837500Y-7255000D02*
X23797500Y-7295000D01*
X23890000Y-10895000D02*
X23930000Y-10935000D01*
X23930000Y-10895000D02*
X23890000Y-10935000D01*
X23905000Y-9620000D02*
X23945000Y-9660000D01*
X23945000Y-9620000D02*
X23905000Y-9660000D01*
X23905000Y-9790000D02*
X23945000Y-9830000D01*
X23945000Y-9790000D02*
X23905000Y-9830000D01*
X23973670Y-5848299D02*
X24013670Y-5888299D01*
X24013670Y-5848299D02*
X23973670Y-5888299D01*
X24000000Y-10980000D02*
X24040000Y-11020000D01*
X24040000Y-10980000D02*
X24000000Y-11020000D01*
X24001937Y-6025094D02*
X24041937Y-6065094D01*
X24041937Y-6025094D02*
X24001937Y-6065094D01*
X24018000Y-10145000D02*
X24058000Y-10185000D01*
X24058000Y-10145000D02*
X24018000Y-10185000D01*
X24046170Y-5455000D02*
X24086170Y-5495000D01*
X24086170Y-5455000D02*
X24046170Y-5495000D01*
X24074437Y-6564437D02*
X24114437Y-6604437D01*
X24114437Y-6564437D02*
X24074437Y-6604437D01*
X24090985Y-5730985D02*
X24130985Y-5770985D01*
X24130985Y-5730985D02*
X24090985Y-5770985D01*
X24100000Y-6125000D02*
X24140000Y-6165000D01*
X24140000Y-6125000D02*
X24100000Y-6165000D01*
X24101937Y-6024945D02*
X24141937Y-6064945D01*
X24141937Y-6024945D02*
X24101937Y-6064945D01*
X24159158Y-7161087D02*
X24199158Y-7201087D01*
X24199158Y-7161087D02*
X24159158Y-7201087D01*
X24225000Y-11955000D02*
X24265000Y-11995000D01*
X24265000Y-11955000D02*
X24225000Y-11995000D01*
X24386265Y-6953735D02*
X24426265Y-6993735D01*
X24426265Y-6953735D02*
X24386265Y-6993735D01*
X24535489Y-10613020D02*
X24575489Y-10653020D01*
X24575489Y-10613020D02*
X24535489Y-10653020D01*
X24545000Y-11165000D02*
X24585000Y-11205000D01*
X24585000Y-11165000D02*
X24545000Y-11205000D01*
X24569537Y-10420000D02*
X24609537Y-10460000D01*
X24609537Y-10420000D02*
X24569537Y-10460000D01*
X24570411Y-12332085D02*
X24610411Y-12372085D01*
X24610411Y-12332085D02*
X24570411Y-12372085D01*
X24572604Y-7310000D02*
X24612604Y-7350000D01*
X24612604Y-7310000D02*
X24572604Y-7350000D01*
X24576235Y-3691235D02*
X24616235Y-3731235D01*
X24616235Y-3691235D02*
X24576235Y-3731235D01*
X24600000Y-4085000D02*
X24640000Y-4125000D01*
X24640000Y-4085000D02*
X24600000Y-4125000D01*
X24602917Y-12205000D02*
X24642917Y-12245000D01*
X24642917Y-12205000D02*
X24602917Y-12245000D01*
X24609804Y-7535000D02*
X24649804Y-7575000D01*
X24649804Y-7535000D02*
X24609804Y-7575000D01*
X24642037Y-10514507D02*
X24682037Y-10554507D01*
X24682037Y-10514507D02*
X24642037Y-10554507D01*
X24650000Y-10625000D02*
X24690000Y-10665000D01*
X24690000Y-10625000D02*
X24650000Y-10665000D01*
X24653765Y-3818765D02*
X24693765Y-3858765D01*
X24693765Y-3818765D02*
X24653765Y-3858765D01*
X24655778Y-11139355D02*
X24695778Y-11179355D01*
X24695778Y-11139355D02*
X24655778Y-11179355D01*
X24675417Y-12040000D02*
X24715417Y-12080000D01*
X24715417Y-12040000D02*
X24675417Y-12080000D01*
X24682304Y-7422500D02*
X24722304Y-7462500D01*
X24722304Y-7422500D02*
X24682304Y-7462500D01*
X24707803Y-11587803D02*
X24747803Y-11627803D01*
X24747803Y-11587803D02*
X24707803Y-11627803D01*
X24715706Y-9791321D02*
X24755706Y-9831321D01*
X24755706Y-9791321D02*
X24715706Y-9831321D01*
X24745000Y-3985000D02*
X24785000Y-4025000D01*
X24785000Y-3985000D02*
X24745000Y-4025000D01*
X24750000Y-4090000D02*
X24790000Y-4130000D01*
X24790000Y-4090000D02*
X24750000Y-4130000D01*
X24816609Y-9274079D02*
X24856609Y-9314079D01*
X24856609Y-9274079D02*
X24816609Y-9314079D01*
X24825000Y-9385000D02*
X24865000Y-9425000D01*
X24865000Y-9385000D02*
X24825000Y-9425000D01*
X24972533Y-6561003D02*
X25012533Y-6601003D01*
X25012533Y-6561003D02*
X24972533Y-6601003D01*
X25002604Y-7197604D02*
X25042604Y-7237604D01*
X25042604Y-7197604D02*
X25002604Y-7237604D01*
X25035000Y-4610000D02*
X25075000Y-4650000D01*
X25075000Y-4610000D02*
X25035000Y-4650000D01*
X25075000Y-12007500D02*
X25115000Y-12047500D01*
X25115000Y-12007500D02*
X25075000Y-12047500D01*
X25080104Y-7120104D02*
X25120104Y-7160104D01*
X25120104Y-7120104D02*
X25080104Y-7160104D01*
X25115036Y-4735994D02*
X25155036Y-4775994D01*
X25155036Y-4735994D02*
X25115036Y-4775994D01*
X25152604Y-7049393D02*
X25192604Y-7089393D01*
X25192604Y-7049393D02*
X25152604Y-7089393D01*
X25166558Y-10534170D02*
X25206558Y-10574170D01*
X25206558Y-10534170D02*
X25166558Y-10574170D01*
X25217500Y-9455000D02*
X25257500Y-9495000D01*
X25257500Y-9455000D02*
X25217500Y-9495000D01*
X25260000Y-12755000D02*
X25300000Y-12795000D01*
X25300000Y-12755000D02*
X25260000Y-12795000D01*
X25290000Y-9620000D02*
X25330000Y-9660000D01*
X25330000Y-9620000D02*
X25290000Y-9660000D01*
X25290000Y-9790000D02*
X25330000Y-9830000D01*
X25330000Y-9790000D02*
X25290000Y-9830000D01*
X25347050Y-12612950D02*
X25387050Y-12652950D01*
X25387050Y-12612950D02*
X25347050Y-12652950D01*
X25365396Y-6373396D02*
X25405396Y-6413396D01*
X25405396Y-6373396D02*
X25365396Y-6413396D01*
X25390000Y-9790000D02*
X25430000Y-9830000D01*
X25430000Y-9790000D02*
X25390000Y-9830000D01*
X25442661Y-6757547D02*
X25482661Y-6797547D01*
X25482661Y-6757547D02*
X25442661Y-6797547D01*
X25520000Y-10895000D02*
X25560000Y-10935000D01*
X25560000Y-10895000D02*
X25520000Y-10935000D01*
X25533765Y-4478765D02*
X25573765Y-4518765D01*
X25573765Y-4478765D02*
X25533765Y-4518765D01*
X25620000Y-10895000D02*
X25660000Y-10935000D01*
X25660000Y-10895000D02*
X25620000Y-10935000D01*
X25790000Y-9480000D02*
X25830000Y-9520000D01*
X25830000Y-9480000D02*
X25790000Y-9520000D01*
X25963396Y-12168396D02*
X26003396Y-12208396D01*
X26003396Y-12168396D02*
X25963396Y-12208396D01*
X25970000Y-11415000D02*
X26010000Y-11455000D01*
X26010000Y-11415000D02*
X25970000Y-11455000D01*
X25987604Y-9967604D02*
X26027604Y-10007604D01*
X26027604Y-9967604D02*
X25987604Y-10007604D01*
X25990000Y-13415000D02*
X26030000Y-13455000D01*
X26030000Y-13415000D02*
X25990000Y-13455000D01*
X26055896Y-12075896D02*
X26095896Y-12115896D01*
X26095896Y-12075896D02*
X26055896Y-12115896D01*
X26160000Y-13455000D02*
X26200000Y-13495000D01*
X26200000Y-13455000D02*
X26160000Y-13495000D01*
X26188604Y-12183604D02*
X26228604Y-12223604D01*
X26228604Y-12183604D02*
X26188604Y-12223604D01*
X26195000Y-10287500D02*
X26235000Y-10327500D01*
X26235000Y-10287500D02*
X26195000Y-10327500D01*
X26207500Y-7030000D02*
X26247500Y-7070000D01*
X26247500Y-7030000D02*
X26207500Y-7070000D01*
X26296265Y-12188735D02*
X26336265Y-12228735D01*
X26336265Y-12188735D02*
X26296265Y-12228735D01*
X26512500Y-10558735D02*
X26552500Y-10598735D01*
X26552500Y-10558735D02*
X26512500Y-10598735D01*
X19103500Y-5720000D02*
G75*
G03*
X19103500Y-5720000I-37500J0D01*
G01*
X19230500Y-5720000D02*
G75*
G03*
X19230500Y-5720000I-37500J0D01*
G01*
X19357500Y-5720000D02*
G75*
G03*
X19357500Y-5720000I-37500J0D01*
G01*
X24098500Y-9240000D02*
G75*
G03*
X24098500Y-9240000I-37500J0D01*
G01*
X24225500Y-9240000D02*
G75*
G03*
X24225500Y-9240000I-37500J0D01*
G01*
X24352500Y-9240000D02*
G75*
G03*
X24352500Y-9240000I-37500J0D01*
G01*
X26123500Y-10520000D02*
G75*
G03*
X26123500Y-10520000I-37500J0D01*
G01*
X26250500Y-10520000D02*
G75*
G03*
X26250500Y-10520000I-37500J0D01*
G01*
X26377500Y-10520000D02*
G75*
G03*
X26377500Y-10520000I-37500J0D01*
G01*
X25147500Y-5165000D02*
G75*
G03*
X25147500Y-5165000I-37500J0D01*
G01*
X25274500Y-5165000D02*
G75*
G03*
X25274500Y-5165000I-37500J0D01*
G01*
X25401500Y-5165000D02*
G75*
G03*
X25401500Y-5165000I-37500J0D01*
G01*
X20213500Y-12660000D02*
G75*
G03*
X20213500Y-12660000I-37500J0D01*
G01*
X20340500Y-12660000D02*
G75*
G03*
X20340500Y-12660000I-37500J0D01*
G01*
X20467500Y-12660000D02*
G75*
G03*
X20467500Y-12660000I-37500J0D01*
G01*
X21628500Y-13125000D02*
G75*
G03*
X21628500Y-13125000I-37500J0D01*
G01*
X21755500Y-13125000D02*
G75*
G03*
X21755500Y-13125000I-37500J0D01*
G01*
X21882500Y-13125000D02*
G75*
G03*
X21882500Y-13125000I-37500J0D01*
G01*
X21578500Y-13745000D02*
G75*
G03*
X21578500Y-13745000I-37500J0D01*
G01*
X21705500Y-13745000D02*
G75*
G03*
X21705500Y-13745000I-37500J0D01*
G01*
X21832500Y-13745000D02*
G75*
G03*
X21832500Y-13745000I-37500J0D01*
G01*
X25155000Y-8940000D02*
X25155000Y-9020000D01*
X25115000Y-8980000D02*
X25195000Y-8980000D01*
X25917000Y-8940000D02*
X25917000Y-9020000D01*
X25877000Y-8980000D02*
X25957000Y-8980000D01*
X19768000Y-8650000D02*
X19768000Y-8730000D01*
X19728000Y-8690000D02*
X19808000Y-8690000D01*
X20530000Y-8650000D02*
X20530000Y-8730000D01*
X20490000Y-8690000D02*
X20570000Y-8690000D01*
X19868000Y-9480000D02*
X19868000Y-9560000D01*
X19828000Y-9520000D02*
X19908000Y-9520000D01*
X20630000Y-9480000D02*
X20630000Y-9560000D01*
X20590000Y-9520000D02*
X20670000Y-9520000D01*
X17900000Y-13255000D02*
X17900000Y-13335000D01*
X17860000Y-13295000D02*
X17940000Y-13295000D01*
X17900000Y-14017000D02*
X17900000Y-14097000D01*
X17860000Y-14057000D02*
X17940000Y-14057000D01*
X22730000Y-4815000D02*
X22730000Y-4895000D01*
X22690000Y-4855000D02*
X22770000Y-4855000D01*
X23492000Y-4815000D02*
X23492000Y-4895000D01*
X23452000Y-4855000D02*
X23532000Y-4855000D01*
X19148000Y-11545000D02*
X19148000Y-11625000D01*
X19108000Y-11585000D02*
X19188000Y-11585000D01*
X19910000Y-11545000D02*
X19910000Y-11625000D01*
X19870000Y-11585000D02*
X19950000Y-11585000D01*
X19878000Y-7300000D02*
X19878000Y-7380000D01*
X19838000Y-7340000D02*
X19918000Y-7340000D01*
X20640000Y-7300000D02*
X20640000Y-7380000D01*
X20600000Y-7340000D02*
X20680000Y-7340000D01*
X18170000Y-8350000D02*
X18170000Y-8430000D01*
X18130000Y-8390000D02*
X18210000Y-8390000D01*
X18170000Y-8604000D02*
X18170000Y-8684000D01*
X18130000Y-8644000D02*
X18210000Y-8644000D01*
X18170000Y-8858000D02*
X18170000Y-8938000D01*
X18130000Y-8898000D02*
X18210000Y-8898000D01*
X18170000Y-9112000D02*
X18170000Y-9192000D01*
X18130000Y-9152000D02*
X18210000Y-9152000D01*
X18170000Y-9366000D02*
X18170000Y-9446000D01*
X18130000Y-9406000D02*
X18210000Y-9406000D01*
X18170000Y-9620000D02*
X18170000Y-9700000D01*
X18130000Y-9660000D02*
X18210000Y-9660000D01*
X18170000Y-9874000D02*
X18170000Y-9954000D01*
X18130000Y-9914000D02*
X18210000Y-9914000D01*
X18932000Y-8350000D02*
X18932000Y-8430000D01*
X18892000Y-8390000D02*
X18972000Y-8390000D01*
X18932000Y-8604000D02*
X18932000Y-8684000D01*
X18892000Y-8644000D02*
X18972000Y-8644000D01*
X18932000Y-8858000D02*
X18932000Y-8938000D01*
X18892000Y-8898000D02*
X18972000Y-8898000D01*
X18932000Y-9112000D02*
X18932000Y-9192000D01*
X18892000Y-9152000D02*
X18972000Y-9152000D01*
X18932000Y-9366000D02*
X18932000Y-9446000D01*
X18892000Y-9406000D02*
X18972000Y-9406000D01*
X18932000Y-9620000D02*
X18932000Y-9700000D01*
X18892000Y-9660000D02*
X18972000Y-9660000D01*
X18932000Y-9874000D02*
X18932000Y-9954000D01*
X18892000Y-9914000D02*
X18972000Y-9914000D01*
X25058000Y-10015000D02*
X25058000Y-10095000D01*
X25018000Y-10055000D02*
X25098000Y-10055000D01*
X25820000Y-10015000D02*
X25820000Y-10095000D01*
X25780000Y-10055000D02*
X25860000Y-10055000D01*
X9642500Y-5552500D02*
X9642500Y-5632500D01*
X9602500Y-5592500D02*
X9682500Y-5592500D01*
X10404500Y-5552500D02*
X10404500Y-5632500D01*
X10364500Y-5592500D02*
X10444500Y-5592500D01*
X19153000Y-14085000D02*
X19153000Y-14165000D01*
X19113000Y-14125000D02*
X19193000Y-14125000D01*
X19915000Y-14085000D02*
X19915000Y-14165000D01*
X19875000Y-14125000D02*
X19955000Y-14125000D01*
X17175500Y-10490000D02*
X17175500Y-10570000D01*
X17135500Y-10530000D02*
X17215500Y-10530000D01*
X17937500Y-10490000D02*
X17937500Y-10570000D01*
X17897500Y-10530000D02*
X17977500Y-10530000D01*
X21108000Y-9880000D02*
X21108000Y-9960000D01*
X21068000Y-9920000D02*
X21148000Y-9920000D01*
X21870000Y-9880000D02*
X21870000Y-9960000D01*
X21830000Y-9920000D02*
X21910000Y-9920000D01*
X20838000Y-8975000D02*
X20838000Y-9055000D01*
X20798000Y-9015000D02*
X20878000Y-9015000D01*
X21600000Y-8975000D02*
X21600000Y-9055000D01*
X21560000Y-9015000D02*
X21640000Y-9015000D01*
X18700000Y-5988000D02*
X18700000Y-6068000D01*
X18660000Y-6028000D02*
X18740000Y-6028000D01*
X18700000Y-6750000D02*
X18700000Y-6830000D01*
X18660000Y-6790000D02*
X18740000Y-6790000D01*
X17230000Y-5920000D02*
X17230000Y-6000000D01*
X17190000Y-5960000D02*
X17270000Y-5960000D01*
X17230000Y-6174000D02*
X17230000Y-6254000D01*
X17190000Y-6214000D02*
X17270000Y-6214000D01*
X17230000Y-6428000D02*
X17230000Y-6508000D01*
X17190000Y-6468000D02*
X17270000Y-6468000D01*
X17230000Y-6682000D02*
X17230000Y-6762000D01*
X17190000Y-6722000D02*
X17270000Y-6722000D01*
X17992000Y-5920000D02*
X17992000Y-6000000D01*
X17952000Y-5960000D02*
X18032000Y-5960000D01*
X17992000Y-6174000D02*
X17992000Y-6254000D01*
X17952000Y-6214000D02*
X18032000Y-6214000D01*
X17992000Y-6428000D02*
X17992000Y-6508000D01*
X17952000Y-6468000D02*
X18032000Y-6468000D01*
X17992000Y-6682000D02*
X17992000Y-6762000D01*
X17952000Y-6722000D02*
X18032000Y-6722000D01*
X24078000Y-10560000D02*
X24078000Y-10640000D01*
X24038000Y-10600000D02*
X24118000Y-10600000D01*
X24840000Y-10560000D02*
X24840000Y-10640000D01*
X24800000Y-10600000D02*
X24880000Y-10600000D01*
X24083000Y-12060000D02*
X24083000Y-12140000D01*
X24043000Y-12100000D02*
X24123000Y-12100000D01*
X24845000Y-12060000D02*
X24845000Y-12140000D01*
X24805000Y-12100000D02*
X24885000Y-12100000D01*
X23868000Y-5285000D02*
X23868000Y-5365000D01*
X23828000Y-5325000D02*
X23908000Y-5325000D01*
X24630000Y-5285000D02*
X24630000Y-5365000D01*
X24590000Y-5325000D02*
X24670000Y-5325000D01*
X22775000Y-3490000D02*
X22775000Y-3570000D01*
X22735000Y-3530000D02*
X22815000Y-3530000D01*
X22775000Y-4252000D02*
X22775000Y-4332000D01*
X22735000Y-4292000D02*
X22815000Y-4292000D01*
X22160000Y-8540000D02*
X22160000Y-8620000D01*
X22120000Y-8580000D02*
X22200000Y-8580000D01*
X22160000Y-9302000D02*
X22160000Y-9382000D01*
X22120000Y-9342000D02*
X22200000Y-9342000D01*
X24880000Y-3490000D02*
X24880000Y-3570000D01*
X24840000Y-3530000D02*
X24920000Y-3530000D01*
X24880000Y-4252000D02*
X24880000Y-4332000D01*
X24840000Y-4292000D02*
X24920000Y-4292000D01*
X20848000Y-9480000D02*
X20848000Y-9560000D01*
X20808000Y-9520000D02*
X20888000Y-9520000D01*
X21610000Y-9480000D02*
X21610000Y-9560000D01*
X21570000Y-9520000D02*
X21650000Y-9520000D01*
X24083000Y-12370000D02*
X24083000Y-12450000D01*
X24043000Y-12410000D02*
X24123000Y-12410000D01*
X24845000Y-12370000D02*
X24845000Y-12450000D01*
X24805000Y-12410000D02*
X24885000Y-12410000D01*
X26385000Y-3488000D02*
X26385000Y-3568000D01*
X26345000Y-3528000D02*
X26425000Y-3528000D01*
X26385000Y-4250000D02*
X26385000Y-4330000D01*
X26345000Y-4290000D02*
X26425000Y-4290000D01*
X21110000Y-10180000D02*
X21110000Y-10260000D01*
X21070000Y-10220000D02*
X21150000Y-10220000D01*
X21872000Y-10180000D02*
X21872000Y-10260000D01*
X21832000Y-10220000D02*
X21912000Y-10220000D01*
X19620000Y-5540000D02*
X19620000Y-5620000D01*
X19580000Y-5580000D02*
X19660000Y-5580000D01*
X19620000Y-6040000D02*
X19620000Y-6120000D01*
X19580000Y-6080000D02*
X19660000Y-6080000D01*
X19150000Y-11850000D02*
X19150000Y-11930000D01*
X19110000Y-11890000D02*
X19190000Y-11890000D01*
X19912000Y-11850000D02*
X19912000Y-11930000D01*
X19872000Y-11890000D02*
X19952000Y-11890000D01*
X24280000Y-3488000D02*
X24280000Y-3568000D01*
X24240000Y-3528000D02*
X24320000Y-3528000D01*
X24280000Y-4250000D02*
X24280000Y-4330000D01*
X24240000Y-4290000D02*
X24320000Y-4290000D01*
X19150000Y-9570000D02*
X19150000Y-9650000D01*
X19110000Y-9610000D02*
X19190000Y-9610000D01*
X19650000Y-9570000D02*
X19650000Y-9650000D01*
X19610000Y-9610000D02*
X19690000Y-9610000D01*
X24075000Y-9975000D02*
X24075000Y-10055000D01*
X24035000Y-10015000D02*
X24115000Y-10015000D01*
X24837000Y-9975000D02*
X24837000Y-10055000D01*
X24797000Y-10015000D02*
X24877000Y-10015000D01*
X23710000Y-4510000D02*
X23710000Y-4590000D01*
X23670000Y-4550000D02*
X23750000Y-4550000D01*
X24210000Y-4510000D02*
X24210000Y-4590000D01*
X24170000Y-4550000D02*
X24250000Y-4550000D01*
X18420000Y-5990000D02*
X18420000Y-6070000D01*
X18380000Y-6030000D02*
X18460000Y-6030000D01*
X18420000Y-6752000D02*
X18420000Y-6832000D01*
X18380000Y-6792000D02*
X18460000Y-6792000D01*
X10648000Y-5550000D02*
X10648000Y-5630000D01*
X10608000Y-5590000D02*
X10688000Y-5590000D01*
X11410000Y-5550000D02*
X11410000Y-5630000D01*
X11370000Y-5590000D02*
X11450000Y-5590000D01*
X11658000Y-5837500D02*
X11658000Y-5917500D01*
X11618000Y-5877500D02*
X11698000Y-5877500D01*
X12420000Y-5837500D02*
X12420000Y-5917500D01*
X12380000Y-5877500D02*
X12460000Y-5877500D01*
X26390000Y-11100000D02*
X26390000Y-11180000D01*
X26350000Y-11140000D02*
X26430000Y-11140000D01*
X26390000Y-11862000D02*
X26390000Y-11942000D01*
X26350000Y-11902000D02*
X26430000Y-11902000D01*
X20140000Y-5610000D02*
X20140000Y-5690000D01*
X20100000Y-5650000D02*
X20180000Y-5650000D01*
X20640000Y-5610000D02*
X20640000Y-5690000D01*
X20600000Y-5650000D02*
X20680000Y-5650000D01*
X20910000Y-6220000D02*
X20910000Y-6300000D01*
X20870000Y-6260000D02*
X20950000Y-6260000D01*
X20910000Y-6720000D02*
X20910000Y-6800000D01*
X20870000Y-6760000D02*
X20950000Y-6760000D01*
X17185500Y-9530000D02*
X17185500Y-9610000D01*
X17145500Y-9570000D02*
X17225500Y-9570000D01*
X17947500Y-9530000D02*
X17947500Y-9610000D01*
X17907500Y-9570000D02*
X17987500Y-9570000D01*
X21110000Y-10480000D02*
X21110000Y-10560000D01*
X21070000Y-10520000D02*
X21150000Y-10520000D01*
X21872000Y-10480000D02*
X21872000Y-10560000D01*
X21832000Y-10520000D02*
X21912000Y-10520000D01*
X16970000Y-6378000D02*
X16970000Y-6458000D01*
X16930000Y-6418000D02*
X17010000Y-6418000D01*
X16970000Y-7140000D02*
X16970000Y-7220000D01*
X16930000Y-7180000D02*
X17010000Y-7180000D01*
X17230000Y-6990000D02*
X17230000Y-7070000D01*
X17190000Y-7030000D02*
X17270000Y-7030000D01*
X17730000Y-6990000D02*
X17730000Y-7070000D01*
X17690000Y-7030000D02*
X17770000Y-7030000D01*
X17490000Y-5610000D02*
X17490000Y-5690000D01*
X17450000Y-5650000D02*
X17530000Y-5650000D01*
X17990000Y-5610000D02*
X17990000Y-5690000D01*
X17950000Y-5650000D02*
X18030000Y-5650000D01*
X17188000Y-12715000D02*
X17188000Y-12795000D01*
X17148000Y-12755000D02*
X17228000Y-12755000D01*
X17950000Y-12715000D02*
X17950000Y-12795000D01*
X17910000Y-12755000D02*
X17990000Y-12755000D01*
X23750000Y-9815000D02*
X23750000Y-9895000D01*
X23710000Y-9855000D02*
X23790000Y-9855000D01*
X23750000Y-10577000D02*
X23750000Y-10657000D01*
X23710000Y-10617000D02*
X23790000Y-10617000D01*
X22111000Y-11382000D02*
X22111000Y-11462000D01*
X22071000Y-11422000D02*
X22151000Y-11422000D01*
X22111000Y-11636000D02*
X22111000Y-11716000D01*
X22071000Y-11676000D02*
X22151000Y-11676000D01*
X22111000Y-11890000D02*
X22111000Y-11970000D01*
X22071000Y-11930000D02*
X22151000Y-11930000D01*
X22111000Y-12144000D02*
X22111000Y-12224000D01*
X22071000Y-12184000D02*
X22151000Y-12184000D01*
X22111000Y-12398000D02*
X22111000Y-12478000D01*
X22071000Y-12438000D02*
X22151000Y-12438000D01*
X22111000Y-12652000D02*
X22111000Y-12732000D01*
X22071000Y-12692000D02*
X22151000Y-12692000D01*
X22111000Y-12906000D02*
X22111000Y-12986000D01*
X22071000Y-12946000D02*
X22151000Y-12946000D01*
X22111000Y-13160000D02*
X22111000Y-13240000D01*
X22071000Y-13200000D02*
X22151000Y-13200000D01*
X22873000Y-11382000D02*
X22873000Y-11462000D01*
X22833000Y-11422000D02*
X22913000Y-11422000D01*
X22873000Y-11636000D02*
X22873000Y-11716000D01*
X22833000Y-11676000D02*
X22913000Y-11676000D01*
X22873000Y-11890000D02*
X22873000Y-11970000D01*
X22833000Y-11930000D02*
X22913000Y-11930000D01*
X22873000Y-12144000D02*
X22873000Y-12224000D01*
X22833000Y-12184000D02*
X22913000Y-12184000D01*
X22873000Y-12398000D02*
X22873000Y-12478000D01*
X22833000Y-12438000D02*
X22913000Y-12438000D01*
X22873000Y-12652000D02*
X22873000Y-12732000D01*
X22833000Y-12692000D02*
X22913000Y-12692000D01*
X22873000Y-12906000D02*
X22873000Y-12986000D01*
X22833000Y-12946000D02*
X22913000Y-12946000D01*
X22873000Y-13160000D02*
X22873000Y-13240000D01*
X22833000Y-13200000D02*
X22913000Y-13200000D01*
X23980000Y-3490000D02*
X23980000Y-3570000D01*
X23940000Y-3530000D02*
X24020000Y-3530000D01*
X23980000Y-4252000D02*
X23980000Y-4332000D01*
X23940000Y-4292000D02*
X24020000Y-4292000D01*
X23440000Y-12988000D02*
X23440000Y-13068000D01*
X23400000Y-13028000D02*
X23480000Y-13028000D01*
X23440000Y-13750000D02*
X23440000Y-13830000D01*
X23400000Y-13790000D02*
X23480000Y-13790000D01*
X13282500Y-5837500D02*
X13282500Y-5917500D01*
X13242500Y-5877500D02*
X13322500Y-5877500D01*
X13532500Y-5837500D02*
X13532500Y-5917500D01*
X13492500Y-5877500D02*
X13572500Y-5877500D01*
X22155000Y-9825000D02*
X22155000Y-9905000D01*
X22115000Y-9865000D02*
X22195000Y-9865000D01*
X22155000Y-10587000D02*
X22155000Y-10667000D01*
X22115000Y-10627000D02*
X22195000Y-10627000D01*
X21110000Y-10815000D02*
X21110000Y-10895000D01*
X21070000Y-10855000D02*
X21150000Y-10855000D01*
X21872000Y-10815000D02*
X21872000Y-10895000D01*
X21832000Y-10855000D02*
X21912000Y-10855000D01*
X24078000Y-11445000D02*
X24078000Y-11525000D01*
X24038000Y-11485000D02*
X24118000Y-11485000D01*
X24840000Y-11445000D02*
X24840000Y-11525000D01*
X24800000Y-11485000D02*
X24880000Y-11485000D01*
X21855000Y-7950000D02*
X21855000Y-8030000D01*
X21815000Y-7990000D02*
X21895000Y-7990000D01*
X22617000Y-7950000D02*
X22617000Y-8030000D01*
X22577000Y-7990000D02*
X22657000Y-7990000D01*
X13820500Y-5967500D02*
X13820500Y-6047500D01*
X13780500Y-6007500D02*
X13860500Y-6007500D01*
X14582500Y-5967500D02*
X14582500Y-6047500D01*
X14542500Y-6007500D02*
X14622500Y-6007500D01*
X20840000Y-9230000D02*
X20840000Y-9310000D01*
X20800000Y-9270000D02*
X20880000Y-9270000D01*
X21602000Y-9230000D02*
X21602000Y-9310000D01*
X21562000Y-9270000D02*
X21642000Y-9270000D01*
X24078000Y-11145000D02*
X24078000Y-11225000D01*
X24038000Y-11185000D02*
X24118000Y-11185000D01*
X24840000Y-11145000D02*
X24840000Y-11225000D01*
X24800000Y-11185000D02*
X24880000Y-11185000D01*
X24078000Y-10280000D02*
X24078000Y-10360000D01*
X24038000Y-10320000D02*
X24118000Y-10320000D01*
X24840000Y-10280000D02*
X24840000Y-10360000D01*
X24800000Y-10320000D02*
X24880000Y-10320000D01*
X22860000Y-8490000D02*
X22860000Y-8570000D01*
X22820000Y-8530000D02*
X22900000Y-8530000D01*
X23360000Y-8490000D02*
X23360000Y-8570000D01*
X23320000Y-8530000D02*
X23400000Y-8530000D01*
X20858000Y-7590000D02*
X20858000Y-7670000D01*
X20818000Y-7630000D02*
X20898000Y-7630000D01*
X21620000Y-7590000D02*
X21620000Y-7670000D01*
X21580000Y-7630000D02*
X21660000Y-7630000D01*
X23095000Y-11445000D02*
X23095000Y-11525000D01*
X23055000Y-11485000D02*
X23135000Y-11485000D01*
X23857000Y-11445000D02*
X23857000Y-11525000D01*
X23817000Y-11485000D02*
X23897000Y-11485000D01*
X24850000Y-5485000D02*
X24850000Y-5565000D01*
X24810000Y-5525000D02*
X24890000Y-5525000D01*
X24850000Y-5739000D02*
X24850000Y-5819000D01*
X24810000Y-5779000D02*
X24890000Y-5779000D01*
X24850000Y-5993000D02*
X24850000Y-6073000D01*
X24810000Y-6033000D02*
X24890000Y-6033000D01*
X24850000Y-6247000D02*
X24850000Y-6327000D01*
X24810000Y-6287000D02*
X24890000Y-6287000D01*
X24850000Y-6501000D02*
X24850000Y-6581000D01*
X24810000Y-6541000D02*
X24890000Y-6541000D01*
X24850000Y-6755000D02*
X24850000Y-6835000D01*
X24810000Y-6795000D02*
X24890000Y-6795000D01*
X24850000Y-7009000D02*
X24850000Y-7089000D01*
X24810000Y-7049000D02*
X24890000Y-7049000D01*
X25612000Y-5485000D02*
X25612000Y-5565000D01*
X25572000Y-5525000D02*
X25652000Y-5525000D01*
X25612000Y-5739000D02*
X25612000Y-5819000D01*
X25572000Y-5779000D02*
X25652000Y-5779000D01*
X25612000Y-5993000D02*
X25612000Y-6073000D01*
X25572000Y-6033000D02*
X25652000Y-6033000D01*
X25612000Y-6247000D02*
X25612000Y-6327000D01*
X25572000Y-6287000D02*
X25652000Y-6287000D01*
X25612000Y-6501000D02*
X25612000Y-6581000D01*
X25572000Y-6541000D02*
X25652000Y-6541000D01*
X25612000Y-6755000D02*
X25612000Y-6835000D01*
X25572000Y-6795000D02*
X25652000Y-6795000D01*
X25612000Y-7009000D02*
X25612000Y-7089000D01*
X25572000Y-7049000D02*
X25652000Y-7049000D01*
X18168000Y-8040000D02*
X18168000Y-8120000D01*
X18128000Y-8080000D02*
X18208000Y-8080000D01*
X18930000Y-8040000D02*
X18930000Y-8120000D01*
X18890000Y-8080000D02*
X18970000Y-8080000D01*
X7665500Y-5547500D02*
X7665500Y-5627500D01*
X7625500Y-5587500D02*
X7705500Y-5587500D01*
X8427500Y-5547500D02*
X8427500Y-5627500D01*
X8387500Y-5587500D02*
X8467500Y-5587500D01*
X26085000Y-11103000D02*
X26085000Y-11183000D01*
X26045000Y-11143000D02*
X26125000Y-11143000D01*
X26085000Y-11865000D02*
X26085000Y-11945000D01*
X26045000Y-11905000D02*
X26125000Y-11905000D01*
X21110000Y-11725000D02*
X21110000Y-11805000D01*
X21070000Y-11765000D02*
X21150000Y-11765000D01*
X21872000Y-11725000D02*
X21872000Y-11805000D01*
X21832000Y-11765000D02*
X21912000Y-11765000D01*
X17168000Y-7400000D02*
X17168000Y-7480000D01*
X17128000Y-7440000D02*
X17208000Y-7440000D01*
X17930000Y-7400000D02*
X17930000Y-7480000D01*
X17890000Y-7440000D02*
X17970000Y-7440000D01*
X23740000Y-12988000D02*
X23740000Y-13068000D01*
X23700000Y-13028000D02*
X23780000Y-13028000D01*
X23740000Y-13750000D02*
X23740000Y-13830000D01*
X23700000Y-13790000D02*
X23780000Y-13790000D01*
X21110000Y-11425000D02*
X21110000Y-11505000D01*
X21070000Y-11465000D02*
X21150000Y-11465000D01*
X21872000Y-11425000D02*
X21872000Y-11505000D01*
X21832000Y-11465000D02*
X21912000Y-11465000D01*
X24350000Y-12990000D02*
X24350000Y-13070000D01*
X24310000Y-13030000D02*
X24390000Y-13030000D01*
X24350000Y-13752000D02*
X24350000Y-13832000D01*
X24310000Y-13792000D02*
X24390000Y-13792000D01*
X19200000Y-8300000D02*
X19200000Y-8380000D01*
X19160000Y-8340000D02*
X19240000Y-8340000D01*
X19200000Y-8800000D02*
X19200000Y-8880000D01*
X19160000Y-8840000D02*
X19240000Y-8840000D01*
X21438000Y-5245000D02*
X21438000Y-5325000D01*
X21398000Y-5285000D02*
X21478000Y-5285000D01*
X22200000Y-5245000D02*
X22200000Y-5325000D01*
X22160000Y-5285000D02*
X22240000Y-5285000D01*
X11655500Y-5545000D02*
X11655500Y-5625000D01*
X11615500Y-5585000D02*
X11695500Y-5585000D01*
X12417500Y-5545000D02*
X12417500Y-5625000D01*
X12377500Y-5585000D02*
X12457500Y-5585000D01*
X25063000Y-10326000D02*
X25063000Y-10406000D01*
X25023000Y-10366000D02*
X25103000Y-10366000D01*
X25063000Y-10580000D02*
X25063000Y-10660000D01*
X25023000Y-10620000D02*
X25103000Y-10620000D01*
X25063000Y-10834000D02*
X25063000Y-10914000D01*
X25023000Y-10874000D02*
X25103000Y-10874000D01*
X25063000Y-11088000D02*
X25063000Y-11168000D01*
X25023000Y-11128000D02*
X25103000Y-11128000D01*
X25063000Y-11342000D02*
X25063000Y-11422000D01*
X25023000Y-11382000D02*
X25103000Y-11382000D01*
X25063000Y-11596000D02*
X25063000Y-11676000D01*
X25023000Y-11636000D02*
X25103000Y-11636000D01*
X25063000Y-11850000D02*
X25063000Y-11930000D01*
X25023000Y-11890000D02*
X25103000Y-11890000D01*
X25825000Y-10326000D02*
X25825000Y-10406000D01*
X25785000Y-10366000D02*
X25865000Y-10366000D01*
X25825000Y-10580000D02*
X25825000Y-10660000D01*
X25785000Y-10620000D02*
X25865000Y-10620000D01*
X25825000Y-10834000D02*
X25825000Y-10914000D01*
X25785000Y-10874000D02*
X25865000Y-10874000D01*
X25825000Y-11088000D02*
X25825000Y-11168000D01*
X25785000Y-11128000D02*
X25865000Y-11128000D01*
X25825000Y-11342000D02*
X25825000Y-11422000D01*
X25785000Y-11382000D02*
X25865000Y-11382000D01*
X25825000Y-11596000D02*
X25825000Y-11676000D01*
X25785000Y-11636000D02*
X25865000Y-11636000D01*
X25825000Y-11850000D02*
X25825000Y-11930000D01*
X25785000Y-11890000D02*
X25865000Y-11890000D01*
X25875000Y-5743000D02*
X25875000Y-5823000D01*
X25835000Y-5783000D02*
X25915000Y-5783000D01*
X25875000Y-6505000D02*
X25875000Y-6585000D01*
X25835000Y-6545000D02*
X25915000Y-6545000D01*
X25780000Y-3490000D02*
X25780000Y-3570000D01*
X25740000Y-3530000D02*
X25820000Y-3530000D01*
X25780000Y-4252000D02*
X25780000Y-4332000D01*
X25740000Y-4292000D02*
X25820000Y-4292000D01*
X17450000Y-12995000D02*
X17450000Y-13075000D01*
X17410000Y-13035000D02*
X17490000Y-13035000D01*
X17950000Y-12995000D02*
X17950000Y-13075000D01*
X17910000Y-13035000D02*
X17990000Y-13035000D01*
X23710000Y-9560000D02*
X23710000Y-9640000D01*
X23670000Y-9600000D02*
X23750000Y-9600000D01*
X24210000Y-9560000D02*
X24210000Y-9640000D01*
X24170000Y-9600000D02*
X24250000Y-9600000D01*
X22465000Y-8540000D02*
X22465000Y-8620000D01*
X22425000Y-8580000D02*
X22505000Y-8580000D01*
X22465000Y-9302000D02*
X22465000Y-9382000D01*
X22425000Y-9342000D02*
X22505000Y-9342000D01*
X25153000Y-9555000D02*
X25153000Y-9635000D01*
X25113000Y-9595000D02*
X25193000Y-9595000D01*
X25915000Y-9555000D02*
X25915000Y-9635000D01*
X25875000Y-9595000D02*
X25955000Y-9595000D01*
X25180000Y-3490000D02*
X25180000Y-3570000D01*
X25140000Y-3530000D02*
X25220000Y-3530000D01*
X25180000Y-4252000D02*
X25180000Y-4332000D01*
X25140000Y-4292000D02*
X25220000Y-4292000D01*
X19150000Y-9260000D02*
X19150000Y-9340000D01*
X19110000Y-9300000D02*
X19190000Y-9300000D01*
X19650000Y-9260000D02*
X19650000Y-9340000D01*
X19610000Y-9300000D02*
X19690000Y-9300000D01*
X8652500Y-5550000D02*
X8652500Y-5630000D01*
X8612500Y-5590000D02*
X8692500Y-5590000D01*
X9414500Y-5550000D02*
X9414500Y-5630000D01*
X9374500Y-5590000D02*
X9454500Y-5590000D01*
X12700000Y-5842500D02*
X12700000Y-5922500D01*
X12660000Y-5882500D02*
X12740000Y-5882500D01*
X12950000Y-5842500D02*
X12950000Y-5922500D01*
X12910000Y-5882500D02*
X12990000Y-5882500D01*
X19410000Y-11240000D02*
X19410000Y-11320000D01*
X19370000Y-11280000D02*
X19450000Y-11280000D01*
X19910000Y-11240000D02*
X19910000Y-11320000D01*
X19870000Y-11280000D02*
X19950000Y-11280000D01*
X21855000Y-6680000D02*
X21855000Y-6760000D01*
X21815000Y-6720000D02*
X21895000Y-6720000D01*
X22617000Y-6680000D02*
X22617000Y-6760000D01*
X22577000Y-6720000D02*
X22657000Y-6720000D01*
X19145000Y-10935000D02*
X19145000Y-11015000D01*
X19105000Y-10975000D02*
X19185000Y-10975000D01*
X19645000Y-10935000D02*
X19645000Y-11015000D01*
X19605000Y-10975000D02*
X19685000Y-10975000D01*
X19880000Y-5920000D02*
X19880000Y-6000000D01*
X19840000Y-5960000D02*
X19920000Y-5960000D01*
X19880000Y-6174000D02*
X19880000Y-6254000D01*
X19840000Y-6214000D02*
X19920000Y-6214000D01*
X19880000Y-6428000D02*
X19880000Y-6508000D01*
X19840000Y-6468000D02*
X19920000Y-6468000D01*
X19880000Y-6682000D02*
X19880000Y-6762000D01*
X19840000Y-6722000D02*
X19920000Y-6722000D01*
X20642000Y-5920000D02*
X20642000Y-6000000D01*
X20602000Y-5960000D02*
X20682000Y-5960000D01*
X20642000Y-6174000D02*
X20642000Y-6254000D01*
X20602000Y-6214000D02*
X20682000Y-6214000D01*
X20642000Y-6428000D02*
X20642000Y-6508000D01*
X20602000Y-6468000D02*
X20682000Y-6468000D01*
X20642000Y-6682000D02*
X20642000Y-6762000D01*
X20602000Y-6722000D02*
X20682000Y-6722000D01*
X23868000Y-5585000D02*
X23868000Y-5665000D01*
X23828000Y-5625000D02*
X23908000Y-5625000D01*
X24630000Y-5585000D02*
X24630000Y-5665000D01*
X24590000Y-5625000D02*
X24670000Y-5625000D01*
X19310000Y-6970000D02*
X19310000Y-7050000D01*
X19270000Y-7010000D02*
X19350000Y-7010000D01*
X19310000Y-7732000D02*
X19310000Y-7812000D01*
X19270000Y-7772000D02*
X19350000Y-7772000D01*
X23880000Y-12730000D02*
X23880000Y-12810000D01*
X23840000Y-12770000D02*
X23920000Y-12770000D01*
X24642000Y-12730000D02*
X24642000Y-12810000D01*
X24602000Y-12770000D02*
X24682000Y-12770000D01*
X20133000Y-12195000D02*
X20133000Y-12275000D01*
X20093000Y-12235000D02*
X20173000Y-12235000D01*
X20895000Y-12195000D02*
X20895000Y-12275000D01*
X20855000Y-12235000D02*
X20935000Y-12235000D01*
X23868000Y-6425000D02*
X23868000Y-6505000D01*
X23828000Y-6465000D02*
X23908000Y-6465000D01*
X24630000Y-6425000D02*
X24630000Y-6505000D01*
X24590000Y-6465000D02*
X24670000Y-6465000D01*
X19148000Y-10630000D02*
X19148000Y-10710000D01*
X19108000Y-10670000D02*
X19188000Y-10670000D01*
X19910000Y-10630000D02*
X19910000Y-10710000D01*
X19870000Y-10670000D02*
X19950000Y-10670000D01*
X13597500Y-3727500D02*
X13597500Y-3807500D01*
X13557500Y-3767500D02*
X13637500Y-3767500D01*
X14359500Y-3727500D02*
X14359500Y-3807500D01*
X14319500Y-3767500D02*
X14399500Y-3767500D01*
X17513000Y-5242000D02*
X17513000Y-5322000D01*
X17473000Y-5282000D02*
X17553000Y-5282000D01*
X18275000Y-5242000D02*
X18275000Y-5322000D01*
X18235000Y-5282000D02*
X18315000Y-5282000D01*
X22852000Y-6175000D02*
X22852000Y-6255000D01*
X22812000Y-6215000D02*
X22892000Y-6215000D01*
X22852000Y-6429000D02*
X22852000Y-6509000D01*
X22812000Y-6469000D02*
X22892000Y-6469000D01*
X22852000Y-6683000D02*
X22852000Y-6763000D01*
X22812000Y-6723000D02*
X22892000Y-6723000D01*
X22852000Y-6937000D02*
X22852000Y-7017000D01*
X22812000Y-6977000D02*
X22892000Y-6977000D01*
X22852000Y-7191000D02*
X22852000Y-7271000D01*
X22812000Y-7231000D02*
X22892000Y-7231000D01*
X22852000Y-7445000D02*
X22852000Y-7525000D01*
X22812000Y-7485000D02*
X22892000Y-7485000D01*
X22852000Y-7699000D02*
X22852000Y-7779000D01*
X22812000Y-7739000D02*
X22892000Y-7739000D01*
X22852000Y-7953000D02*
X22852000Y-8033000D01*
X22812000Y-7993000D02*
X22892000Y-7993000D01*
X23614000Y-6175000D02*
X23614000Y-6255000D01*
X23574000Y-6215000D02*
X23654000Y-6215000D01*
X23614000Y-6429000D02*
X23614000Y-6509000D01*
X23574000Y-6469000D02*
X23654000Y-6469000D01*
X23614000Y-6683000D02*
X23614000Y-6763000D01*
X23574000Y-6723000D02*
X23654000Y-6723000D01*
X23614000Y-6937000D02*
X23614000Y-7017000D01*
X23574000Y-6977000D02*
X23654000Y-6977000D01*
X23614000Y-7191000D02*
X23614000Y-7271000D01*
X23574000Y-7231000D02*
X23654000Y-7231000D01*
X23614000Y-7445000D02*
X23614000Y-7525000D01*
X23574000Y-7485000D02*
X23654000Y-7485000D01*
X23614000Y-7699000D02*
X23614000Y-7779000D01*
X23574000Y-7739000D02*
X23654000Y-7739000D01*
X23614000Y-7953000D02*
X23614000Y-8033000D01*
X23574000Y-7993000D02*
X23654000Y-7993000D01*
X19153000Y-13780000D02*
X19153000Y-13860000D01*
X19113000Y-13820000D02*
X19193000Y-13820000D01*
X19915000Y-13780000D02*
X19915000Y-13860000D01*
X19875000Y-13820000D02*
X19955000Y-13820000D01*
X22728000Y-4510000D02*
X22728000Y-4590000D01*
X22688000Y-4550000D02*
X22768000Y-4550000D01*
X23490000Y-4510000D02*
X23490000Y-4590000D01*
X23450000Y-4550000D02*
X23530000Y-4550000D01*
X22105000Y-11065000D02*
X22105000Y-11145000D01*
X22065000Y-11105000D02*
X22145000Y-11105000D01*
X22867000Y-11065000D02*
X22867000Y-11145000D01*
X22827000Y-11105000D02*
X22907000Y-11105000D01*
X24045000Y-12988000D02*
X24045000Y-13068000D01*
X24005000Y-13028000D02*
X24085000Y-13028000D01*
X24045000Y-13750000D02*
X24045000Y-13830000D01*
X24005000Y-13790000D02*
X24085000Y-13790000D01*
X18173000Y-14040000D02*
X18173000Y-14120000D01*
X18133000Y-14080000D02*
X18213000Y-14080000D01*
X18935000Y-14040000D02*
X18935000Y-14120000D01*
X18895000Y-14080000D02*
X18975000Y-14080000D01*
X19510000Y-8243000D02*
X19510000Y-8323000D01*
X19470000Y-8283000D02*
X19550000Y-8283000D01*
X19510000Y-9005000D02*
X19510000Y-9085000D01*
X19470000Y-9045000D02*
X19550000Y-9045000D01*
X23868000Y-6705000D02*
X23868000Y-6785000D01*
X23828000Y-6745000D02*
X23908000Y-6745000D01*
X24630000Y-6705000D02*
X24630000Y-6785000D01*
X24590000Y-6745000D02*
X24670000Y-6745000D01*
X22460000Y-9828000D02*
X22460000Y-9908000D01*
X22420000Y-9868000D02*
X22500000Y-9868000D01*
X22460000Y-10590000D02*
X22460000Y-10670000D01*
X22420000Y-10630000D02*
X22500000Y-10630000D01*
X23093000Y-11755000D02*
X23093000Y-11835000D01*
X23053000Y-11795000D02*
X23133000Y-11795000D01*
X23855000Y-11755000D02*
X23855000Y-11835000D01*
X23815000Y-11795000D02*
X23895000Y-11795000D01*
X21853000Y-7650000D02*
X21853000Y-7730000D01*
X21813000Y-7690000D02*
X21893000Y-7690000D01*
X22615000Y-7650000D02*
X22615000Y-7730000D01*
X22575000Y-7690000D02*
X22655000Y-7690000D01*
X21210000Y-6220000D02*
X21210000Y-6300000D01*
X21170000Y-6260000D02*
X21250000Y-6260000D01*
X21210000Y-6982000D02*
X21210000Y-7062000D01*
X21170000Y-7022000D02*
X21250000Y-7022000D01*
X24960000Y-12988000D02*
X24960000Y-13068000D01*
X24920000Y-13028000D02*
X25000000Y-13028000D01*
X24960000Y-13750000D02*
X24960000Y-13830000D01*
X24920000Y-13790000D02*
X25000000Y-13790000D01*
X20130000Y-10360000D02*
X20130000Y-10440000D01*
X20090000Y-10400000D02*
X20170000Y-10400000D01*
X20130000Y-10614000D02*
X20130000Y-10694000D01*
X20090000Y-10654000D02*
X20170000Y-10654000D01*
X20130000Y-10868000D02*
X20130000Y-10948000D01*
X20090000Y-10908000D02*
X20170000Y-10908000D01*
X20130000Y-11122000D02*
X20130000Y-11202000D01*
X20090000Y-11162000D02*
X20170000Y-11162000D01*
X20130000Y-11376000D02*
X20130000Y-11456000D01*
X20090000Y-11416000D02*
X20170000Y-11416000D01*
X20130000Y-11630000D02*
X20130000Y-11710000D01*
X20090000Y-11670000D02*
X20170000Y-11670000D01*
X20130000Y-11884000D02*
X20130000Y-11964000D01*
X20090000Y-11924000D02*
X20170000Y-11924000D01*
X20892000Y-10360000D02*
X20892000Y-10440000D01*
X20852000Y-10400000D02*
X20932000Y-10400000D01*
X20892000Y-10614000D02*
X20892000Y-10694000D01*
X20852000Y-10654000D02*
X20932000Y-10654000D01*
X20892000Y-10868000D02*
X20892000Y-10948000D01*
X20852000Y-10908000D02*
X20932000Y-10908000D01*
X20892000Y-11122000D02*
X20892000Y-11202000D01*
X20852000Y-11162000D02*
X20932000Y-11162000D01*
X20892000Y-11376000D02*
X20892000Y-11456000D01*
X20852000Y-11416000D02*
X20932000Y-11416000D01*
X20892000Y-11630000D02*
X20892000Y-11710000D01*
X20852000Y-11670000D02*
X20932000Y-11670000D01*
X20892000Y-11884000D02*
X20892000Y-11964000D01*
X20852000Y-11924000D02*
X20932000Y-11924000D01*
X23868000Y-6170000D02*
X23868000Y-6250000D01*
X23828000Y-6210000D02*
X23908000Y-6210000D01*
X24630000Y-6170000D02*
X24630000Y-6250000D01*
X24590000Y-6210000D02*
X24670000Y-6210000D01*
X26080000Y-3490000D02*
X26080000Y-3570000D01*
X26040000Y-3530000D02*
X26120000Y-3530000D01*
X26080000Y-4252000D02*
X26080000Y-4332000D01*
X26040000Y-4292000D02*
X26120000Y-4292000D01*
X25875000Y-4960000D02*
X25875000Y-5040000D01*
X25835000Y-5000000D02*
X25915000Y-5000000D01*
X25875000Y-5460000D02*
X25875000Y-5540000D01*
X25835000Y-5500000D02*
X25915000Y-5500000D01*
X23868000Y-5890000D02*
X23868000Y-5970000D01*
X23828000Y-5930000D02*
X23908000Y-5930000D01*
X24630000Y-5890000D02*
X24630000Y-5970000D01*
X24590000Y-5930000D02*
X24670000Y-5930000D01*
X20130000Y-9880000D02*
X20130000Y-9960000D01*
X20090000Y-9920000D02*
X20170000Y-9920000D01*
X20892000Y-9880000D02*
X20892000Y-9960000D01*
X20852000Y-9920000D02*
X20932000Y-9920000D01*
X25400000Y-4510000D02*
X25400000Y-4590000D01*
X25360000Y-4550000D02*
X25440000Y-4550000D01*
X26162000Y-4510000D02*
X26162000Y-4590000D01*
X26122000Y-4550000D02*
X26202000Y-4550000D01*
X24655000Y-12990000D02*
X24655000Y-13070000D01*
X24615000Y-13030000D02*
X24695000Y-13030000D01*
X24655000Y-13752000D02*
X24655000Y-13832000D01*
X24615000Y-13792000D02*
X24695000Y-13792000D01*
X19148000Y-9880000D02*
X19148000Y-9960000D01*
X19108000Y-9920000D02*
X19188000Y-9920000D01*
X19910000Y-9880000D02*
X19910000Y-9960000D01*
X19870000Y-9920000D02*
X19950000Y-9920000D01*
X23093000Y-12060000D02*
X23093000Y-12140000D01*
X23053000Y-12100000D02*
X23133000Y-12100000D01*
X23855000Y-12060000D02*
X23855000Y-12140000D01*
X23815000Y-12100000D02*
X23895000Y-12100000D01*
X19310000Y-5988000D02*
X19310000Y-6068000D01*
X19270000Y-6028000D02*
X19350000Y-6028000D01*
X19310000Y-6750000D02*
X19310000Y-6830000D01*
X19270000Y-6790000D02*
X19350000Y-6790000D01*
X16965000Y-5655000D02*
X16965000Y-5735000D01*
X16925000Y-5695000D02*
X17005000Y-5695000D01*
X16965000Y-6155000D02*
X16965000Y-6235000D01*
X16925000Y-6195000D02*
X17005000Y-6195000D01*
X26045000Y-10835000D02*
X26045000Y-10915000D01*
X26005000Y-10875000D02*
X26085000Y-10875000D01*
X26545000Y-10835000D02*
X26545000Y-10915000D01*
X26505000Y-10875000D02*
X26585000Y-10875000D01*
X17188000Y-12435000D02*
X17188000Y-12515000D01*
X17148000Y-12475000D02*
X17228000Y-12475000D01*
X17950000Y-12435000D02*
X17950000Y-12515000D01*
X17910000Y-12475000D02*
X17990000Y-12475000D01*
X23680000Y-3490000D02*
X23680000Y-3570000D01*
X23640000Y-3530000D02*
X23720000Y-3530000D01*
X23680000Y-4252000D02*
X23680000Y-4332000D01*
X23640000Y-4292000D02*
X23720000Y-4292000D01*
X18450000Y-7010000D02*
X18450000Y-7090000D01*
X18410000Y-7050000D02*
X18490000Y-7050000D01*
X18950000Y-7010000D02*
X18950000Y-7090000D01*
X18910000Y-7050000D02*
X18990000Y-7050000D01*
X24428000Y-4510000D02*
X24428000Y-4590000D01*
X24388000Y-4550000D02*
X24468000Y-4550000D01*
X25190000Y-4510000D02*
X25190000Y-4590000D01*
X25150000Y-4550000D02*
X25230000Y-4550000D01*
X25400000Y-12993000D02*
X25400000Y-13073000D01*
X25360000Y-13033000D02*
X25440000Y-13033000D01*
X25400000Y-13755000D02*
X25400000Y-13835000D01*
X25360000Y-13795000D02*
X25440000Y-13795000D01*
X19153000Y-12155000D02*
X19153000Y-12235000D01*
X19113000Y-12195000D02*
X19193000Y-12195000D01*
X19915000Y-12155000D02*
X19915000Y-12235000D01*
X19875000Y-12195000D02*
X19955000Y-12195000D01*
X19150000Y-10330000D02*
X19150000Y-10410000D01*
X19110000Y-10370000D02*
X19190000Y-10370000D01*
X19912000Y-10330000D02*
X19912000Y-10410000D01*
X19872000Y-10370000D02*
X19952000Y-10370000D01*
X21580000Y-6180000D02*
X21580000Y-6260000D01*
X21540000Y-6220000D02*
X21620000Y-6220000D01*
X21580000Y-6680000D02*
X21580000Y-6760000D01*
X21540000Y-6720000D02*
X21620000Y-6720000D01*
X19620000Y-7340000D02*
X19620000Y-7420000D01*
X19580000Y-7380000D02*
X19660000Y-7380000D01*
X19620000Y-7840000D02*
X19620000Y-7920000D01*
X19580000Y-7880000D02*
X19660000Y-7880000D01*
X24855000Y-7335000D02*
X24855000Y-7415000D01*
X24815000Y-7375000D02*
X24895000Y-7375000D01*
X25617000Y-7335000D02*
X25617000Y-7415000D01*
X25577000Y-7375000D02*
X25657000Y-7375000D01*
X19768000Y-8950000D02*
X19768000Y-9030000D01*
X19728000Y-8990000D02*
X19808000Y-8990000D01*
X20530000Y-8950000D02*
X20530000Y-9030000D01*
X20490000Y-8990000D02*
X20570000Y-8990000D01*
X17178000Y-11415000D02*
X17178000Y-11495000D01*
X17138000Y-11455000D02*
X17218000Y-11455000D01*
X17940000Y-11415000D02*
X17940000Y-11495000D01*
X17900000Y-11455000D02*
X17980000Y-11455000D01*
X21865000Y-7130000D02*
X21865000Y-7210000D01*
X21825000Y-7170000D02*
X21905000Y-7170000D01*
X22627000Y-7130000D02*
X22627000Y-7210000D01*
X22587000Y-7170000D02*
X22667000Y-7170000D01*
X20860000Y-7290000D02*
X20860000Y-7370000D01*
X20820000Y-7330000D02*
X20900000Y-7330000D01*
X21622000Y-7290000D02*
X21622000Y-7370000D01*
X21582000Y-7330000D02*
X21662000Y-7330000D01*
X17178000Y-11715000D02*
X17178000Y-11795000D01*
X17138000Y-11755000D02*
X17218000Y-11755000D01*
X17940000Y-11715000D02*
X17940000Y-11795000D01*
X17900000Y-11755000D02*
X17980000Y-11755000D01*
X19880000Y-6990000D02*
X19880000Y-7070000D01*
X19840000Y-7030000D02*
X19920000Y-7030000D01*
X20380000Y-6990000D02*
X20380000Y-7070000D01*
X20340000Y-7030000D02*
X20420000Y-7030000D01*
X21115000Y-12335000D02*
X21115000Y-12415000D01*
X21075000Y-12375000D02*
X21155000Y-12375000D01*
X21877000Y-12335000D02*
X21877000Y-12415000D01*
X21837000Y-12375000D02*
X21917000Y-12375000D01*
X22105000Y-13465000D02*
X22105000Y-13545000D01*
X22065000Y-13505000D02*
X22145000Y-13505000D01*
X22867000Y-13465000D02*
X22867000Y-13545000D01*
X22827000Y-13505000D02*
X22907000Y-13505000D01*
X21853000Y-6380000D02*
X21853000Y-6460000D01*
X21813000Y-6420000D02*
X21893000Y-6420000D01*
X22615000Y-6380000D02*
X22615000Y-6460000D01*
X22575000Y-6420000D02*
X22655000Y-6420000D01*
X19473000Y-5240000D02*
X19473000Y-5320000D01*
X19433000Y-5280000D02*
X19513000Y-5280000D01*
X20235000Y-5240000D02*
X20235000Y-5320000D01*
X20195000Y-5280000D02*
X20275000Y-5280000D01*
X25875000Y-6720000D02*
X25875000Y-6800000D01*
X25835000Y-6760000D02*
X25915000Y-6760000D01*
X25875000Y-7482000D02*
X25875000Y-7562000D01*
X25835000Y-7522000D02*
X25915000Y-7522000D01*
X18190000Y-6973000D02*
X18190000Y-7053000D01*
X18150000Y-7013000D02*
X18230000Y-7013000D01*
X18190000Y-7735000D02*
X18190000Y-7815000D01*
X18150000Y-7775000D02*
X18230000Y-7775000D01*
X21390000Y-12655000D02*
X21390000Y-12735000D01*
X21350000Y-12695000D02*
X21430000Y-12695000D01*
X21890000Y-12655000D02*
X21890000Y-12735000D01*
X21850000Y-12695000D02*
X21930000Y-12695000D01*
X23095000Y-12665000D02*
X23095000Y-12745000D01*
X23055000Y-12705000D02*
X23135000Y-12705000D01*
X23595000Y-12665000D02*
X23595000Y-12745000D01*
X23555000Y-12705000D02*
X23635000Y-12705000D01*
X18495000Y-5240000D02*
X18495000Y-5320000D01*
X18455000Y-5280000D02*
X18535000Y-5280000D01*
X19257000Y-5240000D02*
X19257000Y-5320000D01*
X19217000Y-5280000D02*
X19297000Y-5280000D01*
X19770000Y-8350000D02*
X19770000Y-8430000D01*
X19730000Y-8390000D02*
X19810000Y-8390000D01*
X20270000Y-8350000D02*
X20270000Y-8430000D01*
X20230000Y-8390000D02*
X20310000Y-8390000D01*
X13833000Y-5642500D02*
X13833000Y-5722500D01*
X13793000Y-5682500D02*
X13873000Y-5682500D01*
X14595000Y-5642500D02*
X14595000Y-5722500D01*
X14555000Y-5682500D02*
X14635000Y-5682500D01*
X19153000Y-13475000D02*
X19153000Y-13555000D01*
X19113000Y-13515000D02*
X19193000Y-13515000D01*
X19915000Y-13475000D02*
X19915000Y-13555000D01*
X19875000Y-13515000D02*
X19955000Y-13515000D01*
X19630000Y-6258000D02*
X19630000Y-6338000D01*
X19590000Y-6298000D02*
X19670000Y-6298000D01*
X19630000Y-7020000D02*
X19630000Y-7100000D01*
X19590000Y-7060000D02*
X19670000Y-7060000D01*
X24430000Y-9560000D02*
X24430000Y-9640000D01*
X24390000Y-9600000D02*
X24470000Y-9600000D01*
X24930000Y-9560000D02*
X24930000Y-9640000D01*
X24890000Y-9600000D02*
X24970000Y-9600000D01*
X23135000Y-13250000D02*
X23135000Y-13330000D01*
X23095000Y-13290000D02*
X23175000Y-13290000D01*
X23135000Y-13750000D02*
X23135000Y-13830000D01*
X23095000Y-13790000D02*
X23175000Y-13790000D01*
X23093000Y-12360000D02*
X23093000Y-12440000D01*
X23053000Y-12400000D02*
X23133000Y-12400000D01*
X23855000Y-12360000D02*
X23855000Y-12440000D01*
X23815000Y-12400000D02*
X23895000Y-12400000D01*
X23380000Y-3490000D02*
X23380000Y-3570000D01*
X23340000Y-3530000D02*
X23420000Y-3530000D01*
X23380000Y-4252000D02*
X23380000Y-4332000D01*
X23340000Y-4292000D02*
X23420000Y-4292000D01*
X24580000Y-3490000D02*
X24580000Y-3570000D01*
X24540000Y-3530000D02*
X24620000Y-3530000D01*
X24580000Y-4252000D02*
X24580000Y-4332000D01*
X24540000Y-4292000D02*
X24620000Y-4292000D01*
X17185500Y-9250000D02*
X17185500Y-9330000D01*
X17145500Y-9290000D02*
X17225500Y-9290000D01*
X17947500Y-9250000D02*
X17947500Y-9330000D01*
X17907500Y-9290000D02*
X17987500Y-9290000D01*
X25480000Y-3490000D02*
X25480000Y-3570000D01*
X25440000Y-3530000D02*
X25520000Y-3530000D01*
X25480000Y-4252000D02*
X25480000Y-4332000D01*
X25440000Y-4292000D02*
X25520000Y-4292000D01*
X13702500Y-5042500D02*
X13702500Y-5122500D01*
X13662500Y-5082500D02*
X13742500Y-5082500D01*
X14202500Y-5042500D02*
X14202500Y-5122500D01*
X14162500Y-5082500D02*
X14242500Y-5082500D01*
X20575000Y-8200000D02*
X20575000Y-8280000D01*
X20535000Y-8240000D02*
X20615000Y-8240000D01*
X20825000Y-8200000D02*
X20825000Y-8280000D01*
X20785000Y-8240000D02*
X20865000Y-8240000D01*
X22730000Y-8800000D02*
X22730000Y-8880000D01*
X22690000Y-8840000D02*
X22770000Y-8840000D01*
X22730000Y-9054000D02*
X22730000Y-9134000D01*
X22690000Y-9094000D02*
X22770000Y-9094000D01*
X22730000Y-9308000D02*
X22730000Y-9388000D01*
X22690000Y-9348000D02*
X22770000Y-9348000D01*
X22730000Y-9562000D02*
X22730000Y-9642000D01*
X22690000Y-9602000D02*
X22770000Y-9602000D01*
X22730000Y-9816000D02*
X22730000Y-9896000D01*
X22690000Y-9856000D02*
X22770000Y-9856000D01*
X22730000Y-10070000D02*
X22730000Y-10150000D01*
X22690000Y-10110000D02*
X22770000Y-10110000D01*
X22730000Y-10324000D02*
X22730000Y-10404000D01*
X22690000Y-10364000D02*
X22770000Y-10364000D01*
X23492000Y-8800000D02*
X23492000Y-8880000D01*
X23452000Y-8840000D02*
X23532000Y-8840000D01*
X23492000Y-9054000D02*
X23492000Y-9134000D01*
X23452000Y-9094000D02*
X23532000Y-9094000D01*
X23492000Y-9308000D02*
X23492000Y-9388000D01*
X23452000Y-9348000D02*
X23532000Y-9348000D01*
X23492000Y-9562000D02*
X23492000Y-9642000D01*
X23452000Y-9602000D02*
X23532000Y-9602000D01*
X23492000Y-9816000D02*
X23492000Y-9896000D01*
X23452000Y-9856000D02*
X23532000Y-9856000D01*
X23492000Y-10070000D02*
X23492000Y-10150000D01*
X23452000Y-10110000D02*
X23532000Y-10110000D01*
X23492000Y-10324000D02*
X23492000Y-10404000D01*
X23452000Y-10364000D02*
X23532000Y-10364000D01*
X19153000Y-12765000D02*
X19153000Y-12845000D01*
X19113000Y-12805000D02*
X19193000Y-12805000D01*
X19915000Y-12765000D02*
X19915000Y-12845000D01*
X19875000Y-12805000D02*
X19955000Y-12805000D01*
X25153000Y-9245000D02*
X25153000Y-9325000D01*
X25113000Y-9285000D02*
X25193000Y-9285000D01*
X25915000Y-9245000D02*
X25915000Y-9325000D01*
X25875000Y-9285000D02*
X25955000Y-9285000D01*
X23713000Y-4815000D02*
X23713000Y-4895000D01*
X23673000Y-4855000D02*
X23753000Y-4855000D01*
X24475000Y-4815000D02*
X24475000Y-4895000D01*
X24435000Y-4855000D02*
X24515000Y-4855000D01*
X22010000Y-9565000D02*
X22010000Y-9645000D01*
X21970000Y-9605000D02*
X22050000Y-9605000D01*
X22510000Y-9565000D02*
X22510000Y-9645000D01*
X22470000Y-9605000D02*
X22550000Y-9605000D01*
X21110000Y-12030000D02*
X21110000Y-12110000D01*
X21070000Y-12070000D02*
X21150000Y-12070000D01*
X21872000Y-12030000D02*
X21872000Y-12110000D01*
X21832000Y-12070000D02*
X21912000Y-12070000D01*
X20000000Y-7910000D02*
X20000000Y-7990000D01*
X19960000Y-7950000D02*
X20040000Y-7950000D01*
X20250000Y-7910000D02*
X20250000Y-7990000D01*
X20210000Y-7950000D02*
X20290000Y-7950000D01*
X20860000Y-5920000D02*
X20860000Y-6000000D01*
X20820000Y-5960000D02*
X20900000Y-5960000D01*
X21622000Y-5920000D02*
X21622000Y-6000000D01*
X21582000Y-5960000D02*
X21662000Y-5960000D01*
X23755000Y-8533000D02*
X23755000Y-8613000D01*
X23715000Y-8573000D02*
X23795000Y-8573000D01*
X23755000Y-9295000D02*
X23755000Y-9375000D01*
X23715000Y-9335000D02*
X23795000Y-9335000D01*
X8742500Y-6120000D02*
X8742500Y-6200000D01*
X8702500Y-6160000D02*
X8782500Y-6160000D01*
X9504500Y-6120000D02*
X9504500Y-6200000D01*
X9464500Y-6160000D02*
X9544500Y-6160000D01*
X20455000Y-5240000D02*
X20455000Y-5320000D01*
X20415000Y-5280000D02*
X20495000Y-5280000D01*
X21217000Y-5240000D02*
X21217000Y-5320000D01*
X21177000Y-5280000D02*
X21257000Y-5280000D01*
X24078000Y-11750000D02*
X24078000Y-11830000D01*
X24038000Y-11790000D02*
X24118000Y-11790000D01*
X24840000Y-11750000D02*
X24840000Y-11830000D01*
X24800000Y-11790000D02*
X24880000Y-11790000D01*
X17177500Y-10800000D02*
X17177500Y-10880000D01*
X17137500Y-10840000D02*
X17217500Y-10840000D01*
X17939500Y-10800000D02*
X17939500Y-10880000D01*
X17899500Y-10840000D02*
X17979500Y-10840000D01*
X17447500Y-10130000D02*
X17447500Y-10210000D01*
X17407500Y-10170000D02*
X17487500Y-10170000D01*
X17947500Y-10130000D02*
X17947500Y-10210000D01*
X17907500Y-10170000D02*
X17987500Y-10170000D01*
X19868000Y-9230000D02*
X19868000Y-9310000D01*
X19828000Y-9270000D02*
X19908000Y-9270000D01*
X20630000Y-9230000D02*
X20630000Y-9310000D01*
X20590000Y-9270000D02*
X20670000Y-9270000D01*
X18168000Y-10338000D02*
X18168000Y-10418000D01*
X18128000Y-10378000D02*
X18208000Y-10378000D01*
X18168000Y-10592000D02*
X18168000Y-10672000D01*
X18128000Y-10632000D02*
X18208000Y-10632000D01*
X18168000Y-10846000D02*
X18168000Y-10926000D01*
X18128000Y-10886000D02*
X18208000Y-10886000D01*
X18168000Y-11100000D02*
X18168000Y-11180000D01*
X18128000Y-11140000D02*
X18208000Y-11140000D01*
X18168000Y-11354000D02*
X18168000Y-11434000D01*
X18128000Y-11394000D02*
X18208000Y-11394000D01*
X18168000Y-11608000D02*
X18168000Y-11688000D01*
X18128000Y-11648000D02*
X18208000Y-11648000D01*
X18168000Y-11862000D02*
X18168000Y-11942000D01*
X18128000Y-11902000D02*
X18208000Y-11902000D01*
X18930000Y-10338000D02*
X18930000Y-10418000D01*
X18890000Y-10378000D02*
X18970000Y-10378000D01*
X18930000Y-10592000D02*
X18930000Y-10672000D01*
X18890000Y-10632000D02*
X18970000Y-10632000D01*
X18930000Y-10846000D02*
X18930000Y-10926000D01*
X18890000Y-10886000D02*
X18970000Y-10886000D01*
X18930000Y-11100000D02*
X18930000Y-11180000D01*
X18890000Y-11140000D02*
X18970000Y-11140000D01*
X18930000Y-11354000D02*
X18930000Y-11434000D01*
X18890000Y-11394000D02*
X18970000Y-11394000D01*
X18930000Y-11608000D02*
X18930000Y-11688000D01*
X18890000Y-11648000D02*
X18970000Y-11648000D01*
X18930000Y-11862000D02*
X18930000Y-11942000D01*
X18890000Y-11902000D02*
X18970000Y-11902000D01*
X19000000Y-5988000D02*
X19000000Y-6068000D01*
X18960000Y-6028000D02*
X19040000Y-6028000D01*
X19000000Y-6750000D02*
X19000000Y-6830000D01*
X18960000Y-6790000D02*
X19040000Y-6790000D01*
X19155000Y-13070000D02*
X19155000Y-13150000D01*
X19115000Y-13110000D02*
X19195000Y-13110000D01*
X19655000Y-13070000D02*
X19655000Y-13150000D01*
X19615000Y-13110000D02*
X19695000Y-13110000D01*
X24130000Y-7010000D02*
X24130000Y-7090000D01*
X24090000Y-7050000D02*
X24170000Y-7050000D01*
X24630000Y-7010000D02*
X24630000Y-7090000D01*
X24590000Y-7050000D02*
X24670000Y-7050000D01*
X17447500Y-9830000D02*
X17447500Y-9910000D01*
X17407500Y-9870000D02*
X17487500Y-9870000D01*
X17947500Y-9830000D02*
X17947500Y-9910000D01*
X17907500Y-9870000D02*
X17987500Y-9870000D01*
X17440000Y-11110000D02*
X17440000Y-11190000D01*
X17400000Y-11150000D02*
X17480000Y-11150000D01*
X17940000Y-11110000D02*
X17940000Y-11190000D01*
X17900000Y-11150000D02*
X17980000Y-11150000D01*
X18175000Y-12210000D02*
X18175000Y-12290000D01*
X18135000Y-12250000D02*
X18215000Y-12250000D01*
X18175000Y-12464000D02*
X18175000Y-12544000D01*
X18135000Y-12504000D02*
X18215000Y-12504000D01*
X18175000Y-12718000D02*
X18175000Y-12798000D01*
X18135000Y-12758000D02*
X18215000Y-12758000D01*
X18175000Y-12972000D02*
X18175000Y-13052000D01*
X18135000Y-13012000D02*
X18215000Y-13012000D01*
X18175000Y-13226000D02*
X18175000Y-13306000D01*
X18135000Y-13266000D02*
X18215000Y-13266000D01*
X18175000Y-13480000D02*
X18175000Y-13560000D01*
X18135000Y-13520000D02*
X18215000Y-13520000D01*
X18175000Y-13734000D02*
X18175000Y-13814000D01*
X18135000Y-13774000D02*
X18215000Y-13774000D01*
X18937000Y-12210000D02*
X18937000Y-12290000D01*
X18897000Y-12250000D02*
X18977000Y-12250000D01*
X18937000Y-12464000D02*
X18937000Y-12544000D01*
X18897000Y-12504000D02*
X18977000Y-12504000D01*
X18937000Y-12718000D02*
X18937000Y-12798000D01*
X18897000Y-12758000D02*
X18977000Y-12758000D01*
X18937000Y-12972000D02*
X18937000Y-13052000D01*
X18897000Y-13012000D02*
X18977000Y-13012000D01*
X18937000Y-13226000D02*
X18937000Y-13306000D01*
X18897000Y-13266000D02*
X18977000Y-13266000D01*
X18937000Y-13480000D02*
X18937000Y-13560000D01*
X18897000Y-13520000D02*
X18977000Y-13520000D01*
X18937000Y-13734000D02*
X18937000Y-13814000D01*
X18897000Y-13774000D02*
X18977000Y-13774000D01*
X14863000Y-5717500D02*
X14863000Y-5797500D01*
X14823000Y-5757500D02*
X14903000Y-5757500D01*
X14863000Y-5971500D02*
X14863000Y-6051500D01*
X14823000Y-6011500D02*
X14903000Y-6011500D01*
X14863000Y-6225500D02*
X14863000Y-6305500D01*
X14823000Y-6265500D02*
X14903000Y-6265500D01*
X14863000Y-6479500D02*
X14863000Y-6559500D01*
X14823000Y-6519500D02*
X14903000Y-6519500D01*
X15625000Y-5717500D02*
X15625000Y-5797500D01*
X15585000Y-5757500D02*
X15665000Y-5757500D01*
X15625000Y-5971500D02*
X15625000Y-6051500D01*
X15585000Y-6011500D02*
X15665000Y-6011500D01*
X15625000Y-6225500D02*
X15625000Y-6305500D01*
X15585000Y-6265500D02*
X15665000Y-6265500D01*
X15625000Y-6479500D02*
X15625000Y-6559500D01*
X15585000Y-6519500D02*
X15665000Y-6519500D01*
X19153000Y-12460000D02*
X19153000Y-12540000D01*
X19113000Y-12500000D02*
X19193000Y-12500000D01*
X19915000Y-12460000D02*
X19915000Y-12540000D01*
X19875000Y-12500000D02*
X19955000Y-12500000D01*
X24340000Y-10835000D02*
X24340000Y-10915000D01*
X24300000Y-10875000D02*
X24380000Y-10875000D01*
X24840000Y-10835000D02*
X24840000Y-10915000D01*
X24800000Y-10875000D02*
X24880000Y-10875000D01*
X21110000Y-11120000D02*
X21110000Y-11200000D01*
X21070000Y-11160000D02*
X21150000Y-11160000D01*
X21610000Y-11120000D02*
X21610000Y-11200000D01*
X21570000Y-11160000D02*
X21650000Y-11160000D01*
X17290000Y-13475000D02*
X17290000Y-13555000D01*
X17250000Y-13515000D02*
X17330000Y-13515000D01*
X17540000Y-13475000D02*
X17540000Y-13555000D01*
X17500000Y-13515000D02*
X17580000Y-13515000D01*
X23075000Y-3490000D02*
X23075000Y-3570000D01*
X23035000Y-3530000D02*
X23115000Y-3530000D01*
X23075000Y-4252000D02*
X23075000Y-4332000D01*
X23035000Y-4292000D02*
X23115000Y-4292000D01*
X11256820Y-6781820D02*
X11256820Y-6718180D01*
X11193180Y-6718180D01*
X11193180Y-6781820D01*
X11256820Y-6781820D01*
X11256820Y-8611820D02*
X11256820Y-8548180D01*
X11193180Y-8548180D01*
X11193180Y-8611820D01*
X11256820Y-8611820D01*
X11506820Y-6781820D02*
X11506820Y-6718180D01*
X11443180Y-6718180D01*
X11443180Y-6781820D01*
X11506820Y-6781820D01*
X11506820Y-8611820D02*
X11506820Y-8548180D01*
X11443180Y-8548180D01*
X11443180Y-8611820D01*
X11506820Y-8611820D01*
X11756820Y-6781820D02*
X11756820Y-6718180D01*
X11693180Y-6718180D01*
X11693180Y-6781820D01*
X11756820Y-6781820D01*
X11756820Y-8611820D02*
X11756820Y-8548180D01*
X11693180Y-8548180D01*
X11693180Y-8611820D01*
X11756820Y-8611820D01*
X11996820Y-6781820D02*
X11996820Y-6718180D01*
X11933180Y-6718180D01*
X11933180Y-6781820D01*
X11996820Y-6781820D01*
X12006820Y-8611820D02*
X12006820Y-8548180D01*
X11943180Y-8548180D01*
X11943180Y-8611820D01*
X12006820Y-8611820D01*
X12256820Y-6781820D02*
X12256820Y-6718180D01*
X12193180Y-6718180D01*
X12193180Y-6781820D01*
X12256820Y-6781820D01*
X12256820Y-8611820D02*
X12256820Y-8548180D01*
X12193180Y-8548180D01*
X12193180Y-8611820D01*
X12256820Y-8611820D01*
X13954820Y-7631820D02*
X13954820Y-7568180D01*
X13891180Y-7568180D01*
X13891180Y-7631820D01*
X13954820Y-7631820D01*
X14208820Y-7631820D02*
X14208820Y-7568180D01*
X14145180Y-7568180D01*
X14145180Y-7631820D01*
X14208820Y-7631820D01*
X9304820Y-7631820D02*
X9304820Y-7568180D01*
X9241180Y-7568180D01*
X9241180Y-7631820D01*
X9304820Y-7631820D01*
X9558820Y-7631820D02*
X9558820Y-7568180D01*
X9495180Y-7568180D01*
X9495180Y-7631820D01*
X9558820Y-7631820D01*
X20835000Y-13155000D02*
X20885000Y-13105000D01*
X20835000Y-13055000D01*
X20785000Y-13105000D01*
X20835000Y-13155000D01*
X20835000Y-13409000D02*
X20885000Y-13359000D01*
X20835000Y-13309000D01*
X20785000Y-13359000D01*
X20835000Y-13409000D01*
X20835000Y-13663000D02*
X20885000Y-13613000D01*
X20835000Y-13563000D01*
X20785000Y-13613000D01*
X20835000Y-13663000D01*
X20835000Y-13917000D02*
X20885000Y-13867000D01*
X20835000Y-13817000D01*
X20785000Y-13867000D01*
X20835000Y-13917000D01*
X20835000Y-14171000D02*
X20885000Y-14121000D01*
X20835000Y-14071000D01*
X20785000Y-14121000D01*
X20835000Y-14171000D01*
X21089000Y-13155000D02*
X21139000Y-13105000D01*
X21089000Y-13055000D01*
X21039000Y-13105000D01*
X21089000Y-13155000D01*
X21089000Y-13409000D02*
X21139000Y-13359000D01*
X21089000Y-13309000D01*
X21039000Y-13359000D01*
X21089000Y-13409000D01*
X21089000Y-13663000D02*
X21139000Y-13613000D01*
X21089000Y-13563000D01*
X21039000Y-13613000D01*
X21089000Y-13663000D01*
X21089000Y-13917000D02*
X21139000Y-13867000D01*
X21089000Y-13817000D01*
X21039000Y-13867000D01*
X21089000Y-13917000D01*
X21089000Y-14171000D02*
X21139000Y-14121000D01*
X21089000Y-14071000D01*
X21039000Y-14121000D01*
X21089000Y-14171000D01*
X20800000Y-3570000D02*
X20850000Y-3520000D01*
X20800000Y-3470000D01*
X20750000Y-3520000D01*
X20800000Y-3570000D01*
X20800000Y-4840000D02*
X20850000Y-4790000D01*
X20800000Y-4740000D01*
X20750000Y-4790000D01*
X20800000Y-4840000D01*
X21054000Y-4078000D02*
X21104000Y-4028000D01*
X21054000Y-3978000D01*
X21004000Y-4028000D01*
X21054000Y-4078000D01*
X18050000Y-3570000D02*
X18100000Y-3520000D01*
X18050000Y-3470000D01*
X18000000Y-3520000D01*
X18050000Y-3570000D01*
X18050000Y-4840000D02*
X18100000Y-4790000D01*
X18050000Y-4740000D01*
X18000000Y-4790000D01*
X18050000Y-4840000D01*
X18304000Y-4078000D02*
X18354000Y-4028000D01*
X18304000Y-3978000D01*
X18254000Y-4028000D01*
X18304000Y-4078000D01*
X12608000Y-5350000D02*
X12658000Y-5300000D01*
X12608000Y-5250000D01*
X12558000Y-5300000D01*
X12608000Y-5350000D01*
X12858000Y-5350000D02*
X12908000Y-5300000D01*
X12858000Y-5250000D01*
X12808000Y-5300000D01*
X12858000Y-5350000D01*
X13108000Y-5350000D02*
X13158000Y-5300000D01*
X13108000Y-5250000D01*
X13058000Y-5300000D01*
X13108000Y-5350000D01*
X16950000Y-3570000D02*
X17000000Y-3520000D01*
X16950000Y-3470000D01*
X16900000Y-3520000D01*
X16950000Y-3570000D01*
X16950000Y-4840000D02*
X17000000Y-4790000D01*
X16950000Y-4740000D01*
X16900000Y-4790000D01*
X16950000Y-4840000D01*
X17204000Y-4078000D02*
X17254000Y-4028000D01*
X17204000Y-3978000D01*
X17154000Y-4028000D01*
X17204000Y-4078000D01*
X13297500Y-14185000D02*
X13347500Y-14135000D01*
X13297500Y-14085000D01*
X13247500Y-14135000D01*
X13297500Y-14185000D01*
X13551500Y-14185000D02*
X13601500Y-14135000D01*
X13551500Y-14085000D01*
X13501500Y-14135000D01*
X13551500Y-14185000D01*
X13805500Y-14185000D02*
X13855500Y-14135000D01*
X13805500Y-14085000D01*
X13755500Y-14135000D01*
X13805500Y-14185000D01*
X14059500Y-14185000D02*
X14109500Y-14135000D01*
X14059500Y-14085000D01*
X14009500Y-14135000D01*
X14059500Y-14185000D01*
X14313500Y-14185000D02*
X14363500Y-14135000D01*
X14313500Y-14085000D01*
X14263500Y-14135000D01*
X14313500Y-14185000D01*
X14567500Y-14185000D02*
X14617500Y-14135000D01*
X14567500Y-14085000D01*
X14517500Y-14135000D01*
X14567500Y-14185000D01*
X14821500Y-14185000D02*
X14871500Y-14135000D01*
X14821500Y-14085000D01*
X14771500Y-14135000D01*
X14821500Y-14185000D01*
X15075500Y-14185000D02*
X15125500Y-14135000D01*
X15075500Y-14085000D01*
X15025500Y-14135000D01*
X15075500Y-14185000D01*
X15329500Y-14185000D02*
X15379500Y-14135000D01*
X15329500Y-14085000D01*
X15279500Y-14135000D01*
X15329500Y-14185000D01*
X10334000Y-5350000D02*
X10384000Y-5300000D01*
X10334000Y-5250000D01*
X10284000Y-5300000D01*
X10334000Y-5350000D01*
X10584000Y-5350000D02*
X10634000Y-5300000D01*
X10584000Y-5250000D01*
X10534000Y-5300000D01*
X10584000Y-5350000D01*
X10834000Y-5350000D02*
X10884000Y-5300000D01*
X10834000Y-5250000D01*
X10784000Y-5300000D01*
X10834000Y-5350000D01*
X17500000Y-3570000D02*
X17550000Y-3520000D01*
X17500000Y-3470000D01*
X17450000Y-3520000D01*
X17500000Y-3570000D01*
X17500000Y-4840000D02*
X17550000Y-4790000D01*
X17500000Y-4740000D01*
X17450000Y-4790000D01*
X17500000Y-4840000D01*
X17754000Y-4078000D02*
X17804000Y-4028000D01*
X17754000Y-3978000D01*
X17704000Y-4028000D01*
X17754000Y-4078000D01*
X25706000Y-13347000D02*
X25756000Y-13297000D01*
X25706000Y-13247000D01*
X25656000Y-13297000D01*
X25706000Y-13347000D01*
X25960000Y-12585000D02*
X26010000Y-12535000D01*
X25960000Y-12485000D01*
X25910000Y-12535000D01*
X25960000Y-12585000D01*
X25960000Y-13855000D02*
X26010000Y-13805000D01*
X25960000Y-13755000D01*
X25910000Y-13805000D01*
X25960000Y-13855000D01*
X23345000Y-14185000D02*
X23395000Y-14135000D01*
X23345000Y-14085000D01*
X23295000Y-14135000D01*
X23345000Y-14185000D01*
X23599000Y-14185000D02*
X23649000Y-14135000D01*
X23599000Y-14085000D01*
X23549000Y-14135000D01*
X23599000Y-14185000D01*
X23853000Y-14185000D02*
X23903000Y-14135000D01*
X23853000Y-14085000D01*
X23803000Y-14135000D01*
X23853000Y-14185000D01*
X24107000Y-14185000D02*
X24157000Y-14135000D01*
X24107000Y-14085000D01*
X24057000Y-14135000D01*
X24107000Y-14185000D01*
X24361000Y-14185000D02*
X24411000Y-14135000D01*
X24361000Y-14085000D01*
X24311000Y-14135000D01*
X24361000Y-14185000D01*
X24615000Y-14185000D02*
X24665000Y-14135000D01*
X24615000Y-14085000D01*
X24565000Y-14135000D01*
X24615000Y-14185000D01*
X24869000Y-14185000D02*
X24919000Y-14135000D01*
X24869000Y-14085000D01*
X24819000Y-14135000D01*
X24869000Y-14185000D01*
X25123000Y-14185000D02*
X25173000Y-14135000D01*
X25123000Y-14085000D01*
X25073000Y-14135000D01*
X25123000Y-14185000D01*
X25377000Y-14185000D02*
X25427000Y-14135000D01*
X25377000Y-14085000D01*
X25327000Y-14135000D01*
X25377000Y-14185000D01*
X8059000Y-5350000D02*
X8109000Y-5300000D01*
X8059000Y-5250000D01*
X8009000Y-5300000D01*
X8059000Y-5350000D01*
X8309000Y-5350000D02*
X8359000Y-5300000D01*
X8309000Y-5250000D01*
X8259000Y-5300000D01*
X8309000Y-5350000D01*
X8559000Y-5350000D02*
X8609000Y-5300000D01*
X8559000Y-5250000D01*
X8509000Y-5300000D01*
X8559000Y-5350000D01*
X12919500Y-3280000D02*
X12969500Y-3230000D01*
X12919500Y-3180000D01*
X12869500Y-3230000D01*
X12919500Y-3280000D01*
X13173500Y-3280000D02*
X13223500Y-3230000D01*
X13173500Y-3180000D01*
X13123500Y-3230000D01*
X13173500Y-3280000D01*
X13427500Y-3280000D02*
X13477500Y-3230000D01*
X13427500Y-3180000D01*
X13377500Y-3230000D01*
X13427500Y-3280000D01*
X13681500Y-3280000D02*
X13731500Y-3230000D01*
X13681500Y-3180000D01*
X13631500Y-3230000D01*
X13681500Y-3280000D01*
X13935500Y-3280000D02*
X13985500Y-3230000D01*
X13935500Y-3180000D01*
X13885500Y-3230000D01*
X13935500Y-3280000D01*
X14189500Y-3280000D02*
X14239500Y-3230000D01*
X14189500Y-3180000D01*
X14139500Y-3230000D01*
X14189500Y-3280000D01*
X14443500Y-3280000D02*
X14493500Y-3230000D01*
X14443500Y-3180000D01*
X14393500Y-3230000D01*
X14443500Y-3280000D01*
X14697500Y-3280000D02*
X14747500Y-3230000D01*
X14697500Y-3180000D01*
X14647500Y-3230000D01*
X14697500Y-3280000D01*
X14951500Y-3280000D02*
X15001500Y-3230000D01*
X14951500Y-3180000D01*
X14901500Y-3230000D01*
X14951500Y-3280000D01*
X15205500Y-3280000D02*
X15255500Y-3230000D01*
X15205500Y-3180000D01*
X15155500Y-3230000D01*
X15205500Y-3280000D01*
X15459500Y-3280000D02*
X15509500Y-3230000D01*
X15459500Y-3180000D01*
X15409500Y-3230000D01*
X15459500Y-3280000D01*
X15713500Y-3280000D02*
X15763500Y-3230000D01*
X15713500Y-3180000D01*
X15663500Y-3230000D01*
X15713500Y-3280000D01*
X15967500Y-3280000D02*
X16017500Y-3230000D01*
X15967500Y-3180000D01*
X15917500Y-3230000D01*
X15967500Y-3280000D01*
X16221500Y-3280000D02*
X16271500Y-3230000D01*
X16221500Y-3180000D01*
X16171500Y-3230000D01*
X16221500Y-3280000D01*
X26256000Y-13347000D02*
X26306000Y-13297000D01*
X26256000Y-13247000D01*
X26206000Y-13297000D01*
X26256000Y-13347000D01*
X26510000Y-12585000D02*
X26560000Y-12535000D01*
X26510000Y-12485000D01*
X26460000Y-12535000D01*
X26510000Y-12585000D01*
X26510000Y-13855000D02*
X26560000Y-13805000D01*
X26510000Y-13755000D01*
X26460000Y-13805000D01*
X26510000Y-13855000D01*
X19150000Y-3570000D02*
X19200000Y-3520000D01*
X19150000Y-3470000D01*
X19100000Y-3520000D01*
X19150000Y-3570000D01*
X19150000Y-4840000D02*
X19200000Y-4790000D01*
X19150000Y-4740000D01*
X19100000Y-4790000D01*
X19150000Y-4840000D01*
X19404000Y-4078000D02*
X19454000Y-4028000D01*
X19404000Y-3978000D01*
X19354000Y-4028000D01*
X19404000Y-4078000D01*
X21910000Y-3570000D02*
X21960000Y-3520000D01*
X21910000Y-3470000D01*
X21860000Y-3520000D01*
X21910000Y-3570000D01*
X21910000Y-4840000D02*
X21960000Y-4790000D01*
X21910000Y-4740000D01*
X21860000Y-4790000D01*
X21910000Y-4840000D01*
X22164000Y-4078000D02*
X22214000Y-4028000D01*
X22164000Y-3978000D01*
X22114000Y-4028000D01*
X22164000Y-4078000D01*
X20250000Y-3570000D02*
X20300000Y-3520000D01*
X20250000Y-3470000D01*
X20200000Y-3520000D01*
X20250000Y-3570000D01*
X20250000Y-4840000D02*
X20300000Y-4790000D01*
X20250000Y-4740000D01*
X20200000Y-4790000D01*
X20250000Y-4840000D01*
X20504000Y-4078000D02*
X20554000Y-4028000D01*
X20504000Y-3978000D01*
X20454000Y-4028000D01*
X20504000Y-4078000D01*
X19700000Y-3570000D02*
X19750000Y-3520000D01*
X19700000Y-3470000D01*
X19650000Y-3520000D01*
X19700000Y-3570000D01*
X19700000Y-4840000D02*
X19750000Y-4790000D01*
X19700000Y-4740000D01*
X19650000Y-4790000D01*
X19700000Y-4840000D01*
X19954000Y-4078000D02*
X20004000Y-4028000D01*
X19954000Y-3978000D01*
X19904000Y-4028000D01*
X19954000Y-4078000D01*
X14883000Y-5350000D02*
X14933000Y-5300000D01*
X14883000Y-5250000D01*
X14833000Y-5300000D01*
X14883000Y-5350000D01*
X15133000Y-5350000D02*
X15183000Y-5300000D01*
X15133000Y-5250000D01*
X15083000Y-5300000D01*
X15133000Y-5350000D01*
X15383000Y-5350000D02*
X15433000Y-5300000D01*
X15383000Y-5250000D01*
X15333000Y-5300000D01*
X15383000Y-5350000D01*
X21350000Y-3570000D02*
X21400000Y-3520000D01*
X21350000Y-3470000D01*
X21300000Y-3520000D01*
X21350000Y-3570000D01*
X21350000Y-4840000D02*
X21400000Y-4790000D01*
X21350000Y-4740000D01*
X21300000Y-4790000D01*
X21350000Y-4840000D01*
X21604000Y-4078000D02*
X21654000Y-4028000D01*
X21604000Y-3978000D01*
X21554000Y-4028000D01*
X21604000Y-4078000D01*
X18600000Y-3570000D02*
X18650000Y-3520000D01*
X18600000Y-3470000D01*
X18550000Y-3520000D01*
X18600000Y-3570000D01*
X18600000Y-4840000D02*
X18650000Y-4790000D01*
X18600000Y-4740000D01*
X18550000Y-4790000D01*
X18600000Y-4840000D01*
X18854000Y-4078000D02*
X18904000Y-4028000D01*
X18854000Y-3978000D01*
X18804000Y-4028000D01*
X18854000Y-4078000D01*
X22960000Y-3280000D02*
X23010000Y-3230000D01*
X22960000Y-3180000D01*
X22910000Y-3230000D01*
X22960000Y-3280000D01*
X23214000Y-3280000D02*
X23264000Y-3230000D01*
X23214000Y-3180000D01*
X23164000Y-3230000D01*
X23214000Y-3280000D01*
X23468000Y-3280000D02*
X23518000Y-3230000D01*
X23468000Y-3180000D01*
X23418000Y-3230000D01*
X23468000Y-3280000D01*
X23722000Y-3280000D02*
X23772000Y-3230000D01*
X23722000Y-3180000D01*
X23672000Y-3230000D01*
X23722000Y-3280000D01*
X23976000Y-3280000D02*
X24026000Y-3230000D01*
X23976000Y-3180000D01*
X23926000Y-3230000D01*
X23976000Y-3280000D01*
X24230000Y-3280000D02*
X24280000Y-3230000D01*
X24230000Y-3180000D01*
X24180000Y-3230000D01*
X24230000Y-3280000D01*
X24484000Y-3280000D02*
X24534000Y-3230000D01*
X24484000Y-3180000D01*
X24434000Y-3230000D01*
X24484000Y-3280000D01*
X24738000Y-3280000D02*
X24788000Y-3230000D01*
X24738000Y-3180000D01*
X24688000Y-3230000D01*
X24738000Y-3280000D01*
X24992000Y-3280000D02*
X25042000Y-3230000D01*
X24992000Y-3180000D01*
X24942000Y-3230000D01*
X24992000Y-3280000D01*
X25246000Y-3280000D02*
X25296000Y-3230000D01*
X25246000Y-3180000D01*
X25196000Y-3230000D01*
X25246000Y-3280000D01*
X25500000Y-3280000D02*
X25550000Y-3230000D01*
X25500000Y-3180000D01*
X25450000Y-3230000D01*
X25500000Y-3280000D01*
X25754000Y-3280000D02*
X25804000Y-3230000D01*
X25754000Y-3180000D01*
X25704000Y-3230000D01*
X25754000Y-3280000D01*
X26008000Y-3280000D02*
X26058000Y-3230000D01*
X26008000Y-3180000D01*
X25958000Y-3230000D01*
X26008000Y-3280000D01*
X26262000Y-3280000D02*
X26312000Y-3230000D01*
X26262000Y-3180000D01*
X26212000Y-3230000D01*
X26262000Y-3280000D01*
X12578000Y-13310500D02*
X12718000Y-13450500D01*
X12718000Y-13310500D02*
X12578000Y-13450500D01*
X12718000Y-13380500D02*
G75*
G03*
X12718000Y-13380500I-70000J0D01*
G01*
X13456000Y-12422500D02*
X13596000Y-12562500D01*
X13596000Y-12422500D02*
X13456000Y-12562500D01*
X13596000Y-12492500D02*
G75*
G03*
X13596000Y-12492500I-70000J0D01*
G01*
X10252000Y-11035500D02*
X10392000Y-11175500D01*
X10392000Y-11035500D02*
X10252000Y-11175500D01*
X10392000Y-11105500D02*
G75*
G03*
X10392000Y-11105500I-70000J0D01*
G01*
X11130000Y-10147500D02*
X11270000Y-10287500D01*
X11270000Y-10147500D02*
X11130000Y-10287500D01*
X11270000Y-10217500D02*
G75*
G03*
X11270000Y-10217500I-70000J0D01*
G01*
X7926000Y-13310500D02*
X8066000Y-13450500D01*
X8066000Y-13310500D02*
X7926000Y-13450500D01*
X8066000Y-13380500D02*
G75*
G03*
X8066000Y-13380500I-70000J0D01*
G01*
X8804000Y-12422500D02*
X8944000Y-12562500D01*
X8944000Y-12422500D02*
X8804000Y-12562500D01*
X8944000Y-12492500D02*
G75*
G03*
X8944000Y-12492500I-70000J0D01*
G01*
X14904000Y-13310500D02*
X15044000Y-13450500D01*
X15044000Y-13310500D02*
X14904000Y-13450500D01*
X15044000Y-13380500D02*
G75*
G03*
X15044000Y-13380500I-70000J0D01*
G01*
X15782000Y-12422500D02*
X15922000Y-12562500D01*
X15922000Y-12422500D02*
X15782000Y-12562500D01*
X15922000Y-12492500D02*
G75*
G03*
X15922000Y-12492500I-70000J0D01*
G01*
X7926000Y-11035500D02*
X8066000Y-11175500D01*
X8066000Y-11035500D02*
X7926000Y-11175500D01*
X8066000Y-11105500D02*
G75*
G03*
X8066000Y-11105500I-70000J0D01*
G01*
X8804000Y-10147500D02*
X8944000Y-10287500D01*
X8944000Y-10147500D02*
X8804000Y-10287500D01*
X8944000Y-10217500D02*
G75*
G03*
X8944000Y-10217500I-70000J0D01*
G01*
X10252000Y-13310500D02*
X10392000Y-13450500D01*
X10392000Y-13310500D02*
X10252000Y-13450500D01*
X10392000Y-13380500D02*
G75*
G03*
X10392000Y-13380500I-70000J0D01*
G01*
X11130000Y-12422500D02*
X11270000Y-12562500D01*
X11270000Y-12422500D02*
X11130000Y-12562500D01*
X11270000Y-12492500D02*
G75*
G03*
X11270000Y-12492500I-70000J0D01*
G01*
X14904000Y-11035500D02*
X15044000Y-11175500D01*
X15044000Y-11035500D02*
X14904000Y-11175500D01*
X15044000Y-11105500D02*
G75*
G03*
X15044000Y-11105500I-70000J0D01*
G01*
X15782000Y-10147500D02*
X15922000Y-10287500D01*
X15922000Y-10147500D02*
X15782000Y-10287500D01*
X15922000Y-10217500D02*
G75*
G03*
X15922000Y-10217500I-70000J0D01*
G01*
X12578000Y-11035500D02*
X12718000Y-11175500D01*
X12718000Y-11035500D02*
X12578000Y-11175500D01*
X12718000Y-11105500D02*
G75*
G03*
X12718000Y-11105500I-70000J0D01*
G01*
X13456000Y-10147500D02*
X13596000Y-10287500D01*
X13596000Y-10147500D02*
X13456000Y-10287500D01*
X13596000Y-10217500D02*
G75*
G03*
X13596000Y-10217500I-70000J0D01*
G01*
X12150000Y-12698500D02*
X12350000Y-12898500D01*
X12350000Y-12698500D02*
X12150000Y-12898500D01*
X12250000Y-12698500D02*
X12250000Y-12898500D01*
X12150000Y-12798500D02*
X12350000Y-12798500D01*
X12844000Y-12004500D02*
X13044000Y-12204500D01*
X13044000Y-12004500D02*
X12844000Y-12204500D01*
X12944000Y-12004500D02*
X12944000Y-12204500D01*
X12844000Y-12104500D02*
X13044000Y-12104500D01*
X13255000Y-13109500D02*
X13455000Y-13309500D01*
X13455000Y-13109500D02*
X13255000Y-13309500D01*
X13355000Y-13109500D02*
X13355000Y-13309500D01*
X13255000Y-13209500D02*
X13455000Y-13209500D01*
X9824000Y-10423500D02*
X10024000Y-10623500D01*
X10024000Y-10423500D02*
X9824000Y-10623500D01*
X9924000Y-10423500D02*
X9924000Y-10623500D01*
X9824000Y-10523500D02*
X10024000Y-10523500D01*
X10518000Y-9729500D02*
X10718000Y-9929500D01*
X10718000Y-9729500D02*
X10518000Y-9929500D01*
X10618000Y-9729500D02*
X10618000Y-9929500D01*
X10518000Y-9829500D02*
X10718000Y-9829500D01*
X10929000Y-10834500D02*
X11129000Y-11034500D01*
X11129000Y-10834500D02*
X10929000Y-11034500D01*
X11029000Y-10834500D02*
X11029000Y-11034500D01*
X10929000Y-10934500D02*
X11129000Y-10934500D01*
X7498000Y-12698500D02*
X7698000Y-12898500D01*
X7698000Y-12698500D02*
X7498000Y-12898500D01*
X7598000Y-12698500D02*
X7598000Y-12898500D01*
X7498000Y-12798500D02*
X7698000Y-12798500D01*
X8192000Y-12004500D02*
X8392000Y-12204500D01*
X8392000Y-12004500D02*
X8192000Y-12204500D01*
X8292000Y-12004500D02*
X8292000Y-12204500D01*
X8192000Y-12104500D02*
X8392000Y-12104500D01*
X8603000Y-13109500D02*
X8803000Y-13309500D01*
X8803000Y-13109500D02*
X8603000Y-13309500D01*
X8703000Y-13109500D02*
X8703000Y-13309500D01*
X8603000Y-13209500D02*
X8803000Y-13209500D01*
X14476000Y-12698500D02*
X14676000Y-12898500D01*
X14676000Y-12698500D02*
X14476000Y-12898500D01*
X14576000Y-12698500D02*
X14576000Y-12898500D01*
X14476000Y-12798500D02*
X14676000Y-12798500D01*
X15170000Y-12004500D02*
X15370000Y-12204500D01*
X15370000Y-12004500D02*
X15170000Y-12204500D01*
X15270000Y-12004500D02*
X15270000Y-12204500D01*
X15170000Y-12104500D02*
X15370000Y-12104500D01*
X15581000Y-13109500D02*
X15781000Y-13309500D01*
X15781000Y-13109500D02*
X15581000Y-13309500D01*
X15681000Y-13109500D02*
X15681000Y-13309500D01*
X15581000Y-13209500D02*
X15781000Y-13209500D01*
X7498000Y-10423500D02*
X7698000Y-10623500D01*
X7698000Y-10423500D02*
X7498000Y-10623500D01*
X7598000Y-10423500D02*
X7598000Y-10623500D01*
X7498000Y-10523500D02*
X7698000Y-10523500D01*
X8192000Y-9729500D02*
X8392000Y-9929500D01*
X8392000Y-9729500D02*
X8192000Y-9929500D01*
X8292000Y-9729500D02*
X8292000Y-9929500D01*
X8192000Y-9829500D02*
X8392000Y-9829500D01*
X8603000Y-10834500D02*
X8803000Y-11034500D01*
X8803000Y-10834500D02*
X8603000Y-11034500D01*
X8703000Y-10834500D02*
X8703000Y-11034500D01*
X8603000Y-10934500D02*
X8803000Y-10934500D01*
X10825000Y-7455000D02*
X11025000Y-7655000D01*
X11025000Y-7455000D02*
X10825000Y-7655000D01*
X10925000Y-7455000D02*
X10925000Y-7655000D01*
X10825000Y-7555000D02*
X11025000Y-7555000D01*
X12425000Y-7455000D02*
X12625000Y-7655000D01*
X12625000Y-7455000D02*
X12425000Y-7655000D01*
X12525000Y-7455000D02*
X12525000Y-7655000D01*
X12425000Y-7555000D02*
X12625000Y-7555000D01*
X9824000Y-12698500D02*
X10024000Y-12898500D01*
X10024000Y-12698500D02*
X9824000Y-12898500D01*
X9924000Y-12698500D02*
X9924000Y-12898500D01*
X9824000Y-12798500D02*
X10024000Y-12798500D01*
X10518000Y-12004500D02*
X10718000Y-12204500D01*
X10718000Y-12004500D02*
X10518000Y-12204500D01*
X10618000Y-12004500D02*
X10618000Y-12204500D01*
X10518000Y-12104500D02*
X10718000Y-12104500D01*
X10929000Y-13109500D02*
X11129000Y-13309500D01*
X11129000Y-13109500D02*
X10929000Y-13309500D01*
X11029000Y-13109500D02*
X11029000Y-13309500D01*
X10929000Y-13209500D02*
X11129000Y-13209500D01*
X14476000Y-10423500D02*
X14676000Y-10623500D01*
X14676000Y-10423500D02*
X14476000Y-10623500D01*
X14576000Y-10423500D02*
X14576000Y-10623500D01*
X14476000Y-10523500D02*
X14676000Y-10523500D01*
X15170000Y-9729500D02*
X15370000Y-9929500D01*
X15370000Y-9729500D02*
X15170000Y-9929500D01*
X15270000Y-9729500D02*
X15270000Y-9929500D01*
X15170000Y-9829500D02*
X15370000Y-9829500D01*
X15581000Y-10834500D02*
X15781000Y-11034500D01*
X15781000Y-10834500D02*
X15581000Y-11034500D01*
X15681000Y-10834500D02*
X15681000Y-11034500D01*
X15581000Y-10934500D02*
X15781000Y-10934500D01*
X12150000Y-10423500D02*
X12350000Y-10623500D01*
X12350000Y-10423500D02*
X12150000Y-10623500D01*
X12250000Y-10423500D02*
X12250000Y-10623500D01*
X12150000Y-10523500D02*
X12350000Y-10523500D01*
X12844000Y-9729500D02*
X13044000Y-9929500D01*
X13044000Y-9729500D02*
X12844000Y-9929500D01*
X12944000Y-9729500D02*
X12944000Y-9929500D01*
X12844000Y-9829500D02*
X13044000Y-9829500D01*
X13255000Y-10834500D02*
X13455000Y-11034500D01*
X13455000Y-10834500D02*
X13255000Y-11034500D01*
X13355000Y-10834500D02*
X13355000Y-11034500D01*
X13255000Y-10934500D02*
X13455000Y-10934500D01*
X17110000Y-8150000D02*
X17410000Y-8450000D01*
X17410000Y-8150000D02*
X17110000Y-8450000D01*
X17366067Y-8406067D02*
X17366067Y-8193933D01*
X17153933Y-8193933D01*
X17153933Y-8406067D01*
X17366067Y-8406067D01*
X25390000Y-8150000D02*
X25690000Y-8450000D01*
X25690000Y-8150000D02*
X25390000Y-8450000D01*
X25646067Y-8406067D02*
X25646067Y-8193933D01*
X25433933Y-8193933D01*
X25433933Y-8406067D01*
X25646067Y-8406067D01*
X15345000Y-8150000D02*
X15645000Y-8450000D01*
X15645000Y-8150000D02*
X15345000Y-8450000D01*
X15601067Y-8406067D02*
X15601067Y-8193933D01*
X15388933Y-8193933D01*
X15388933Y-8406067D01*
X15601067Y-8406067D01*
X7065000Y-8150000D02*
X7365000Y-8450000D01*
X7365000Y-8150000D02*
X7065000Y-8450000D01*
X7321067Y-8406067D02*
X7321067Y-8193933D01*
X7108933Y-8193933D01*
X7108933Y-8406067D01*
X7321067Y-8406067D01*
X15473000Y-4500000D02*
X15673000Y-4700000D01*
X15673000Y-4500000D02*
X15473000Y-4700000D01*
X15573000Y-4700000D02*
X15673000Y-4600000D01*
X15573000Y-4500000D01*
X15473000Y-4600000D01*
X15573000Y-4700000D01*
X12318000Y-4500000D02*
X12518000Y-4700000D01*
X12518000Y-4500000D02*
X12318000Y-4700000D01*
X12418000Y-4700000D02*
X12518000Y-4600000D01*
X12418000Y-4500000D01*
X12318000Y-4600000D01*
X12418000Y-4700000D01*
X13198000Y-4500000D02*
X13398000Y-4700000D01*
X13398000Y-4500000D02*
X13198000Y-4700000D01*
X13298000Y-4700000D02*
X13398000Y-4600000D01*
X13298000Y-4500000D01*
X13198000Y-4600000D01*
X13298000Y-4700000D01*
X10044000Y-4500000D02*
X10244000Y-4700000D01*
X10244000Y-4500000D02*
X10044000Y-4700000D01*
X10144000Y-4700000D02*
X10244000Y-4600000D01*
X10144000Y-4500000D01*
X10044000Y-4600000D01*
X10144000Y-4700000D01*
X10924000Y-4500000D02*
X11124000Y-4700000D01*
X11124000Y-4500000D02*
X10924000Y-4700000D01*
X11024000Y-4700000D02*
X11124000Y-4600000D01*
X11024000Y-4500000D01*
X10924000Y-4600000D01*
X11024000Y-4700000D01*
X7769000Y-4500000D02*
X7969000Y-4700000D01*
X7969000Y-4500000D02*
X7769000Y-4700000D01*
X7869000Y-4700000D02*
X7969000Y-4600000D01*
X7869000Y-4500000D01*
X7769000Y-4600000D01*
X7869000Y-4700000D01*
X8649000Y-4500000D02*
X8849000Y-4700000D01*
X8849000Y-4500000D02*
X8649000Y-4700000D01*
X8749000Y-4700000D02*
X8849000Y-4600000D01*
X8749000Y-4500000D01*
X8649000Y-4600000D01*
X8749000Y-4700000D01*
X14593000Y-4500000D02*
X14793000Y-4700000D01*
X14793000Y-4500000D02*
X14593000Y-4700000D01*
X14693000Y-4700000D02*
X14793000Y-4600000D01*
X14693000Y-4500000D01*
X14593000Y-4600000D01*
X14693000Y-4700000D01*
D12*
X6981428Y-14810714D02*
X6981428Y-14510714D01*
X7052857Y-14510714D01*
X7095714Y-14525000D01*
X7124286Y-14553571D01*
X7138571Y-14582143D01*
X7152857Y-14639286D01*
X7152857Y-14682143D01*
X7138571Y-14739286D01*
X7124286Y-14767857D01*
X7095714Y-14796429D01*
X7052857Y-14810714D01*
X6981428Y-14810714D01*
X7281428Y-14810714D02*
X7281428Y-14610714D01*
X7281428Y-14667857D02*
X7295714Y-14639286D01*
X7310000Y-14625000D01*
X7338571Y-14610714D01*
X7367143Y-14610714D01*
X7467143Y-14810714D02*
X7467143Y-14610714D01*
X7467143Y-14510714D02*
X7452857Y-14525000D01*
X7467143Y-14539286D01*
X7481428Y-14525000D01*
X7467143Y-14510714D01*
X7467143Y-14539286D01*
X7652857Y-14810714D02*
X7624286Y-14796429D01*
X7610000Y-14767857D01*
X7610000Y-14510714D01*
X7810000Y-14810714D02*
X7781428Y-14796429D01*
X7767143Y-14767857D01*
X7767143Y-14510714D01*
X8152857Y-14810714D02*
X8152857Y-14510714D01*
X8252857Y-14725000D01*
X8352857Y-14510714D01*
X8352857Y-14810714D01*
X8624286Y-14810714D02*
X8624286Y-14653571D01*
X8610000Y-14625000D01*
X8581428Y-14610714D01*
X8524286Y-14610714D01*
X8495714Y-14625000D01*
X8624286Y-14796429D02*
X8595714Y-14810714D01*
X8524286Y-14810714D01*
X8495714Y-14796429D01*
X8481428Y-14767857D01*
X8481428Y-14739286D01*
X8495714Y-14710714D01*
X8524286Y-14696429D01*
X8595714Y-14696429D01*
X8624286Y-14682143D01*
X8767143Y-14610714D02*
X8767143Y-14910714D01*
X8767143Y-14625000D02*
X8795714Y-14610714D01*
X8852857Y-14610714D01*
X8881428Y-14625000D01*
X8895714Y-14639286D01*
X8910000Y-14667857D01*
X8910000Y-14753571D01*
X8895714Y-14782143D01*
X8881428Y-14796429D01*
X8852857Y-14810714D01*
X8795714Y-14810714D01*
X8767143Y-14796429D01*
X9038571Y-14782143D02*
X9052857Y-14796429D01*
X9038571Y-14810714D01*
X9024286Y-14796429D01*
X9038571Y-14782143D01*
X9038571Y-14810714D01*
X9038571Y-14625000D02*
X9052857Y-14639286D01*
X9038571Y-14653571D01*
X9024286Y-14639286D01*
X9038571Y-14625000D01*
X9038571Y-14653571D01*
X6655000Y-15285000D02*
X6695000Y-15325000D01*
X6695000Y-15285000D02*
X6655000Y-15325000D01*
X7038571Y-15140714D02*
X7067143Y-15140714D01*
X7095714Y-15155000D01*
X7110000Y-15169286D01*
X7124286Y-15197857D01*
X7138571Y-15255000D01*
X7138571Y-15326429D01*
X7124286Y-15383571D01*
X7110000Y-15412143D01*
X7095714Y-15426429D01*
X7067143Y-15440714D01*
X7038571Y-15440714D01*
X7010000Y-15426429D01*
X6995714Y-15412143D01*
X6981428Y-15383571D01*
X6967143Y-15326429D01*
X6967143Y-15255000D01*
X6981428Y-15197857D01*
X6995714Y-15169286D01*
X7010000Y-15155000D01*
X7038571Y-15140714D01*
X7267143Y-15412143D02*
X7281428Y-15426429D01*
X7267143Y-15440714D01*
X7252857Y-15426429D01*
X7267143Y-15412143D01*
X7267143Y-15440714D01*
X7538571Y-15240714D02*
X7538571Y-15440714D01*
X7467143Y-15126429D02*
X7395714Y-15340714D01*
X7581428Y-15340714D01*
X7752857Y-15140714D02*
X7781428Y-15140714D01*
X7810000Y-15155000D01*
X7824286Y-15169286D01*
X7838571Y-15197857D01*
X7852857Y-15255000D01*
X7852857Y-15326429D01*
X7838571Y-15383571D01*
X7824286Y-15412143D01*
X7810000Y-15426429D01*
X7781428Y-15440714D01*
X7752857Y-15440714D01*
X7724286Y-15426429D01*
X7710000Y-15412143D01*
X7695714Y-15383571D01*
X7681428Y-15326429D01*
X7681428Y-15255000D01*
X7695714Y-15197857D01*
X7710000Y-15169286D01*
X7724286Y-15155000D01*
X7752857Y-15140714D01*
X7981428Y-15440714D02*
X7981428Y-15240714D01*
X7981428Y-15269286D02*
X7995714Y-15255000D01*
X8024286Y-15240714D01*
X8067143Y-15240714D01*
X8095714Y-15255000D01*
X8110000Y-15283571D01*
X8110000Y-15440714D01*
X8110000Y-15283571D02*
X8124286Y-15255000D01*
X8152857Y-15240714D01*
X8195714Y-15240714D01*
X8224286Y-15255000D01*
X8238571Y-15283571D01*
X8238571Y-15440714D01*
X8381428Y-15440714D02*
X8381428Y-15240714D01*
X8381428Y-15269286D02*
X8395714Y-15255000D01*
X8424286Y-15240714D01*
X8467143Y-15240714D01*
X8495714Y-15255000D01*
X8510000Y-15283571D01*
X8510000Y-15440714D01*
X8510000Y-15283571D02*
X8524286Y-15255000D01*
X8552857Y-15240714D01*
X8595714Y-15240714D01*
X8624286Y-15255000D01*
X8638571Y-15283571D01*
X8638571Y-15440714D01*
X9224286Y-15126429D02*
X8967143Y-15512143D01*
X9610000Y-15140714D02*
X9638571Y-15140714D01*
X9667143Y-15155000D01*
X9681428Y-15169286D01*
X9695714Y-15197857D01*
X9710000Y-15255000D01*
X9710000Y-15326429D01*
X9695714Y-15383571D01*
X9681428Y-15412143D01*
X9667143Y-15426429D01*
X9638571Y-15440714D01*
X9610000Y-15440714D01*
X9581428Y-15426429D01*
X9567143Y-15412143D01*
X9552857Y-15383571D01*
X9538571Y-15326429D01*
X9538571Y-15255000D01*
X9552857Y-15197857D01*
X9567143Y-15169286D01*
X9581428Y-15155000D01*
X9610000Y-15140714D01*
X9838571Y-15412143D02*
X9852857Y-15426429D01*
X9838571Y-15440714D01*
X9824286Y-15426429D01*
X9838571Y-15412143D01*
X9838571Y-15440714D01*
X10038571Y-15140714D02*
X10067143Y-15140714D01*
X10095714Y-15155000D01*
X10110000Y-15169286D01*
X10124286Y-15197857D01*
X10138571Y-15255000D01*
X10138571Y-15326429D01*
X10124286Y-15383571D01*
X10110000Y-15412143D01*
X10095714Y-15426429D01*
X10067143Y-15440714D01*
X10038571Y-15440714D01*
X10010000Y-15426429D01*
X9995714Y-15412143D01*
X9981428Y-15383571D01*
X9967143Y-15326429D01*
X9967143Y-15255000D01*
X9981428Y-15197857D01*
X9995714Y-15169286D01*
X10010000Y-15155000D01*
X10038571Y-15140714D01*
X10424286Y-15440714D02*
X10252857Y-15440714D01*
X10338571Y-15440714D02*
X10338571Y-15140714D01*
X10310000Y-15183571D01*
X10281428Y-15212143D01*
X10252857Y-15226429D01*
X10681428Y-15140714D02*
X10624286Y-15140714D01*
X10595714Y-15155000D01*
X10581428Y-15169286D01*
X10552857Y-15212143D01*
X10538571Y-15269286D01*
X10538571Y-15383571D01*
X10552857Y-15412143D01*
X10567143Y-15426429D01*
X10595714Y-15440714D01*
X10652857Y-15440714D01*
X10681428Y-15426429D01*
X10695714Y-15412143D01*
X10710000Y-15383571D01*
X10710000Y-15312143D01*
X10695714Y-15283571D01*
X10681428Y-15269286D01*
X10652857Y-15255000D01*
X10595714Y-15255000D01*
X10567143Y-15269286D01*
X10552857Y-15283571D01*
X10538571Y-15312143D01*
X10824286Y-15140714D02*
X10824286Y-15197857D01*
X10938571Y-15140714D02*
X10938571Y-15197857D01*
X11381428Y-15555000D02*
X11367143Y-15540714D01*
X11338571Y-15497857D01*
X11324286Y-15469286D01*
X11310000Y-15426429D01*
X11295714Y-15355000D01*
X11295714Y-15297857D01*
X11310000Y-15226429D01*
X11324286Y-15183571D01*
X11338571Y-15155000D01*
X11367143Y-15112143D01*
X11381428Y-15097857D01*
X11624286Y-15240714D02*
X11624286Y-15440714D01*
X11552857Y-15126429D02*
X11481428Y-15340714D01*
X11667143Y-15340714D01*
X11910000Y-15140714D02*
X11852857Y-15140714D01*
X11824286Y-15155000D01*
X11810000Y-15169286D01*
X11781428Y-15212143D01*
X11767143Y-15269286D01*
X11767143Y-15383571D01*
X11781428Y-15412143D01*
X11795714Y-15426429D01*
X11824286Y-15440714D01*
X11881428Y-15440714D01*
X11910000Y-15426429D01*
X11924286Y-15412143D01*
X11938571Y-15383571D01*
X11938571Y-15312143D01*
X11924286Y-15283571D01*
X11910000Y-15269286D01*
X11881428Y-15255000D01*
X11824286Y-15255000D01*
X11795714Y-15269286D01*
X11781428Y-15283571D01*
X11767143Y-15312143D01*
X12081428Y-15440714D02*
X12138571Y-15440714D01*
X12167143Y-15426429D01*
X12181428Y-15412143D01*
X12210000Y-15369286D01*
X12224286Y-15312143D01*
X12224286Y-15197857D01*
X12210000Y-15169286D01*
X12195714Y-15155000D01*
X12167143Y-15140714D01*
X12110000Y-15140714D01*
X12081428Y-15155000D01*
X12067143Y-15169286D01*
X12052857Y-15197857D01*
X12052857Y-15269286D01*
X12067143Y-15297857D01*
X12081428Y-15312143D01*
X12110000Y-15326429D01*
X12167143Y-15326429D01*
X12195714Y-15312143D01*
X12210000Y-15297857D01*
X12224286Y-15269286D01*
X12581428Y-15440714D02*
X12581428Y-15140714D01*
X12710000Y-15440714D02*
X12710000Y-15283571D01*
X12695714Y-15255000D01*
X12667143Y-15240714D01*
X12624286Y-15240714D01*
X12595714Y-15255000D01*
X12581428Y-15269286D01*
X12895714Y-15440714D02*
X12867143Y-15426429D01*
X12852857Y-15412143D01*
X12838571Y-15383571D01*
X12838571Y-15297857D01*
X12852857Y-15269286D01*
X12867143Y-15255000D01*
X12895714Y-15240714D01*
X12938571Y-15240714D01*
X12967143Y-15255000D01*
X12981428Y-15269286D01*
X12995714Y-15297857D01*
X12995714Y-15383571D01*
X12981428Y-15412143D01*
X12967143Y-15426429D01*
X12938571Y-15440714D01*
X12895714Y-15440714D01*
X13167143Y-15440714D02*
X13138571Y-15426429D01*
X13124286Y-15397857D01*
X13124286Y-15140714D01*
X13395714Y-15426429D02*
X13367143Y-15440714D01*
X13310000Y-15440714D01*
X13281428Y-15426429D01*
X13267143Y-15397857D01*
X13267143Y-15283571D01*
X13281428Y-15255000D01*
X13310000Y-15240714D01*
X13367143Y-15240714D01*
X13395714Y-15255000D01*
X13410000Y-15283571D01*
X13410000Y-15312143D01*
X13267143Y-15340714D01*
X13524286Y-15426429D02*
X13552857Y-15440714D01*
X13610000Y-15440714D01*
X13638571Y-15426429D01*
X13652857Y-15397857D01*
X13652857Y-15383571D01*
X13638571Y-15355000D01*
X13610000Y-15340714D01*
X13567143Y-15340714D01*
X13538571Y-15326429D01*
X13524286Y-15297857D01*
X13524286Y-15283571D01*
X13538571Y-15255000D01*
X13567143Y-15240714D01*
X13610000Y-15240714D01*
X13638571Y-15255000D01*
X13752857Y-15555000D02*
X13767143Y-15540714D01*
X13795714Y-15497857D01*
X13810000Y-15469286D01*
X13824286Y-15426429D01*
X13838571Y-15355000D01*
X13838571Y-15297857D01*
X13824286Y-15226429D01*
X13810000Y-15183571D01*
X13795714Y-15155000D01*
X13767143Y-15112143D01*
X13752857Y-15097857D01*
X6695000Y-15701000D02*
G75*
G03*
X6695000Y-15701000I-37500J0D01*
G01*
X7038571Y-15536714D02*
X7067143Y-15536714D01*
X7095714Y-15551000D01*
X7110000Y-15565286D01*
X7124286Y-15593857D01*
X7138571Y-15651000D01*
X7138571Y-15722429D01*
X7124286Y-15779571D01*
X7110000Y-15808143D01*
X7095714Y-15822429D01*
X7067143Y-15836714D01*
X7038571Y-15836714D01*
X7010000Y-15822429D01*
X6995714Y-15808143D01*
X6981428Y-15779571D01*
X6967143Y-15722429D01*
X6967143Y-15651000D01*
X6981428Y-15593857D01*
X6995714Y-15565286D01*
X7010000Y-15551000D01*
X7038571Y-15536714D01*
X7267143Y-15808143D02*
X7281428Y-15822429D01*
X7267143Y-15836714D01*
X7252857Y-15822429D01*
X7267143Y-15808143D01*
X7267143Y-15836714D01*
X7381428Y-15536714D02*
X7581428Y-15536714D01*
X7452857Y-15836714D01*
X7838571Y-15536714D02*
X7695714Y-15536714D01*
X7681428Y-15679571D01*
X7695714Y-15665286D01*
X7724286Y-15651000D01*
X7795714Y-15651000D01*
X7824286Y-15665286D01*
X7838571Y-15679571D01*
X7852857Y-15708143D01*
X7852857Y-15779571D01*
X7838571Y-15808143D01*
X7824286Y-15822429D01*
X7795714Y-15836714D01*
X7724286Y-15836714D01*
X7695714Y-15822429D01*
X7681428Y-15808143D01*
X7981428Y-15836714D02*
X7981428Y-15636714D01*
X7981428Y-15665286D02*
X7995714Y-15651000D01*
X8024286Y-15636714D01*
X8067143Y-15636714D01*
X8095714Y-15651000D01*
X8110000Y-15679571D01*
X8110000Y-15836714D01*
X8110000Y-15679571D02*
X8124286Y-15651000D01*
X8152857Y-15636714D01*
X8195714Y-15636714D01*
X8224286Y-15651000D01*
X8238571Y-15679571D01*
X8238571Y-15836714D01*
X8381428Y-15836714D02*
X8381428Y-15636714D01*
X8381428Y-15665286D02*
X8395714Y-15651000D01*
X8424286Y-15636714D01*
X8467143Y-15636714D01*
X8495714Y-15651000D01*
X8510000Y-15679571D01*
X8510000Y-15836714D01*
X8510000Y-15679571D02*
X8524286Y-15651000D01*
X8552857Y-15636714D01*
X8595714Y-15636714D01*
X8624286Y-15651000D01*
X8638571Y-15679571D01*
X8638571Y-15836714D01*
X9224286Y-15522429D02*
X8967143Y-15908143D01*
X9610000Y-15536714D02*
X9638571Y-15536714D01*
X9667143Y-15551000D01*
X9681428Y-15565286D01*
X9695714Y-15593857D01*
X9710000Y-15651000D01*
X9710000Y-15722429D01*
X9695714Y-15779571D01*
X9681428Y-15808143D01*
X9667143Y-15822429D01*
X9638571Y-15836714D01*
X9610000Y-15836714D01*
X9581428Y-15822429D01*
X9567143Y-15808143D01*
X9552857Y-15779571D01*
X9538571Y-15722429D01*
X9538571Y-15651000D01*
X9552857Y-15593857D01*
X9567143Y-15565286D01*
X9581428Y-15551000D01*
X9610000Y-15536714D01*
X9838571Y-15808143D02*
X9852857Y-15822429D01*
X9838571Y-15836714D01*
X9824286Y-15822429D01*
X9838571Y-15808143D01*
X9838571Y-15836714D01*
X10038571Y-15536714D02*
X10067143Y-15536714D01*
X10095714Y-15551000D01*
X10110000Y-15565286D01*
X10124286Y-15593857D01*
X10138571Y-15651000D01*
X10138571Y-15722429D01*
X10124286Y-15779571D01*
X10110000Y-15808143D01*
X10095714Y-15822429D01*
X10067143Y-15836714D01*
X10038571Y-15836714D01*
X10010000Y-15822429D01*
X9995714Y-15808143D01*
X9981428Y-15779571D01*
X9967143Y-15722429D01*
X9967143Y-15651000D01*
X9981428Y-15593857D01*
X9995714Y-15565286D01*
X10010000Y-15551000D01*
X10038571Y-15536714D01*
X10238571Y-15536714D02*
X10424286Y-15536714D01*
X10324286Y-15651000D01*
X10367143Y-15651000D01*
X10395714Y-15665286D01*
X10410000Y-15679571D01*
X10424286Y-15708143D01*
X10424286Y-15779571D01*
X10410000Y-15808143D01*
X10395714Y-15822429D01*
X10367143Y-15836714D01*
X10281428Y-15836714D01*
X10252857Y-15822429D01*
X10238571Y-15808143D01*
X10610000Y-15536714D02*
X10638571Y-15536714D01*
X10667143Y-15551000D01*
X10681428Y-15565286D01*
X10695714Y-15593857D01*
X10710000Y-15651000D01*
X10710000Y-15722429D01*
X10695714Y-15779571D01*
X10681428Y-15808143D01*
X10667143Y-15822429D01*
X10638571Y-15836714D01*
X10610000Y-15836714D01*
X10581428Y-15822429D01*
X10567143Y-15808143D01*
X10552857Y-15779571D01*
X10538571Y-15722429D01*
X10538571Y-15651000D01*
X10552857Y-15593857D01*
X10567143Y-15565286D01*
X10581428Y-15551000D01*
X10610000Y-15536714D01*
X10824286Y-15536714D02*
X10824286Y-15593857D01*
X10938571Y-15536714D02*
X10938571Y-15593857D01*
X11381428Y-15951000D02*
X11367143Y-15936714D01*
X11338571Y-15893857D01*
X11324286Y-15865286D01*
X11310000Y-15822429D01*
X11295714Y-15751000D01*
X11295714Y-15693857D01*
X11310000Y-15622429D01*
X11324286Y-15579571D01*
X11338571Y-15551000D01*
X11367143Y-15508143D01*
X11381428Y-15493857D01*
X11481428Y-15565286D02*
X11495714Y-15551000D01*
X11524286Y-15536714D01*
X11595714Y-15536714D01*
X11624286Y-15551000D01*
X11638571Y-15565286D01*
X11652857Y-15593857D01*
X11652857Y-15622429D01*
X11638571Y-15665286D01*
X11467143Y-15836714D01*
X11652857Y-15836714D01*
X11938571Y-15836714D02*
X11767143Y-15836714D01*
X11852857Y-15836714D02*
X11852857Y-15536714D01*
X11824286Y-15579571D01*
X11795714Y-15608143D01*
X11767143Y-15622429D01*
X12295714Y-15836714D02*
X12295714Y-15536714D01*
X12424286Y-15836714D02*
X12424286Y-15679571D01*
X12410000Y-15651000D01*
X12381428Y-15636714D01*
X12338571Y-15636714D01*
X12310000Y-15651000D01*
X12295714Y-15665286D01*
X12610000Y-15836714D02*
X12581428Y-15822429D01*
X12567143Y-15808143D01*
X12552857Y-15779571D01*
X12552857Y-15693857D01*
X12567143Y-15665286D01*
X12581428Y-15651000D01*
X12610000Y-15636714D01*
X12652857Y-15636714D01*
X12681428Y-15651000D01*
X12695714Y-15665286D01*
X12710000Y-15693857D01*
X12710000Y-15779571D01*
X12695714Y-15808143D01*
X12681428Y-15822429D01*
X12652857Y-15836714D01*
X12610000Y-15836714D01*
X12881428Y-15836714D02*
X12852857Y-15822429D01*
X12838571Y-15793857D01*
X12838571Y-15536714D01*
X13110000Y-15822429D02*
X13081428Y-15836714D01*
X13024286Y-15836714D01*
X12995714Y-15822429D01*
X12981428Y-15793857D01*
X12981428Y-15679571D01*
X12995714Y-15651000D01*
X13024286Y-15636714D01*
X13081428Y-15636714D01*
X13110000Y-15651000D01*
X13124286Y-15679571D01*
X13124286Y-15708143D01*
X12981428Y-15736714D01*
X13238571Y-15822429D02*
X13267143Y-15836714D01*
X13324286Y-15836714D01*
X13352857Y-15822429D01*
X13367143Y-15793857D01*
X13367143Y-15779571D01*
X13352857Y-15751000D01*
X13324286Y-15736714D01*
X13281428Y-15736714D01*
X13252857Y-15722429D01*
X13238571Y-15693857D01*
X13238571Y-15679571D01*
X13252857Y-15651000D01*
X13281428Y-15636714D01*
X13324286Y-15636714D01*
X13352857Y-15651000D01*
X13467143Y-15951000D02*
X13481428Y-15936714D01*
X13510000Y-15893857D01*
X13524286Y-15865286D01*
X13538571Y-15822429D01*
X13552857Y-15751000D01*
X13552857Y-15693857D01*
X13538571Y-15622429D01*
X13524286Y-15579571D01*
X13510000Y-15551000D01*
X13481428Y-15508143D01*
X13467143Y-15493857D01*
X6655000Y-16057000D02*
X6655000Y-16137000D01*
X6615000Y-16097000D02*
X6695000Y-16097000D01*
X7038571Y-15932714D02*
X7067143Y-15932714D01*
X7095714Y-15947000D01*
X7110000Y-15961286D01*
X7124286Y-15989857D01*
X7138571Y-16047000D01*
X7138571Y-16118429D01*
X7124286Y-16175571D01*
X7110000Y-16204143D01*
X7095714Y-16218429D01*
X7067143Y-16232714D01*
X7038571Y-16232714D01*
X7010000Y-16218429D01*
X6995714Y-16204143D01*
X6981428Y-16175571D01*
X6967143Y-16118429D01*
X6967143Y-16047000D01*
X6981428Y-15989857D01*
X6995714Y-15961286D01*
X7010000Y-15947000D01*
X7038571Y-15932714D01*
X7267143Y-16204143D02*
X7281428Y-16218429D01*
X7267143Y-16232714D01*
X7252857Y-16218429D01*
X7267143Y-16204143D01*
X7267143Y-16232714D01*
X7452857Y-16061286D02*
X7424286Y-16047000D01*
X7410000Y-16032714D01*
X7395714Y-16004143D01*
X7395714Y-15989857D01*
X7410000Y-15961286D01*
X7424286Y-15947000D01*
X7452857Y-15932714D01*
X7510000Y-15932714D01*
X7538571Y-15947000D01*
X7552857Y-15961286D01*
X7567143Y-15989857D01*
X7567143Y-16004143D01*
X7552857Y-16032714D01*
X7538571Y-16047000D01*
X7510000Y-16061286D01*
X7452857Y-16061286D01*
X7424286Y-16075571D01*
X7410000Y-16089857D01*
X7395714Y-16118429D01*
X7395714Y-16175571D01*
X7410000Y-16204143D01*
X7424286Y-16218429D01*
X7452857Y-16232714D01*
X7510000Y-16232714D01*
X7538571Y-16218429D01*
X7552857Y-16204143D01*
X7567143Y-16175571D01*
X7567143Y-16118429D01*
X7552857Y-16089857D01*
X7538571Y-16075571D01*
X7510000Y-16061286D01*
X7752857Y-15932714D02*
X7781428Y-15932714D01*
X7810000Y-15947000D01*
X7824286Y-15961286D01*
X7838571Y-15989857D01*
X7852857Y-16047000D01*
X7852857Y-16118429D01*
X7838571Y-16175571D01*
X7824286Y-16204143D01*
X7810000Y-16218429D01*
X7781428Y-16232714D01*
X7752857Y-16232714D01*
X7724286Y-16218429D01*
X7710000Y-16204143D01*
X7695714Y-16175571D01*
X7681428Y-16118429D01*
X7681428Y-16047000D01*
X7695714Y-15989857D01*
X7710000Y-15961286D01*
X7724286Y-15947000D01*
X7752857Y-15932714D01*
X7981428Y-16232714D02*
X7981428Y-16032714D01*
X7981428Y-16061286D02*
X7995714Y-16047000D01*
X8024286Y-16032714D01*
X8067143Y-16032714D01*
X8095714Y-16047000D01*
X8110000Y-16075571D01*
X8110000Y-16232714D01*
X8110000Y-16075571D02*
X8124286Y-16047000D01*
X8152857Y-16032714D01*
X8195714Y-16032714D01*
X8224286Y-16047000D01*
X8238571Y-16075571D01*
X8238571Y-16232714D01*
X8381428Y-16232714D02*
X8381428Y-16032714D01*
X8381428Y-16061286D02*
X8395714Y-16047000D01*
X8424286Y-16032714D01*
X8467143Y-16032714D01*
X8495714Y-16047000D01*
X8510000Y-16075571D01*
X8510000Y-16232714D01*
X8510000Y-16075571D02*
X8524286Y-16047000D01*
X8552857Y-16032714D01*
X8595714Y-16032714D01*
X8624286Y-16047000D01*
X8638571Y-16075571D01*
X8638571Y-16232714D01*
X9224286Y-15918429D02*
X8967143Y-16304143D01*
X9610000Y-15932714D02*
X9638571Y-15932714D01*
X9667143Y-15947000D01*
X9681428Y-15961286D01*
X9695714Y-15989857D01*
X9710000Y-16047000D01*
X9710000Y-16118429D01*
X9695714Y-16175571D01*
X9681428Y-16204143D01*
X9667143Y-16218429D01*
X9638571Y-16232714D01*
X9610000Y-16232714D01*
X9581428Y-16218429D01*
X9567143Y-16204143D01*
X9552857Y-16175571D01*
X9538571Y-16118429D01*
X9538571Y-16047000D01*
X9552857Y-15989857D01*
X9567143Y-15961286D01*
X9581428Y-15947000D01*
X9610000Y-15932714D01*
X9838571Y-16204143D02*
X9852857Y-16218429D01*
X9838571Y-16232714D01*
X9824286Y-16218429D01*
X9838571Y-16204143D01*
X9838571Y-16232714D01*
X10038571Y-15932714D02*
X10067143Y-15932714D01*
X10095714Y-15947000D01*
X10110000Y-15961286D01*
X10124286Y-15989857D01*
X10138571Y-16047000D01*
X10138571Y-16118429D01*
X10124286Y-16175571D01*
X10110000Y-16204143D01*
X10095714Y-16218429D01*
X10067143Y-16232714D01*
X10038571Y-16232714D01*
X10010000Y-16218429D01*
X9995714Y-16204143D01*
X9981428Y-16175571D01*
X9967143Y-16118429D01*
X9967143Y-16047000D01*
X9981428Y-15989857D01*
X9995714Y-15961286D01*
X10010000Y-15947000D01*
X10038571Y-15932714D01*
X10238571Y-15932714D02*
X10424286Y-15932714D01*
X10324286Y-16047000D01*
X10367143Y-16047000D01*
X10395714Y-16061286D01*
X10410000Y-16075571D01*
X10424286Y-16104143D01*
X10424286Y-16175571D01*
X10410000Y-16204143D01*
X10395714Y-16218429D01*
X10367143Y-16232714D01*
X10281428Y-16232714D01*
X10252857Y-16218429D01*
X10238571Y-16204143D01*
X10710000Y-16232714D02*
X10538571Y-16232714D01*
X10624286Y-16232714D02*
X10624286Y-15932714D01*
X10595714Y-15975571D01*
X10567143Y-16004143D01*
X10538571Y-16018429D01*
X10824286Y-15932714D02*
X10824286Y-15989857D01*
X10938571Y-15932714D02*
X10938571Y-15989857D01*
X11381428Y-16347000D02*
X11367143Y-16332714D01*
X11338571Y-16289857D01*
X11324286Y-16261286D01*
X11310000Y-16218429D01*
X11295714Y-16147000D01*
X11295714Y-16089857D01*
X11310000Y-16018429D01*
X11324286Y-15975571D01*
X11338571Y-15947000D01*
X11367143Y-15904143D01*
X11381428Y-15889857D01*
X11638571Y-15932714D02*
X11495714Y-15932714D01*
X11481428Y-16075571D01*
X11495714Y-16061286D01*
X11524286Y-16047000D01*
X11595714Y-16047000D01*
X11624286Y-16061286D01*
X11638571Y-16075571D01*
X11652857Y-16104143D01*
X11652857Y-16175571D01*
X11638571Y-16204143D01*
X11624286Y-16218429D01*
X11595714Y-16232714D01*
X11524286Y-16232714D01*
X11495714Y-16218429D01*
X11481428Y-16204143D01*
X11838571Y-15932714D02*
X11867143Y-15932714D01*
X11895714Y-15947000D01*
X11910000Y-15961286D01*
X11924286Y-15989857D01*
X11938571Y-16047000D01*
X11938571Y-16118429D01*
X11924286Y-16175571D01*
X11910000Y-16204143D01*
X11895714Y-16218429D01*
X11867143Y-16232714D01*
X11838571Y-16232714D01*
X11810000Y-16218429D01*
X11795714Y-16204143D01*
X11781428Y-16175571D01*
X11767143Y-16118429D01*
X11767143Y-16047000D01*
X11781428Y-15989857D01*
X11795714Y-15961286D01*
X11810000Y-15947000D01*
X11838571Y-15932714D01*
X12195714Y-16032714D02*
X12195714Y-16232714D01*
X12124286Y-15918429D02*
X12052857Y-16132714D01*
X12238571Y-16132714D01*
X12581428Y-16232714D02*
X12581428Y-15932714D01*
X12710000Y-16232714D02*
X12710000Y-16075571D01*
X12695714Y-16047000D01*
X12667143Y-16032714D01*
X12624286Y-16032714D01*
X12595714Y-16047000D01*
X12581428Y-16061286D01*
X12895714Y-16232714D02*
X12867143Y-16218429D01*
X12852857Y-16204143D01*
X12838571Y-16175571D01*
X12838571Y-16089857D01*
X12852857Y-16061286D01*
X12867143Y-16047000D01*
X12895714Y-16032714D01*
X12938571Y-16032714D01*
X12967143Y-16047000D01*
X12981428Y-16061286D01*
X12995714Y-16089857D01*
X12995714Y-16175571D01*
X12981428Y-16204143D01*
X12967143Y-16218429D01*
X12938571Y-16232714D01*
X12895714Y-16232714D01*
X13167143Y-16232714D02*
X13138571Y-16218429D01*
X13124286Y-16189857D01*
X13124286Y-15932714D01*
X13395714Y-16218429D02*
X13367143Y-16232714D01*
X13310000Y-16232714D01*
X13281428Y-16218429D01*
X13267143Y-16189857D01*
X13267143Y-16075571D01*
X13281428Y-16047000D01*
X13310000Y-16032714D01*
X13367143Y-16032714D01*
X13395714Y-16047000D01*
X13410000Y-16075571D01*
X13410000Y-16104143D01*
X13267143Y-16132714D01*
X13524286Y-16218429D02*
X13552857Y-16232714D01*
X13610000Y-16232714D01*
X13638571Y-16218429D01*
X13652857Y-16189857D01*
X13652857Y-16175571D01*
X13638571Y-16147000D01*
X13610000Y-16132714D01*
X13567143Y-16132714D01*
X13538571Y-16118429D01*
X13524286Y-16089857D01*
X13524286Y-16075571D01*
X13538571Y-16047000D01*
X13567143Y-16032714D01*
X13610000Y-16032714D01*
X13638571Y-16047000D01*
X13752857Y-16347000D02*
X13767143Y-16332714D01*
X13795714Y-16289857D01*
X13810000Y-16261286D01*
X13824286Y-16218429D01*
X13838571Y-16147000D01*
X13838571Y-16089857D01*
X13824286Y-16018429D01*
X13810000Y-15975571D01*
X13795714Y-15947000D01*
X13767143Y-15904143D01*
X13752857Y-15889857D01*
X6681820Y-16524820D02*
X6681820Y-16461180D01*
X6618180Y-16461180D01*
X6618180Y-16524820D01*
X6681820Y-16524820D01*
X7038571Y-16328714D02*
X7067143Y-16328714D01*
X7095714Y-16343000D01*
X7110000Y-16357286D01*
X7124286Y-16385857D01*
X7138571Y-16443000D01*
X7138571Y-16514429D01*
X7124286Y-16571571D01*
X7110000Y-16600143D01*
X7095714Y-16614429D01*
X7067143Y-16628714D01*
X7038571Y-16628714D01*
X7010000Y-16614429D01*
X6995714Y-16600143D01*
X6981428Y-16571571D01*
X6967143Y-16514429D01*
X6967143Y-16443000D01*
X6981428Y-16385857D01*
X6995714Y-16357286D01*
X7010000Y-16343000D01*
X7038571Y-16328714D01*
X7267143Y-16600143D02*
X7281428Y-16614429D01*
X7267143Y-16628714D01*
X7252857Y-16614429D01*
X7267143Y-16600143D01*
X7267143Y-16628714D01*
X7424286Y-16628714D02*
X7481428Y-16628714D01*
X7510000Y-16614429D01*
X7524286Y-16600143D01*
X7552857Y-16557286D01*
X7567143Y-16500143D01*
X7567143Y-16385857D01*
X7552857Y-16357286D01*
X7538571Y-16343000D01*
X7510000Y-16328714D01*
X7452857Y-16328714D01*
X7424286Y-16343000D01*
X7410000Y-16357286D01*
X7395714Y-16385857D01*
X7395714Y-16457286D01*
X7410000Y-16485857D01*
X7424286Y-16500143D01*
X7452857Y-16514429D01*
X7510000Y-16514429D01*
X7538571Y-16500143D01*
X7552857Y-16485857D01*
X7567143Y-16457286D01*
X7752857Y-16328714D02*
X7781428Y-16328714D01*
X7810000Y-16343000D01*
X7824286Y-16357286D01*
X7838571Y-16385857D01*
X7852857Y-16443000D01*
X7852857Y-16514429D01*
X7838571Y-16571571D01*
X7824286Y-16600143D01*
X7810000Y-16614429D01*
X7781428Y-16628714D01*
X7752857Y-16628714D01*
X7724286Y-16614429D01*
X7710000Y-16600143D01*
X7695714Y-16571571D01*
X7681428Y-16514429D01*
X7681428Y-16443000D01*
X7695714Y-16385857D01*
X7710000Y-16357286D01*
X7724286Y-16343000D01*
X7752857Y-16328714D01*
X7981428Y-16628714D02*
X7981428Y-16428714D01*
X7981428Y-16457286D02*
X7995714Y-16443000D01*
X8024286Y-16428714D01*
X8067143Y-16428714D01*
X8095714Y-16443000D01*
X8110000Y-16471571D01*
X8110000Y-16628714D01*
X8110000Y-16471571D02*
X8124286Y-16443000D01*
X8152857Y-16428714D01*
X8195714Y-16428714D01*
X8224286Y-16443000D01*
X8238571Y-16471571D01*
X8238571Y-16628714D01*
X8381428Y-16628714D02*
X8381428Y-16428714D01*
X8381428Y-16457286D02*
X8395714Y-16443000D01*
X8424286Y-16428714D01*
X8467143Y-16428714D01*
X8495714Y-16443000D01*
X8510000Y-16471571D01*
X8510000Y-16628714D01*
X8510000Y-16471571D02*
X8524286Y-16443000D01*
X8552857Y-16428714D01*
X8595714Y-16428714D01*
X8624286Y-16443000D01*
X8638571Y-16471571D01*
X8638571Y-16628714D01*
X9224286Y-16314429D02*
X8967143Y-16700143D01*
X9610000Y-16328714D02*
X9638571Y-16328714D01*
X9667143Y-16343000D01*
X9681428Y-16357286D01*
X9695714Y-16385857D01*
X9710000Y-16443000D01*
X9710000Y-16514429D01*
X9695714Y-16571571D01*
X9681428Y-16600143D01*
X9667143Y-16614429D01*
X9638571Y-16628714D01*
X9610000Y-16628714D01*
X9581428Y-16614429D01*
X9567143Y-16600143D01*
X9552857Y-16571571D01*
X9538571Y-16514429D01*
X9538571Y-16443000D01*
X9552857Y-16385857D01*
X9567143Y-16357286D01*
X9581428Y-16343000D01*
X9610000Y-16328714D01*
X9838571Y-16600143D02*
X9852857Y-16614429D01*
X9838571Y-16628714D01*
X9824286Y-16614429D01*
X9838571Y-16600143D01*
X9838571Y-16628714D01*
X10038571Y-16328714D02*
X10067143Y-16328714D01*
X10095714Y-16343000D01*
X10110000Y-16357286D01*
X10124286Y-16385857D01*
X10138571Y-16443000D01*
X10138571Y-16514429D01*
X10124286Y-16571571D01*
X10110000Y-16600143D01*
X10095714Y-16614429D01*
X10067143Y-16628714D01*
X10038571Y-16628714D01*
X10010000Y-16614429D01*
X9995714Y-16600143D01*
X9981428Y-16571571D01*
X9967143Y-16514429D01*
X9967143Y-16443000D01*
X9981428Y-16385857D01*
X9995714Y-16357286D01*
X10010000Y-16343000D01*
X10038571Y-16328714D01*
X10238571Y-16328714D02*
X10424286Y-16328714D01*
X10324286Y-16443000D01*
X10367143Y-16443000D01*
X10395714Y-16457286D01*
X10410000Y-16471571D01*
X10424286Y-16500143D01*
X10424286Y-16571571D01*
X10410000Y-16600143D01*
X10395714Y-16614429D01*
X10367143Y-16628714D01*
X10281428Y-16628714D01*
X10252857Y-16614429D01*
X10238571Y-16600143D01*
X10695714Y-16328714D02*
X10552857Y-16328714D01*
X10538571Y-16471571D01*
X10552857Y-16457286D01*
X10581428Y-16443000D01*
X10652857Y-16443000D01*
X10681428Y-16457286D01*
X10695714Y-16471571D01*
X10710000Y-16500143D01*
X10710000Y-16571571D01*
X10695714Y-16600143D01*
X10681428Y-16614429D01*
X10652857Y-16628714D01*
X10581428Y-16628714D01*
X10552857Y-16614429D01*
X10538571Y-16600143D01*
X10824286Y-16328714D02*
X10824286Y-16385857D01*
X10938571Y-16328714D02*
X10938571Y-16385857D01*
X11381428Y-16743000D02*
X11367143Y-16728714D01*
X11338571Y-16685857D01*
X11324286Y-16657286D01*
X11310000Y-16614429D01*
X11295714Y-16543000D01*
X11295714Y-16485857D01*
X11310000Y-16414429D01*
X11324286Y-16371571D01*
X11338571Y-16343000D01*
X11367143Y-16300143D01*
X11381428Y-16285857D01*
X11652857Y-16628714D02*
X11481428Y-16628714D01*
X11567143Y-16628714D02*
X11567143Y-16328714D01*
X11538571Y-16371571D01*
X11510000Y-16400143D01*
X11481428Y-16414429D01*
X11910000Y-16428714D02*
X11910000Y-16628714D01*
X11838571Y-16314429D02*
X11767143Y-16528714D01*
X11952857Y-16528714D01*
X12295714Y-16628714D02*
X12295714Y-16328714D01*
X12424286Y-16628714D02*
X12424286Y-16471571D01*
X12410000Y-16443000D01*
X12381428Y-16428714D01*
X12338571Y-16428714D01*
X12310000Y-16443000D01*
X12295714Y-16457286D01*
X12610000Y-16628714D02*
X12581428Y-16614429D01*
X12567143Y-16600143D01*
X12552857Y-16571571D01*
X12552857Y-16485857D01*
X12567143Y-16457286D01*
X12581428Y-16443000D01*
X12610000Y-16428714D01*
X12652857Y-16428714D01*
X12681428Y-16443000D01*
X12695714Y-16457286D01*
X12710000Y-16485857D01*
X12710000Y-16571571D01*
X12695714Y-16600143D01*
X12681428Y-16614429D01*
X12652857Y-16628714D01*
X12610000Y-16628714D01*
X12881428Y-16628714D02*
X12852857Y-16614429D01*
X12838571Y-16585857D01*
X12838571Y-16328714D01*
X13110000Y-16614429D02*
X13081428Y-16628714D01*
X13024286Y-16628714D01*
X12995714Y-16614429D01*
X12981428Y-16585857D01*
X12981428Y-16471571D01*
X12995714Y-16443000D01*
X13024286Y-16428714D01*
X13081428Y-16428714D01*
X13110000Y-16443000D01*
X13124286Y-16471571D01*
X13124286Y-16500143D01*
X12981428Y-16528714D01*
X13238571Y-16614429D02*
X13267143Y-16628714D01*
X13324286Y-16628714D01*
X13352857Y-16614429D01*
X13367143Y-16585857D01*
X13367143Y-16571571D01*
X13352857Y-16543000D01*
X13324286Y-16528714D01*
X13281428Y-16528714D01*
X13252857Y-16514429D01*
X13238571Y-16485857D01*
X13238571Y-16471571D01*
X13252857Y-16443000D01*
X13281428Y-16428714D01*
X13324286Y-16428714D01*
X13352857Y-16443000D01*
X13467143Y-16743000D02*
X13481428Y-16728714D01*
X13510000Y-16685857D01*
X13524286Y-16657286D01*
X13538571Y-16614429D01*
X13552857Y-16543000D01*
X13552857Y-16485857D01*
X13538571Y-16414429D01*
X13524286Y-16371571D01*
X13510000Y-16343000D01*
X13481428Y-16300143D01*
X13467143Y-16285857D01*
X6645000Y-16939000D02*
X6695000Y-16889000D01*
X6645000Y-16839000D01*
X6595000Y-16889000D01*
X6645000Y-16939000D01*
X7138571Y-17024714D02*
X6967143Y-17024714D01*
X7052857Y-17024714D02*
X7052857Y-16724714D01*
X7024286Y-16767571D01*
X6995714Y-16796143D01*
X6967143Y-16810429D01*
X7267143Y-16996143D02*
X7281428Y-17010429D01*
X7267143Y-17024714D01*
X7252857Y-17010429D01*
X7267143Y-16996143D01*
X7267143Y-17024714D01*
X7467143Y-16724714D02*
X7495714Y-16724714D01*
X7524286Y-16739000D01*
X7538571Y-16753286D01*
X7552857Y-16781857D01*
X7567143Y-16839000D01*
X7567143Y-16910429D01*
X7552857Y-16967572D01*
X7538571Y-16996143D01*
X7524286Y-17010429D01*
X7495714Y-17024714D01*
X7467143Y-17024714D01*
X7438571Y-17010429D01*
X7424286Y-16996143D01*
X7410000Y-16967572D01*
X7395714Y-16910429D01*
X7395714Y-16839000D01*
X7410000Y-16781857D01*
X7424286Y-16753286D01*
X7438571Y-16739000D01*
X7467143Y-16724714D01*
X7752857Y-16724714D02*
X7781428Y-16724714D01*
X7810000Y-16739000D01*
X7824286Y-16753286D01*
X7838571Y-16781857D01*
X7852857Y-16839000D01*
X7852857Y-16910429D01*
X7838571Y-16967572D01*
X7824286Y-16996143D01*
X7810000Y-17010429D01*
X7781428Y-17024714D01*
X7752857Y-17024714D01*
X7724286Y-17010429D01*
X7710000Y-16996143D01*
X7695714Y-16967572D01*
X7681428Y-16910429D01*
X7681428Y-16839000D01*
X7695714Y-16781857D01*
X7710000Y-16753286D01*
X7724286Y-16739000D01*
X7752857Y-16724714D01*
X7981428Y-17024714D02*
X7981428Y-16824714D01*
X7981428Y-16853286D02*
X7995714Y-16839000D01*
X8024286Y-16824714D01*
X8067143Y-16824714D01*
X8095714Y-16839000D01*
X8110000Y-16867572D01*
X8110000Y-17024714D01*
X8110000Y-16867572D02*
X8124286Y-16839000D01*
X8152857Y-16824714D01*
X8195714Y-16824714D01*
X8224286Y-16839000D01*
X8238571Y-16867572D01*
X8238571Y-17024714D01*
X8381428Y-17024714D02*
X8381428Y-16824714D01*
X8381428Y-16853286D02*
X8395714Y-16839000D01*
X8424286Y-16824714D01*
X8467143Y-16824714D01*
X8495714Y-16839000D01*
X8510000Y-16867572D01*
X8510000Y-17024714D01*
X8510000Y-16867572D02*
X8524286Y-16839000D01*
X8552857Y-16824714D01*
X8595714Y-16824714D01*
X8624286Y-16839000D01*
X8638571Y-16867572D01*
X8638571Y-17024714D01*
X9224286Y-16710429D02*
X8967143Y-17096143D01*
X9610000Y-16724714D02*
X9638571Y-16724714D01*
X9667143Y-16739000D01*
X9681428Y-16753286D01*
X9695714Y-16781857D01*
X9710000Y-16839000D01*
X9710000Y-16910429D01*
X9695714Y-16967572D01*
X9681428Y-16996143D01*
X9667143Y-17010429D01*
X9638571Y-17024714D01*
X9610000Y-17024714D01*
X9581428Y-17010429D01*
X9567143Y-16996143D01*
X9552857Y-16967572D01*
X9538571Y-16910429D01*
X9538571Y-16839000D01*
X9552857Y-16781857D01*
X9567143Y-16753286D01*
X9581428Y-16739000D01*
X9610000Y-16724714D01*
X9838571Y-16996143D02*
X9852857Y-17010429D01*
X9838571Y-17024714D01*
X9824286Y-17010429D01*
X9838571Y-16996143D01*
X9838571Y-17024714D01*
X10038571Y-16724714D02*
X10067143Y-16724714D01*
X10095714Y-16739000D01*
X10110000Y-16753286D01*
X10124286Y-16781857D01*
X10138571Y-16839000D01*
X10138571Y-16910429D01*
X10124286Y-16967572D01*
X10110000Y-16996143D01*
X10095714Y-17010429D01*
X10067143Y-17024714D01*
X10038571Y-17024714D01*
X10010000Y-17010429D01*
X9995714Y-16996143D01*
X9981428Y-16967572D01*
X9967143Y-16910429D01*
X9967143Y-16839000D01*
X9981428Y-16781857D01*
X9995714Y-16753286D01*
X10010000Y-16739000D01*
X10038571Y-16724714D01*
X10238571Y-16724714D02*
X10424286Y-16724714D01*
X10324286Y-16839000D01*
X10367143Y-16839000D01*
X10395714Y-16853286D01*
X10410000Y-16867572D01*
X10424286Y-16896143D01*
X10424286Y-16967572D01*
X10410000Y-16996143D01*
X10395714Y-17010429D01*
X10367143Y-17024714D01*
X10281428Y-17024714D01*
X10252857Y-17010429D01*
X10238571Y-16996143D01*
X10567143Y-17024714D02*
X10624286Y-17024714D01*
X10652857Y-17010429D01*
X10667143Y-16996143D01*
X10695714Y-16953286D01*
X10710000Y-16896143D01*
X10710000Y-16781857D01*
X10695714Y-16753286D01*
X10681428Y-16739000D01*
X10652857Y-16724714D01*
X10595714Y-16724714D01*
X10567143Y-16739000D01*
X10552857Y-16753286D01*
X10538571Y-16781857D01*
X10538571Y-16853286D01*
X10552857Y-16881857D01*
X10567143Y-16896143D01*
X10595714Y-16910429D01*
X10652857Y-16910429D01*
X10681428Y-16896143D01*
X10695714Y-16881857D01*
X10710000Y-16853286D01*
X10824286Y-16724714D02*
X10824286Y-16781857D01*
X10938571Y-16724714D02*
X10938571Y-16781857D01*
X11381428Y-17139000D02*
X11367143Y-17124714D01*
X11338571Y-17081857D01*
X11324286Y-17053286D01*
X11310000Y-17010429D01*
X11295714Y-16939000D01*
X11295714Y-16881857D01*
X11310000Y-16810429D01*
X11324286Y-16767571D01*
X11338571Y-16739000D01*
X11367143Y-16696143D01*
X11381428Y-16681857D01*
X11652857Y-17024714D02*
X11481428Y-17024714D01*
X11567143Y-17024714D02*
X11567143Y-16724714D01*
X11538571Y-16767571D01*
X11510000Y-16796143D01*
X11481428Y-16810429D01*
X11838571Y-16724714D02*
X11867143Y-16724714D01*
X11895714Y-16739000D01*
X11910000Y-16753286D01*
X11924286Y-16781857D01*
X11938571Y-16839000D01*
X11938571Y-16910429D01*
X11924286Y-16967572D01*
X11910000Y-16996143D01*
X11895714Y-17010429D01*
X11867143Y-17024714D01*
X11838571Y-17024714D01*
X11810000Y-17010429D01*
X11795714Y-16996143D01*
X11781428Y-16967572D01*
X11767143Y-16910429D01*
X11767143Y-16839000D01*
X11781428Y-16781857D01*
X11795714Y-16753286D01*
X11810000Y-16739000D01*
X11838571Y-16724714D01*
X12195714Y-16824714D02*
X12195714Y-17024714D01*
X12124286Y-16710429D02*
X12052857Y-16924714D01*
X12238571Y-16924714D01*
X12581428Y-17024714D02*
X12581428Y-16724714D01*
X12710000Y-17024714D02*
X12710000Y-16867572D01*
X12695714Y-16839000D01*
X12667143Y-16824714D01*
X12624286Y-16824714D01*
X12595714Y-16839000D01*
X12581428Y-16853286D01*
X12895714Y-17024714D02*
X12867143Y-17010429D01*
X12852857Y-16996143D01*
X12838571Y-16967572D01*
X12838571Y-16881857D01*
X12852857Y-16853286D01*
X12867143Y-16839000D01*
X12895714Y-16824714D01*
X12938571Y-16824714D01*
X12967143Y-16839000D01*
X12981428Y-16853286D01*
X12995714Y-16881857D01*
X12995714Y-16967572D01*
X12981428Y-16996143D01*
X12967143Y-17010429D01*
X12938571Y-17024714D01*
X12895714Y-17024714D01*
X13167143Y-17024714D02*
X13138571Y-17010429D01*
X13124286Y-16981857D01*
X13124286Y-16724714D01*
X13395714Y-17010429D02*
X13367143Y-17024714D01*
X13310000Y-17024714D01*
X13281428Y-17010429D01*
X13267143Y-16981857D01*
X13267143Y-16867572D01*
X13281428Y-16839000D01*
X13310000Y-16824714D01*
X13367143Y-16824714D01*
X13395714Y-16839000D01*
X13410000Y-16867572D01*
X13410000Y-16896143D01*
X13267143Y-16924714D01*
X13524286Y-17010429D02*
X13552857Y-17024714D01*
X13610000Y-17024714D01*
X13638571Y-17010429D01*
X13652857Y-16981857D01*
X13652857Y-16967572D01*
X13638571Y-16939000D01*
X13610000Y-16924714D01*
X13567143Y-16924714D01*
X13538571Y-16910429D01*
X13524286Y-16881857D01*
X13524286Y-16867572D01*
X13538571Y-16839000D01*
X13567143Y-16824714D01*
X13610000Y-16824714D01*
X13638571Y-16839000D01*
X13752857Y-17139000D02*
X13767143Y-17124714D01*
X13795714Y-17081857D01*
X13810000Y-17053286D01*
X13824286Y-17010429D01*
X13838571Y-16939000D01*
X13838571Y-16881857D01*
X13824286Y-16810429D01*
X13810000Y-16767571D01*
X13795714Y-16739000D01*
X13767143Y-16696143D01*
X13752857Y-16681857D01*
X6555000Y-17215000D02*
X6695000Y-17355000D01*
X6695000Y-17215000D02*
X6555000Y-17355000D01*
X6695000Y-17285000D02*
G75*
G03*
X6695000Y-17285000I-70000J0D01*
G01*
X7138571Y-17420714D02*
X6967143Y-17420714D01*
X7052857Y-17420714D02*
X7052857Y-17120714D01*
X7024286Y-17163572D01*
X6995714Y-17192143D01*
X6967143Y-17206429D01*
X7267143Y-17392143D02*
X7281428Y-17406429D01*
X7267143Y-17420714D01*
X7252857Y-17406429D01*
X7267143Y-17392143D01*
X7267143Y-17420714D01*
X7538571Y-17220714D02*
X7538571Y-17420714D01*
X7467143Y-17106429D02*
X7395714Y-17320714D01*
X7581428Y-17320714D01*
X7752857Y-17120714D02*
X7781428Y-17120714D01*
X7810000Y-17135000D01*
X7824286Y-17149286D01*
X7838571Y-17177857D01*
X7852857Y-17235000D01*
X7852857Y-17306429D01*
X7838571Y-17363572D01*
X7824286Y-17392143D01*
X7810000Y-17406429D01*
X7781428Y-17420714D01*
X7752857Y-17420714D01*
X7724286Y-17406429D01*
X7710000Y-17392143D01*
X7695714Y-17363572D01*
X7681428Y-17306429D01*
X7681428Y-17235000D01*
X7695714Y-17177857D01*
X7710000Y-17149286D01*
X7724286Y-17135000D01*
X7752857Y-17120714D01*
X7981428Y-17420714D02*
X7981428Y-17220714D01*
X7981428Y-17249286D02*
X7995714Y-17235000D01*
X8024286Y-17220714D01*
X8067143Y-17220714D01*
X8095714Y-17235000D01*
X8110000Y-17263572D01*
X8110000Y-17420714D01*
X8110000Y-17263572D02*
X8124286Y-17235000D01*
X8152857Y-17220714D01*
X8195714Y-17220714D01*
X8224286Y-17235000D01*
X8238571Y-17263572D01*
X8238571Y-17420714D01*
X8381428Y-17420714D02*
X8381428Y-17220714D01*
X8381428Y-17249286D02*
X8395714Y-17235000D01*
X8424286Y-17220714D01*
X8467143Y-17220714D01*
X8495714Y-17235000D01*
X8510000Y-17263572D01*
X8510000Y-17420714D01*
X8510000Y-17263572D02*
X8524286Y-17235000D01*
X8552857Y-17220714D01*
X8595714Y-17220714D01*
X8624286Y-17235000D01*
X8638571Y-17263572D01*
X8638571Y-17420714D01*
X9224286Y-17106429D02*
X8967143Y-17492143D01*
X9610000Y-17120714D02*
X9638571Y-17120714D01*
X9667143Y-17135000D01*
X9681428Y-17149286D01*
X9695714Y-17177857D01*
X9710000Y-17235000D01*
X9710000Y-17306429D01*
X9695714Y-17363572D01*
X9681428Y-17392143D01*
X9667143Y-17406429D01*
X9638571Y-17420714D01*
X9610000Y-17420714D01*
X9581428Y-17406429D01*
X9567143Y-17392143D01*
X9552857Y-17363572D01*
X9538571Y-17306429D01*
X9538571Y-17235000D01*
X9552857Y-17177857D01*
X9567143Y-17149286D01*
X9581428Y-17135000D01*
X9610000Y-17120714D01*
X9838571Y-17392143D02*
X9852857Y-17406429D01*
X9838571Y-17420714D01*
X9824286Y-17406429D01*
X9838571Y-17392143D01*
X9838571Y-17420714D01*
X10038571Y-17120714D02*
X10067143Y-17120714D01*
X10095714Y-17135000D01*
X10110000Y-17149286D01*
X10124286Y-17177857D01*
X10138571Y-17235000D01*
X10138571Y-17306429D01*
X10124286Y-17363572D01*
X10110000Y-17392143D01*
X10095714Y-17406429D01*
X10067143Y-17420714D01*
X10038571Y-17420714D01*
X10010000Y-17406429D01*
X9995714Y-17392143D01*
X9981428Y-17363572D01*
X9967143Y-17306429D01*
X9967143Y-17235000D01*
X9981428Y-17177857D01*
X9995714Y-17149286D01*
X10010000Y-17135000D01*
X10038571Y-17120714D01*
X10410000Y-17120714D02*
X10267143Y-17120714D01*
X10252857Y-17263572D01*
X10267143Y-17249286D01*
X10295714Y-17235000D01*
X10367143Y-17235000D01*
X10395714Y-17249286D01*
X10410000Y-17263572D01*
X10424286Y-17292143D01*
X10424286Y-17363572D01*
X10410000Y-17392143D01*
X10395714Y-17406429D01*
X10367143Y-17420714D01*
X10295714Y-17420714D01*
X10267143Y-17406429D01*
X10252857Y-17392143D01*
X10695714Y-17120714D02*
X10552857Y-17120714D01*
X10538571Y-17263572D01*
X10552857Y-17249286D01*
X10581428Y-17235000D01*
X10652857Y-17235000D01*
X10681428Y-17249286D01*
X10695714Y-17263572D01*
X10710000Y-17292143D01*
X10710000Y-17363572D01*
X10695714Y-17392143D01*
X10681428Y-17406429D01*
X10652857Y-17420714D01*
X10581428Y-17420714D01*
X10552857Y-17406429D01*
X10538571Y-17392143D01*
X10824286Y-17120714D02*
X10824286Y-17177857D01*
X10938571Y-17120714D02*
X10938571Y-17177857D01*
X11381428Y-17535000D02*
X11367143Y-17520714D01*
X11338571Y-17477857D01*
X11324286Y-17449286D01*
X11310000Y-17406429D01*
X11295714Y-17335000D01*
X11295714Y-17277857D01*
X11310000Y-17206429D01*
X11324286Y-17163572D01*
X11338571Y-17135000D01*
X11367143Y-17092143D01*
X11381428Y-17077857D01*
X11652857Y-17420714D02*
X11481428Y-17420714D01*
X11567143Y-17420714D02*
X11567143Y-17120714D01*
X11538571Y-17163572D01*
X11510000Y-17192143D01*
X11481428Y-17206429D01*
X11910000Y-17120714D02*
X11852857Y-17120714D01*
X11824286Y-17135000D01*
X11810000Y-17149286D01*
X11781428Y-17192143D01*
X11767143Y-17249286D01*
X11767143Y-17363572D01*
X11781428Y-17392143D01*
X11795714Y-17406429D01*
X11824286Y-17420714D01*
X11881428Y-17420714D01*
X11910000Y-17406429D01*
X11924286Y-17392143D01*
X11938571Y-17363572D01*
X11938571Y-17292143D01*
X11924286Y-17263572D01*
X11910000Y-17249286D01*
X11881428Y-17235000D01*
X11824286Y-17235000D01*
X11795714Y-17249286D01*
X11781428Y-17263572D01*
X11767143Y-17292143D01*
X12295714Y-17420714D02*
X12295714Y-17120714D01*
X12424286Y-17420714D02*
X12424286Y-17263572D01*
X12410000Y-17235000D01*
X12381428Y-17220714D01*
X12338571Y-17220714D01*
X12310000Y-17235000D01*
X12295714Y-17249286D01*
X12610000Y-17420714D02*
X12581428Y-17406429D01*
X12567143Y-17392143D01*
X12552857Y-17363572D01*
X12552857Y-17277857D01*
X12567143Y-17249286D01*
X12581428Y-17235000D01*
X12610000Y-17220714D01*
X12652857Y-17220714D01*
X12681428Y-17235000D01*
X12695714Y-17249286D01*
X12710000Y-17277857D01*
X12710000Y-17363572D01*
X12695714Y-17392143D01*
X12681428Y-17406429D01*
X12652857Y-17420714D01*
X12610000Y-17420714D01*
X12881428Y-17420714D02*
X12852857Y-17406429D01*
X12838571Y-17377857D01*
X12838571Y-17120714D01*
X13110000Y-17406429D02*
X13081428Y-17420714D01*
X13024286Y-17420714D01*
X12995714Y-17406429D01*
X12981428Y-17377857D01*
X12981428Y-17263572D01*
X12995714Y-17235000D01*
X13024286Y-17220714D01*
X13081428Y-17220714D01*
X13110000Y-17235000D01*
X13124286Y-17263572D01*
X13124286Y-17292143D01*
X12981428Y-17320714D01*
X13238571Y-17406429D02*
X13267143Y-17420714D01*
X13324286Y-17420714D01*
X13352857Y-17406429D01*
X13367143Y-17377857D01*
X13367143Y-17363572D01*
X13352857Y-17335000D01*
X13324286Y-17320714D01*
X13281428Y-17320714D01*
X13252857Y-17306429D01*
X13238571Y-17277857D01*
X13238571Y-17263572D01*
X13252857Y-17235000D01*
X13281428Y-17220714D01*
X13324286Y-17220714D01*
X13352857Y-17235000D01*
X13467143Y-17535000D02*
X13481428Y-17520714D01*
X13510000Y-17477857D01*
X13524286Y-17449286D01*
X13538571Y-17406429D01*
X13552857Y-17335000D01*
X13552857Y-17277857D01*
X13538571Y-17206429D01*
X13524286Y-17163572D01*
X13510000Y-17135000D01*
X13481428Y-17092143D01*
X13467143Y-17077857D01*
X6495000Y-17581000D02*
X6695000Y-17781000D01*
X6695000Y-17581000D02*
X6495000Y-17781000D01*
X6595000Y-17581000D02*
X6595000Y-17781000D01*
X6495000Y-17681000D02*
X6695000Y-17681000D01*
X6967143Y-17545286D02*
X6981428Y-17531000D01*
X7010000Y-17516714D01*
X7081428Y-17516714D01*
X7110000Y-17531000D01*
X7124286Y-17545286D01*
X7138571Y-17573857D01*
X7138571Y-17602429D01*
X7124286Y-17645286D01*
X6952857Y-17816714D01*
X7138571Y-17816714D01*
X7267143Y-17788143D02*
X7281428Y-17802429D01*
X7267143Y-17816714D01*
X7252857Y-17802429D01*
X7267143Y-17788143D01*
X7267143Y-17816714D01*
X7467143Y-17516714D02*
X7495714Y-17516714D01*
X7524286Y-17531000D01*
X7538571Y-17545286D01*
X7552857Y-17573857D01*
X7567143Y-17631000D01*
X7567143Y-17702429D01*
X7552857Y-17759572D01*
X7538571Y-17788143D01*
X7524286Y-17802429D01*
X7495714Y-17816714D01*
X7467143Y-17816714D01*
X7438571Y-17802429D01*
X7424286Y-17788143D01*
X7410000Y-17759572D01*
X7395714Y-17702429D01*
X7395714Y-17631000D01*
X7410000Y-17573857D01*
X7424286Y-17545286D01*
X7438571Y-17531000D01*
X7467143Y-17516714D01*
X7752857Y-17516714D02*
X7781428Y-17516714D01*
X7810000Y-17531000D01*
X7824286Y-17545286D01*
X7838571Y-17573857D01*
X7852857Y-17631000D01*
X7852857Y-17702429D01*
X7838571Y-17759572D01*
X7824286Y-17788143D01*
X7810000Y-17802429D01*
X7781428Y-17816714D01*
X7752857Y-17816714D01*
X7724286Y-17802429D01*
X7710000Y-17788143D01*
X7695714Y-17759572D01*
X7681428Y-17702429D01*
X7681428Y-17631000D01*
X7695714Y-17573857D01*
X7710000Y-17545286D01*
X7724286Y-17531000D01*
X7752857Y-17516714D01*
X7981428Y-17816714D02*
X7981428Y-17616714D01*
X7981428Y-17645286D02*
X7995714Y-17631000D01*
X8024286Y-17616714D01*
X8067143Y-17616714D01*
X8095714Y-17631000D01*
X8110000Y-17659572D01*
X8110000Y-17816714D01*
X8110000Y-17659572D02*
X8124286Y-17631000D01*
X8152857Y-17616714D01*
X8195714Y-17616714D01*
X8224286Y-17631000D01*
X8238571Y-17659572D01*
X8238571Y-17816714D01*
X8381428Y-17816714D02*
X8381428Y-17616714D01*
X8381428Y-17645286D02*
X8395714Y-17631000D01*
X8424286Y-17616714D01*
X8467143Y-17616714D01*
X8495714Y-17631000D01*
X8510000Y-17659572D01*
X8510000Y-17816714D01*
X8510000Y-17659572D02*
X8524286Y-17631000D01*
X8552857Y-17616714D01*
X8595714Y-17616714D01*
X8624286Y-17631000D01*
X8638571Y-17659572D01*
X8638571Y-17816714D01*
X9224286Y-17502429D02*
X8967143Y-17888143D01*
X9610000Y-17516714D02*
X9638571Y-17516714D01*
X9667143Y-17531000D01*
X9681428Y-17545286D01*
X9695714Y-17573857D01*
X9710000Y-17631000D01*
X9710000Y-17702429D01*
X9695714Y-17759572D01*
X9681428Y-17788143D01*
X9667143Y-17802429D01*
X9638571Y-17816714D01*
X9610000Y-17816714D01*
X9581428Y-17802429D01*
X9567143Y-17788143D01*
X9552857Y-17759572D01*
X9538571Y-17702429D01*
X9538571Y-17631000D01*
X9552857Y-17573857D01*
X9567143Y-17545286D01*
X9581428Y-17531000D01*
X9610000Y-17516714D01*
X9838571Y-17788143D02*
X9852857Y-17802429D01*
X9838571Y-17816714D01*
X9824286Y-17802429D01*
X9838571Y-17788143D01*
X9838571Y-17816714D01*
X10038571Y-17516714D02*
X10067143Y-17516714D01*
X10095714Y-17531000D01*
X10110000Y-17545286D01*
X10124286Y-17573857D01*
X10138571Y-17631000D01*
X10138571Y-17702429D01*
X10124286Y-17759572D01*
X10110000Y-17788143D01*
X10095714Y-17802429D01*
X10067143Y-17816714D01*
X10038571Y-17816714D01*
X10010000Y-17802429D01*
X9995714Y-17788143D01*
X9981428Y-17759572D01*
X9967143Y-17702429D01*
X9967143Y-17631000D01*
X9981428Y-17573857D01*
X9995714Y-17545286D01*
X10010000Y-17531000D01*
X10038571Y-17516714D01*
X10238571Y-17516714D02*
X10438571Y-17516714D01*
X10310000Y-17816714D01*
X10567143Y-17816714D02*
X10624286Y-17816714D01*
X10652857Y-17802429D01*
X10667143Y-17788143D01*
X10695714Y-17745286D01*
X10710000Y-17688143D01*
X10710000Y-17573857D01*
X10695714Y-17545286D01*
X10681428Y-17531000D01*
X10652857Y-17516714D01*
X10595714Y-17516714D01*
X10567143Y-17531000D01*
X10552857Y-17545286D01*
X10538571Y-17573857D01*
X10538571Y-17645286D01*
X10552857Y-17673857D01*
X10567143Y-17688143D01*
X10595714Y-17702429D01*
X10652857Y-17702429D01*
X10681428Y-17688143D01*
X10695714Y-17673857D01*
X10710000Y-17645286D01*
X10824286Y-17516714D02*
X10824286Y-17573857D01*
X10938571Y-17516714D02*
X10938571Y-17573857D01*
X11381428Y-17931000D02*
X11367143Y-17916714D01*
X11338571Y-17873857D01*
X11324286Y-17845286D01*
X11310000Y-17802429D01*
X11295714Y-17731000D01*
X11295714Y-17673857D01*
X11310000Y-17602429D01*
X11324286Y-17559572D01*
X11338571Y-17531000D01*
X11367143Y-17488143D01*
X11381428Y-17473857D01*
X11481428Y-17545286D02*
X11495714Y-17531000D01*
X11524286Y-17516714D01*
X11595714Y-17516714D01*
X11624286Y-17531000D01*
X11638571Y-17545286D01*
X11652857Y-17573857D01*
X11652857Y-17602429D01*
X11638571Y-17645286D01*
X11467143Y-17816714D01*
X11652857Y-17816714D01*
X11910000Y-17516714D02*
X11852857Y-17516714D01*
X11824286Y-17531000D01*
X11810000Y-17545286D01*
X11781428Y-17588143D01*
X11767143Y-17645286D01*
X11767143Y-17759572D01*
X11781428Y-17788143D01*
X11795714Y-17802429D01*
X11824286Y-17816714D01*
X11881428Y-17816714D01*
X11910000Y-17802429D01*
X11924286Y-17788143D01*
X11938571Y-17759572D01*
X11938571Y-17688143D01*
X11924286Y-17659572D01*
X11910000Y-17645286D01*
X11881428Y-17631000D01*
X11824286Y-17631000D01*
X11795714Y-17645286D01*
X11781428Y-17659572D01*
X11767143Y-17688143D01*
X12295714Y-17816714D02*
X12295714Y-17516714D01*
X12424286Y-17816714D02*
X12424286Y-17659572D01*
X12410000Y-17631000D01*
X12381428Y-17616714D01*
X12338571Y-17616714D01*
X12310000Y-17631000D01*
X12295714Y-17645286D01*
X12610000Y-17816714D02*
X12581428Y-17802429D01*
X12567143Y-17788143D01*
X12552857Y-17759572D01*
X12552857Y-17673857D01*
X12567143Y-17645286D01*
X12581428Y-17631000D01*
X12610000Y-17616714D01*
X12652857Y-17616714D01*
X12681428Y-17631000D01*
X12695714Y-17645286D01*
X12710000Y-17673857D01*
X12710000Y-17759572D01*
X12695714Y-17788143D01*
X12681428Y-17802429D01*
X12652857Y-17816714D01*
X12610000Y-17816714D01*
X12881428Y-17816714D02*
X12852857Y-17802429D01*
X12838571Y-17773857D01*
X12838571Y-17516714D01*
X13110000Y-17802429D02*
X13081428Y-17816714D01*
X13024286Y-17816714D01*
X12995714Y-17802429D01*
X12981428Y-17773857D01*
X12981428Y-17659572D01*
X12995714Y-17631000D01*
X13024286Y-17616714D01*
X13081428Y-17616714D01*
X13110000Y-17631000D01*
X13124286Y-17659572D01*
X13124286Y-17688143D01*
X12981428Y-17716714D01*
X13238571Y-17802429D02*
X13267143Y-17816714D01*
X13324286Y-17816714D01*
X13352857Y-17802429D01*
X13367143Y-17773857D01*
X13367143Y-17759572D01*
X13352857Y-17731000D01*
X13324286Y-17716714D01*
X13281428Y-17716714D01*
X13252857Y-17702429D01*
X13238571Y-17673857D01*
X13238571Y-17659572D01*
X13252857Y-17631000D01*
X13281428Y-17616714D01*
X13324286Y-17616714D01*
X13352857Y-17631000D01*
X13467143Y-17931000D02*
X13481428Y-17916714D01*
X13510000Y-17873857D01*
X13524286Y-17845286D01*
X13538571Y-17802429D01*
X13552857Y-17731000D01*
X13552857Y-17673857D01*
X13538571Y-17602429D01*
X13524286Y-17559572D01*
X13510000Y-17531000D01*
X13481428Y-17488143D01*
X13467143Y-17473857D01*
X6395000Y-17927000D02*
X6695000Y-18227000D01*
X6695000Y-17927000D02*
X6395000Y-18227000D01*
X6651067Y-18183067D02*
X6651067Y-17970933D01*
X6438933Y-17970933D01*
X6438933Y-18183067D01*
X6651067Y-18183067D01*
X6952857Y-17912714D02*
X7138571Y-17912714D01*
X7038571Y-18027000D01*
X7081428Y-18027000D01*
X7110000Y-18041286D01*
X7124286Y-18055572D01*
X7138571Y-18084143D01*
X7138571Y-18155572D01*
X7124286Y-18184143D01*
X7110000Y-18198429D01*
X7081428Y-18212714D01*
X6995714Y-18212714D01*
X6967143Y-18198429D01*
X6952857Y-18184143D01*
X7267143Y-18184143D02*
X7281428Y-18198429D01*
X7267143Y-18212714D01*
X7252857Y-18198429D01*
X7267143Y-18184143D01*
X7267143Y-18212714D01*
X7467143Y-17912714D02*
X7495714Y-17912714D01*
X7524286Y-17927000D01*
X7538571Y-17941286D01*
X7552857Y-17969857D01*
X7567143Y-18027000D01*
X7567143Y-18098429D01*
X7552857Y-18155572D01*
X7538571Y-18184143D01*
X7524286Y-18198429D01*
X7495714Y-18212714D01*
X7467143Y-18212714D01*
X7438571Y-18198429D01*
X7424286Y-18184143D01*
X7410000Y-18155572D01*
X7395714Y-18098429D01*
X7395714Y-18027000D01*
X7410000Y-17969857D01*
X7424286Y-17941286D01*
X7438571Y-17927000D01*
X7467143Y-17912714D01*
X7752857Y-17912714D02*
X7781428Y-17912714D01*
X7810000Y-17927000D01*
X7824286Y-17941286D01*
X7838571Y-17969857D01*
X7852857Y-18027000D01*
X7852857Y-18098429D01*
X7838571Y-18155572D01*
X7824286Y-18184143D01*
X7810000Y-18198429D01*
X7781428Y-18212714D01*
X7752857Y-18212714D01*
X7724286Y-18198429D01*
X7710000Y-18184143D01*
X7695714Y-18155572D01*
X7681428Y-18098429D01*
X7681428Y-18027000D01*
X7695714Y-17969857D01*
X7710000Y-17941286D01*
X7724286Y-17927000D01*
X7752857Y-17912714D01*
X7981428Y-18212714D02*
X7981428Y-18012714D01*
X7981428Y-18041286D02*
X7995714Y-18027000D01*
X8024286Y-18012714D01*
X8067143Y-18012714D01*
X8095714Y-18027000D01*
X8110000Y-18055572D01*
X8110000Y-18212714D01*
X8110000Y-18055572D02*
X8124286Y-18027000D01*
X8152857Y-18012714D01*
X8195714Y-18012714D01*
X8224286Y-18027000D01*
X8238571Y-18055572D01*
X8238571Y-18212714D01*
X8381428Y-18212714D02*
X8381428Y-18012714D01*
X8381428Y-18041286D02*
X8395714Y-18027000D01*
X8424286Y-18012714D01*
X8467143Y-18012714D01*
X8495714Y-18027000D01*
X8510000Y-18055572D01*
X8510000Y-18212714D01*
X8510000Y-18055572D02*
X8524286Y-18027000D01*
X8552857Y-18012714D01*
X8595714Y-18012714D01*
X8624286Y-18027000D01*
X8638571Y-18055572D01*
X8638571Y-18212714D01*
X9224286Y-17898429D02*
X8967143Y-18284143D01*
X9610000Y-17912714D02*
X9638571Y-17912714D01*
X9667143Y-17927000D01*
X9681428Y-17941286D01*
X9695714Y-17969857D01*
X9710000Y-18027000D01*
X9710000Y-18098429D01*
X9695714Y-18155572D01*
X9681428Y-18184143D01*
X9667143Y-18198429D01*
X9638571Y-18212714D01*
X9610000Y-18212714D01*
X9581428Y-18198429D01*
X9567143Y-18184143D01*
X9552857Y-18155572D01*
X9538571Y-18098429D01*
X9538571Y-18027000D01*
X9552857Y-17969857D01*
X9567143Y-17941286D01*
X9581428Y-17927000D01*
X9610000Y-17912714D01*
X9838571Y-18184143D02*
X9852857Y-18198429D01*
X9838571Y-18212714D01*
X9824286Y-18198429D01*
X9838571Y-18184143D01*
X9838571Y-18212714D01*
X10138571Y-18212714D02*
X9967143Y-18212714D01*
X10052857Y-18212714D02*
X10052857Y-17912714D01*
X10024286Y-17955572D01*
X9995714Y-17984143D01*
X9967143Y-17998429D01*
X10424286Y-18212714D02*
X10252857Y-18212714D01*
X10338571Y-18212714D02*
X10338571Y-17912714D01*
X10310000Y-17955572D01*
X10281428Y-17984143D01*
X10252857Y-17998429D01*
X10595714Y-18041286D02*
X10567143Y-18027000D01*
X10552857Y-18012714D01*
X10538571Y-17984143D01*
X10538571Y-17969857D01*
X10552857Y-17941286D01*
X10567143Y-17927000D01*
X10595714Y-17912714D01*
X10652857Y-17912714D01*
X10681428Y-17927000D01*
X10695714Y-17941286D01*
X10710000Y-17969857D01*
X10710000Y-17984143D01*
X10695714Y-18012714D01*
X10681428Y-18027000D01*
X10652857Y-18041286D01*
X10595714Y-18041286D01*
X10567143Y-18055572D01*
X10552857Y-18069857D01*
X10538571Y-18098429D01*
X10538571Y-18155572D01*
X10552857Y-18184143D01*
X10567143Y-18198429D01*
X10595714Y-18212714D01*
X10652857Y-18212714D01*
X10681428Y-18198429D01*
X10695714Y-18184143D01*
X10710000Y-18155572D01*
X10710000Y-18098429D01*
X10695714Y-18069857D01*
X10681428Y-18055572D01*
X10652857Y-18041286D01*
X10824286Y-17912714D02*
X10824286Y-17969857D01*
X10938571Y-17912714D02*
X10938571Y-17969857D01*
X11381428Y-18327000D02*
X11367143Y-18312714D01*
X11338571Y-18269857D01*
X11324286Y-18241286D01*
X11310000Y-18198429D01*
X11295714Y-18127000D01*
X11295714Y-18069857D01*
X11310000Y-17998429D01*
X11324286Y-17955572D01*
X11338571Y-17927000D01*
X11367143Y-17884143D01*
X11381428Y-17869857D01*
X11624286Y-18012714D02*
X11624286Y-18212714D01*
X11552857Y-17898429D02*
X11481428Y-18112714D01*
X11667143Y-18112714D01*
X12010000Y-18212714D02*
X12010000Y-17912714D01*
X12138571Y-18212714D02*
X12138571Y-18055572D01*
X12124286Y-18027000D01*
X12095714Y-18012714D01*
X12052857Y-18012714D01*
X12024286Y-18027000D01*
X12010000Y-18041286D01*
X12324286Y-18212714D02*
X12295714Y-18198429D01*
X12281428Y-18184143D01*
X12267143Y-18155572D01*
X12267143Y-18069857D01*
X12281428Y-18041286D01*
X12295714Y-18027000D01*
X12324286Y-18012714D01*
X12367143Y-18012714D01*
X12395714Y-18027000D01*
X12410000Y-18041286D01*
X12424286Y-18069857D01*
X12424286Y-18155572D01*
X12410000Y-18184143D01*
X12395714Y-18198429D01*
X12367143Y-18212714D01*
X12324286Y-18212714D01*
X12595714Y-18212714D02*
X12567143Y-18198429D01*
X12552857Y-18169857D01*
X12552857Y-17912714D01*
X12824286Y-18198429D02*
X12795714Y-18212714D01*
X12738571Y-18212714D01*
X12710000Y-18198429D01*
X12695714Y-18169857D01*
X12695714Y-18055572D01*
X12710000Y-18027000D01*
X12738571Y-18012714D01*
X12795714Y-18012714D01*
X12824286Y-18027000D01*
X12838571Y-18055572D01*
X12838571Y-18084143D01*
X12695714Y-18112714D01*
X12952857Y-18198429D02*
X12981428Y-18212714D01*
X13038571Y-18212714D01*
X13067143Y-18198429D01*
X13081428Y-18169857D01*
X13081428Y-18155572D01*
X13067143Y-18127000D01*
X13038571Y-18112714D01*
X12995714Y-18112714D01*
X12967143Y-18098429D01*
X12952857Y-18069857D01*
X12952857Y-18055572D01*
X12967143Y-18027000D01*
X12995714Y-18012714D01*
X13038571Y-18012714D01*
X13067143Y-18027000D01*
X13181428Y-18327000D02*
X13195714Y-18312714D01*
X13224286Y-18269857D01*
X13238571Y-18241286D01*
X13252857Y-18198429D01*
X13267143Y-18127000D01*
X13267143Y-18069857D01*
X13252857Y-17998429D01*
X13238571Y-17955572D01*
X13224286Y-17927000D01*
X13195714Y-17884143D01*
X13181428Y-17869857D01*
X6495000Y-18407000D02*
X6695000Y-18607000D01*
X6695000Y-18407000D02*
X6495000Y-18607000D01*
X6595000Y-18607000D02*
X6695000Y-18507000D01*
X6595000Y-18407000D01*
X6495000Y-18507000D01*
X6595000Y-18607000D01*
X6967143Y-18371286D02*
X6981428Y-18357000D01*
X7010000Y-18342714D01*
X7081428Y-18342714D01*
X7110000Y-18357000D01*
X7124286Y-18371286D01*
X7138571Y-18399857D01*
X7138571Y-18428429D01*
X7124286Y-18471286D01*
X6952857Y-18642714D01*
X7138571Y-18642714D01*
X7267143Y-18614143D02*
X7281428Y-18628429D01*
X7267143Y-18642714D01*
X7252857Y-18628429D01*
X7267143Y-18614143D01*
X7267143Y-18642714D01*
X7467143Y-18342714D02*
X7495714Y-18342714D01*
X7524286Y-18357000D01*
X7538571Y-18371286D01*
X7552857Y-18399857D01*
X7567143Y-18457000D01*
X7567143Y-18528429D01*
X7552857Y-18585572D01*
X7538571Y-18614143D01*
X7524286Y-18628429D01*
X7495714Y-18642714D01*
X7467143Y-18642714D01*
X7438571Y-18628429D01*
X7424286Y-18614143D01*
X7410000Y-18585572D01*
X7395714Y-18528429D01*
X7395714Y-18457000D01*
X7410000Y-18399857D01*
X7424286Y-18371286D01*
X7438571Y-18357000D01*
X7467143Y-18342714D01*
X7752857Y-18342714D02*
X7781428Y-18342714D01*
X7810000Y-18357000D01*
X7824286Y-18371286D01*
X7838571Y-18399857D01*
X7852857Y-18457000D01*
X7852857Y-18528429D01*
X7838571Y-18585572D01*
X7824286Y-18614143D01*
X7810000Y-18628429D01*
X7781428Y-18642714D01*
X7752857Y-18642714D01*
X7724286Y-18628429D01*
X7710000Y-18614143D01*
X7695714Y-18585572D01*
X7681428Y-18528429D01*
X7681428Y-18457000D01*
X7695714Y-18399857D01*
X7710000Y-18371286D01*
X7724286Y-18357000D01*
X7752857Y-18342714D01*
X7981428Y-18642714D02*
X7981428Y-18442714D01*
X7981428Y-18471286D02*
X7995714Y-18457000D01*
X8024286Y-18442714D01*
X8067143Y-18442714D01*
X8095714Y-18457000D01*
X8110000Y-18485572D01*
X8110000Y-18642714D01*
X8110000Y-18485572D02*
X8124286Y-18457000D01*
X8152857Y-18442714D01*
X8195714Y-18442714D01*
X8224286Y-18457000D01*
X8238571Y-18485572D01*
X8238571Y-18642714D01*
X8381428Y-18642714D02*
X8381428Y-18442714D01*
X8381428Y-18471286D02*
X8395714Y-18457000D01*
X8424286Y-18442714D01*
X8467143Y-18442714D01*
X8495714Y-18457000D01*
X8510000Y-18485572D01*
X8510000Y-18642714D01*
X8510000Y-18485572D02*
X8524286Y-18457000D01*
X8552857Y-18442714D01*
X8595714Y-18442714D01*
X8624286Y-18457000D01*
X8638571Y-18485572D01*
X8638571Y-18642714D01*
X9224286Y-18328429D02*
X8967143Y-18714143D01*
X9610000Y-18342714D02*
X9638571Y-18342714D01*
X9667143Y-18357000D01*
X9681428Y-18371286D01*
X9695714Y-18399857D01*
X9710000Y-18457000D01*
X9710000Y-18528429D01*
X9695714Y-18585572D01*
X9681428Y-18614143D01*
X9667143Y-18628429D01*
X9638571Y-18642714D01*
X9610000Y-18642714D01*
X9581428Y-18628429D01*
X9567143Y-18614143D01*
X9552857Y-18585572D01*
X9538571Y-18528429D01*
X9538571Y-18457000D01*
X9552857Y-18399857D01*
X9567143Y-18371286D01*
X9581428Y-18357000D01*
X9610000Y-18342714D01*
X9838571Y-18614143D02*
X9852857Y-18628429D01*
X9838571Y-18642714D01*
X9824286Y-18628429D01*
X9838571Y-18614143D01*
X9838571Y-18642714D01*
X10038571Y-18342714D02*
X10067143Y-18342714D01*
X10095714Y-18357000D01*
X10110000Y-18371286D01*
X10124286Y-18399857D01*
X10138571Y-18457000D01*
X10138571Y-18528429D01*
X10124286Y-18585572D01*
X10110000Y-18614143D01*
X10095714Y-18628429D01*
X10067143Y-18642714D01*
X10038571Y-18642714D01*
X10010000Y-18628429D01*
X9995714Y-18614143D01*
X9981428Y-18585572D01*
X9967143Y-18528429D01*
X9967143Y-18457000D01*
X9981428Y-18399857D01*
X9995714Y-18371286D01*
X10010000Y-18357000D01*
X10038571Y-18342714D01*
X10238571Y-18342714D02*
X10438571Y-18342714D01*
X10310000Y-18642714D01*
X10567143Y-18642714D02*
X10624286Y-18642714D01*
X10652857Y-18628429D01*
X10667143Y-18614143D01*
X10695714Y-18571286D01*
X10710000Y-18514143D01*
X10710000Y-18399857D01*
X10695714Y-18371286D01*
X10681428Y-18357000D01*
X10652857Y-18342714D01*
X10595714Y-18342714D01*
X10567143Y-18357000D01*
X10552857Y-18371286D01*
X10538571Y-18399857D01*
X10538571Y-18471286D01*
X10552857Y-18499857D01*
X10567143Y-18514143D01*
X10595714Y-18528429D01*
X10652857Y-18528429D01*
X10681428Y-18514143D01*
X10695714Y-18499857D01*
X10710000Y-18471286D01*
X10824286Y-18342714D02*
X10824286Y-18399857D01*
X10938571Y-18342714D02*
X10938571Y-18399857D01*
X11381428Y-18757000D02*
X11367143Y-18742714D01*
X11338571Y-18699857D01*
X11324286Y-18671286D01*
X11310000Y-18628429D01*
X11295714Y-18557000D01*
X11295714Y-18499857D01*
X11310000Y-18428429D01*
X11324286Y-18385572D01*
X11338571Y-18357000D01*
X11367143Y-18314143D01*
X11381428Y-18299857D01*
X11538571Y-18471286D02*
X11510000Y-18457000D01*
X11495714Y-18442714D01*
X11481428Y-18414143D01*
X11481428Y-18399857D01*
X11495714Y-18371286D01*
X11510000Y-18357000D01*
X11538571Y-18342714D01*
X11595714Y-18342714D01*
X11624286Y-18357000D01*
X11638571Y-18371286D01*
X11652857Y-18399857D01*
X11652857Y-18414143D01*
X11638571Y-18442714D01*
X11624286Y-18457000D01*
X11595714Y-18471286D01*
X11538571Y-18471286D01*
X11510000Y-18485572D01*
X11495714Y-18499857D01*
X11481428Y-18528429D01*
X11481428Y-18585572D01*
X11495714Y-18614143D01*
X11510000Y-18628429D01*
X11538571Y-18642714D01*
X11595714Y-18642714D01*
X11624286Y-18628429D01*
X11638571Y-18614143D01*
X11652857Y-18585572D01*
X11652857Y-18528429D01*
X11638571Y-18499857D01*
X11624286Y-18485572D01*
X11595714Y-18471286D01*
X12010000Y-18642714D02*
X12010000Y-18342714D01*
X12138571Y-18642714D02*
X12138571Y-18485572D01*
X12124286Y-18457000D01*
X12095714Y-18442714D01*
X12052857Y-18442714D01*
X12024286Y-18457000D01*
X12010000Y-18471286D01*
X12324286Y-18642714D02*
X12295714Y-18628429D01*
X12281428Y-18614143D01*
X12267143Y-18585572D01*
X12267143Y-18499857D01*
X12281428Y-18471286D01*
X12295714Y-18457000D01*
X12324286Y-18442714D01*
X12367143Y-18442714D01*
X12395714Y-18457000D01*
X12410000Y-18471286D01*
X12424286Y-18499857D01*
X12424286Y-18585572D01*
X12410000Y-18614143D01*
X12395714Y-18628429D01*
X12367143Y-18642714D01*
X12324286Y-18642714D01*
X12595714Y-18642714D02*
X12567143Y-18628429D01*
X12552857Y-18599857D01*
X12552857Y-18342714D01*
X12824286Y-18628429D02*
X12795714Y-18642714D01*
X12738571Y-18642714D01*
X12710000Y-18628429D01*
X12695714Y-18599857D01*
X12695714Y-18485572D01*
X12710000Y-18457000D01*
X12738571Y-18442714D01*
X12795714Y-18442714D01*
X12824286Y-18457000D01*
X12838571Y-18485572D01*
X12838571Y-18514143D01*
X12695714Y-18542714D01*
X12952857Y-18628429D02*
X12981428Y-18642714D01*
X13038571Y-18642714D01*
X13067143Y-18628429D01*
X13081428Y-18599857D01*
X13081428Y-18585572D01*
X13067143Y-18557000D01*
X13038571Y-18542714D01*
X12995714Y-18542714D01*
X12967143Y-18528429D01*
X12952857Y-18499857D01*
X12952857Y-18485572D01*
X12967143Y-18457000D01*
X12995714Y-18442714D01*
X13038571Y-18442714D01*
X13067143Y-18457000D01*
X13181428Y-18757000D02*
X13195714Y-18742714D01*
X13224286Y-18699857D01*
X13238571Y-18671286D01*
X13252857Y-18628429D01*
X13267143Y-18557000D01*
X13267143Y-18499857D01*
X13252857Y-18428429D01*
X13238571Y-18385572D01*
X13224286Y-18357000D01*
X13195714Y-18314143D01*
X13181428Y-18299857D01*
X13724286Y-18757000D02*
X13710000Y-18742714D01*
X13681428Y-18699857D01*
X13667143Y-18671286D01*
X13652857Y-18628429D01*
X13638571Y-18557000D01*
X13638571Y-18499857D01*
X13652857Y-18428429D01*
X13667143Y-18385572D01*
X13681428Y-18357000D01*
X13710000Y-18314143D01*
X13724286Y-18299857D01*
X13838571Y-18442714D02*
X13838571Y-18642714D01*
X13838571Y-18471286D02*
X13852857Y-18457000D01*
X13881428Y-18442714D01*
X13924286Y-18442714D01*
X13952857Y-18457000D01*
X13967143Y-18485572D01*
X13967143Y-18642714D01*
X14152857Y-18642714D02*
X14124286Y-18628429D01*
X14110000Y-18614143D01*
X14095714Y-18585572D01*
X14095714Y-18499857D01*
X14110000Y-18471286D01*
X14124286Y-18457000D01*
X14152857Y-18442714D01*
X14195714Y-18442714D01*
X14224286Y-18457000D01*
X14238571Y-18471286D01*
X14252857Y-18499857D01*
X14252857Y-18585572D01*
X14238571Y-18614143D01*
X14224286Y-18628429D01*
X14195714Y-18642714D01*
X14152857Y-18642714D01*
X14338571Y-18442714D02*
X14452857Y-18442714D01*
X14381428Y-18342714D02*
X14381428Y-18599857D01*
X14395714Y-18628429D01*
X14424286Y-18642714D01*
X14452857Y-18642714D01*
X14781428Y-18442714D02*
X14781428Y-18742714D01*
X14781428Y-18457000D02*
X14810000Y-18442714D01*
X14867143Y-18442714D01*
X14895714Y-18457000D01*
X14910000Y-18471286D01*
X14924286Y-18499857D01*
X14924286Y-18585572D01*
X14910000Y-18614143D01*
X14895714Y-18628429D01*
X14867143Y-18642714D01*
X14810000Y-18642714D01*
X14781428Y-18628429D01*
X15095714Y-18642714D02*
X15067143Y-18628429D01*
X15052857Y-18599857D01*
X15052857Y-18342714D01*
X15338571Y-18642714D02*
X15338571Y-18485572D01*
X15324286Y-18457000D01*
X15295714Y-18442714D01*
X15238571Y-18442714D01*
X15210000Y-18457000D01*
X15338571Y-18628429D02*
X15310000Y-18642714D01*
X15238571Y-18642714D01*
X15210000Y-18628429D01*
X15195714Y-18599857D01*
X15195714Y-18571286D01*
X15210000Y-18542714D01*
X15238571Y-18528429D01*
X15310000Y-18528429D01*
X15338571Y-18514143D01*
X15438571Y-18442714D02*
X15552857Y-18442714D01*
X15481428Y-18342714D02*
X15481428Y-18599857D01*
X15495714Y-18628429D01*
X15524286Y-18642714D01*
X15552857Y-18642714D01*
X15767143Y-18628429D02*
X15738571Y-18642714D01*
X15681428Y-18642714D01*
X15652857Y-18628429D01*
X15638571Y-18599857D01*
X15638571Y-18485572D01*
X15652857Y-18457000D01*
X15681428Y-18442714D01*
X15738571Y-18442714D01*
X15767143Y-18457000D01*
X15781428Y-18485572D01*
X15781428Y-18514143D01*
X15638571Y-18542714D01*
X16038571Y-18642714D02*
X16038571Y-18342714D01*
X16038571Y-18628429D02*
X16010000Y-18642714D01*
X15952857Y-18642714D01*
X15924286Y-18628429D01*
X15910000Y-18614143D01*
X15895714Y-18585572D01*
X15895714Y-18499857D01*
X15910000Y-18471286D01*
X15924286Y-18457000D01*
X15952857Y-18442714D01*
X16010000Y-18442714D01*
X16038571Y-18457000D01*
X16152857Y-18757000D02*
X16167143Y-18742714D01*
X16195714Y-18699857D01*
X16210000Y-18671286D01*
X16224286Y-18628429D01*
X16238571Y-18557000D01*
X16238571Y-18499857D01*
X16224286Y-18428429D01*
X16210000Y-18385572D01*
X16195714Y-18357000D01*
X16167143Y-18314143D01*
X16152857Y-18299857D01*
M02*
