M48
; DRILL file {KiCad (5.1.7-0-10_14)} date Saturday, March 27, 2021 at 06:27:06 PM
; FORMAT={-:-/ absolute / inch / decimal}
; #@! TF.CreationDate,2021-03-27T18:27:06-04:00
; #@! TF.GenerationSoftware,Kicad,Pcbnew,(5.1.7-0-10_14)
FMAT,2
INCH
T1C0.0157
T2C0.0295
T3C0.0315
T4C0.0354
T5C0.0394
T6C0.0551
T7C0.0787
T8C0.1181
T9C0.0787
%
G90
G05
T1
X4.1358Y-2.5098
X4.1476Y-3.3642
X4.1516Y-2.3917
X4.2165Y-3.3012
X4.445Y-2.3899
X4.4537Y-1.8514
X4.5669Y-4.6358
X4.6161Y-3.5217
X4.6339Y-4.7539
X4.6594Y-4.6791
X4.688Y-4.6358
X4.6929Y-2.5846
X4.7844Y-1.5207
X4.7928Y-2.1668
X4.8406Y-5.3425
X4.8552Y-3.5649
X4.8558Y-1.3912
X4.876Y-5.4606
X4.9311Y-1.3563
X4.9469Y-1.9724
X5.0059Y-1.874
X5.0133Y-1.3322
X5.124Y-2.1437
X5.1358Y-1.874
X5.1892Y-2.1594
X5.218Y-5.3425
X5.2815Y-5.3425
X5.2972Y-2.0295
X5.313Y-5.4606
X5.3366Y-2.0295
X5.3563Y-5.4606
X5.3681Y-1.8681
X5.372Y-1.813
X5.4114Y-1.8681
X5.435Y-5.3425
X5.4547Y-1.9724
X5.4558Y-1.7401
X5.4656Y-3.4035
X5.4823Y-5.4321
X5.4941Y-3.3484
X5.5308Y-2.267
X5.5618Y-2.3211
X5.6053Y-1.7461
X5.6673Y-1.8642
X5.6721Y-2.8611
X5.7106Y-1.5167
X5.7338Y-2.1043
X5.7343Y-3.0295
X5.7624Y-2.0369
X5.7671Y-3.0768
X5.7736Y-3.1319
X5.7882Y-5.3653
X5.8025Y-5.4849
X5.8209Y-1.4902
X5.9232Y-1.3893
X5.9311Y-2.6476
X5.9665Y-1.3607
X6.0427Y-1.3607
X6.1043Y-2.1673
X6.1275Y-2.1038
X6.1516Y-2.1673
X6.315Y-1.3607
X6.8185Y-4.8126
X6.8402Y-4.8855
X6.8612Y-2.9656
X6.8622Y-2.7992
X6.9173Y-4.1171
X6.9173Y-4.1752
X6.9705Y-5.0768
X6.9788Y-2.4985
X6.9791Y-5.1643
X6.9902Y-3.0965
X7.003Y-3.7618
X7.0051Y-2.2222
X7.0073Y-2.4699
X7.0079Y-2.3496
X7.0081Y-4.9991
X7.0093Y-3.8695
X7.0098Y-2.2776
X7.0301Y-2.1618
X7.0354Y-4.0531
X7.1634Y-2.5736
X7.1634Y-2.6307
X7.1693Y-2.1831
X7.1693Y-4.0098
X7.1912Y-1.8777
X7.2028Y-2.5736
X7.2188Y-1.8245
X7.2264Y-2.8189
X7.2362Y-2.4547
X7.2431Y-3.1644
X7.2431Y-1.8893
X7.2539Y-3.9705
X7.2539Y-4.0098
X7.2539Y-4.3425
X7.2624Y-3.1047
X7.2775Y-4.4015
X7.278Y-3.1826
X7.2933Y-2.2047
X7.31Y-3.3984
X7.331Y-4.5128
X7.3327Y-2.2126
X7.3366Y-3.1811
X7.338Y-4.7254
X7.3382Y-5.172
X7.3386Y-3.3704
X7.3396Y-5.0894
X7.3406Y-4.7835
X7.3458Y-5.3772
X7.3494Y-2.128
X7.3538Y-5.4828
X7.3618Y-3.4826
X7.3634Y-3.067
X7.3656Y-3.4384
X7.3701Y-4.4508
X7.3701Y-4.5079
X7.3701Y-4.7539
X7.3743Y-5.1563
X7.378Y-1.8307
X7.378Y-1.9508
X7.378Y-1.998
X7.378Y-2.248
X7.378Y-2.2992
X7.3839Y-4.0384
X7.3937Y-3.9526
X7.3937Y-3.0955
X7.3966Y-5.1113
X7.4Y-2.9991
X7.4104Y-2.4774
X7.4124Y-3.0364
X7.4145Y-2.5219
X7.4219Y-4.0096
X7.437Y-4.7539
X7.442Y-2.7128
X7.4449Y-1.9311
X7.4459Y-2.4183
X7.4516Y-3.9811
X7.4646Y-2.126
X7.4887Y-1.8116
X7.4961Y-2.8327
X7.5103Y-3.1639
X7.5295Y-5.1043
X7.5323Y-3.9811
X7.5354Y-3.0933
X7.5374Y-4.376
X7.5531Y-3.0256
X7.5531Y-2.8091
X7.5545Y-3.5352
X7.5896Y-3.8061
X7.5945Y-3.3746
X7.6043Y-4.1722
X7.6068Y-2.5792
X7.6069Y-4.1293
X7.6083Y-3.9213
X7.6122Y-5.185
X7.6158Y-1.9807
X7.622Y-2.126
X7.6322Y-2.3269
X7.6329Y-4.2293
X7.6476Y-3.3091
X7.6496Y-2.2254
X7.6752Y-2.4537
X7.6998Y-2.8386
X7.7003Y-2.9551
X7.721Y-3.4828
X7.7264Y-2.0453
X7.7559Y-4.6043
X7.7579Y-4.7402
X7.7579Y-4.8819
X7.7579Y-5.4114
X7.7717Y-2.0453
X7.7799Y-3.8872
X7.7838Y-3.194
X7.813Y-3.2205
X7.826Y-1.7734
X7.8366Y-4.7421
X7.8405Y-2.1122
X7.8406Y-5.1772
X7.8504Y-3.2874
X7.8524Y-3.2205
X7.8642Y-1.7244
X7.8642Y-4.2787
X7.8661Y-3.0571
X7.876Y-1.783
X7.8786Y-3.6658
X7.8858Y-2.4622
X7.8898Y-2.5193
X7.8898Y-3.5374
X7.8922Y-3.4946
X7.8926Y-4.55
X7.8937Y-3.2874
X7.8976Y-5.3819
X7.9052Y-1.9715
X7.9055Y-3.0571
X7.9247Y-2.5375
X7.9252Y-2.4622
X7.936Y-2.914
X7.936Y-3.0201
X7.937Y-1.9429
X7.9385Y-3.529
X7.9596Y-2.5193
X7.9646Y-2.4622
X7.9732Y-4.2217
X8.0109Y-3.8788
X8.0125Y-4.2217
X8.0236Y-2.5193
X8.0264Y-1.8116
X8.0472Y-3.9173
X8.0513Y-3.8385
X8.0551Y-2.4622
X8.0551Y-5.4685
X8.063Y-2.5193
X8.0713Y-4.3366
X8.0757Y-1.7588
X8.0772Y-2.1909
X8.0817Y-1.9429
X8.0817Y-1.9823
X8.0827Y-4.4035
X8.0866Y-2.2756
X8.0872Y-3.8744
X8.0954Y-1.8198
X8.1004Y-5.1117
X8.1063Y-5.0546
X8.1088Y-4.5773
X8.1102Y-2.0108
X8.1105Y-4.7838
X8.116Y-5.4254
X8.122Y-4.3102
X8.122Y-4.4035
X8.122Y-5.1929
X8.1232Y-1.792
X8.1252Y-4.9953
X8.1336Y-5.5376
X8.1393Y-4.5467
X8.1398Y-5.126
X8.1422Y-5.0831
X8.1516Y-4.8583
X8.162Y-4.4035
X8.1634Y-4.3102
X8.1659Y-4.1127
X8.1693Y-4.0734
X8.1701Y-4.5968
X8.1791Y-4.5472
X8.2015Y-4.0163
X8.216Y-2.0349
X8.2234Y-5.1024
X8.2244Y-3.8346
X8.2382Y-1.7579
X8.2555Y-4.9209
X8.2559Y-3.374
X8.2581Y-2.1747
X8.2598Y-3.2697
X8.2643Y-5.0969
X8.2684Y-4.9602
X8.2714Y-3.6933
X8.2731Y-2.0467
X8.2835Y-3.8091
X8.2849Y-2.0092
X8.2926Y-2.1461
X8.2933Y-3.3366
X8.2938Y-2.1068
X8.3017Y-5.0595
X8.3105Y-3.6978
X8.315Y-3.6211
X8.3169Y-1.9449
X8.3209Y-3.5748
X8.3214Y-2.1747
X8.3268Y-3.2697
X8.3307Y-1.813
X8.3487Y-2.3552
X8.3575Y-4.8342
X8.3661Y-5.5157
X8.3701Y-4.0433
X8.3709Y-5.1803
X8.374Y-1.9862
X8.3772Y-2.3267
X8.4154Y-5.248
X8.4183Y-4.0502
X8.4277Y-4.7977
X8.4311Y-3.3652
X8.433Y-5.3929
X8.4341Y-1.813
X8.4341Y-1.9429
X8.437Y-4.2224
X8.44Y-4.1231
X8.4452Y-5.5929
X8.4461Y-4.0223
X8.4493Y-4.1727
X8.4547Y-4.876
X8.4547Y-4.2595
X8.4744Y-1.9104
X8.4754Y-3.4055
X8.4833Y-4.8238
X8.4858Y-4.0773
X8.4902Y-2.1053
X8.4918Y-1.9678
X8.4921Y-4.7323
X8.4936Y-3.1196
X8.4951Y-3.3022
X8.5108Y-4.685
X8.5162Y-4.8454
X8.5283Y-4.2717
X8.5283Y-4.5295
X8.5299Y-5.0905
X8.5355Y-3.3444
X8.5433Y-5.248
X8.5492Y-3.1043
X8.5584Y-5.0585
X8.5702Y-4.9072
X8.5728Y-1.8524
X8.5768Y-3.4995
X8.5897Y-3.2076
X8.5906Y-1.7894
X8.5984Y-4.2165
X8.6028Y-5.4866
X8.628Y-3.2647
X8.6396Y-4.4528
X8.6437Y-3.5335
X8.648Y-4.3145
X8.6519Y-4.9111
X8.6582Y-1.7908
X8.6612Y-3.2858
X8.6625Y-3.1975
X8.6648Y-2.9915
X8.6654Y-1.9469
X8.6717Y-1.8484
X8.6746Y-5.4955
X8.6879Y-2.928
X8.689Y-3.4961
X8.7008Y-1.7623
X8.7375Y-4.7414
X8.7398Y-4.1079
X8.7598Y-4.8465
X8.7672Y-4.9966
X8.7677Y-4.2687
X8.7677Y-4.4843
X8.7874Y-4.111
X8.7896Y-3.8553
X8.7943Y-2.4262
X8.7948Y-3.7065
X8.8012Y-2.9961
X8.8023Y-3.9508
X8.8061Y-2.9132
X8.8071Y-1.5091
X8.8071Y-1.5661
X8.8168Y-5.0059
X8.8189Y-2.3839
X8.8371Y-4.466
X8.8454Y-5.052
X8.8503Y-5.1043
X8.8504Y-2.9803
X8.8524Y-4.3563
X8.8543Y-2.9134
X8.8622Y-5.185
X8.8721Y-5.2576
X8.8746Y-3.9731
X8.875Y-2.3858
X8.875Y-2.5772
X8.877Y-5.0754
X8.8847Y-3.551
X8.8876Y-4.0102
X8.8904Y-3.5983
X8.8942Y-5.1577
X8.9206Y-5.1284
X8.9216Y-5.3507
X8.9428Y-5.0096
X8.998Y-2.2854
X9.0236Y-5.395
X9.0468Y-2.3469
X9.0531Y-5.1417
X9.0746Y-2.3748
X9.0868Y-3.1671
X9.0925Y-3.5551
X9.0925Y-3.7362
X9.0955Y-3.1181
X9.1107Y-5.3066
X9.12Y-2.3697
X9.124Y-2.9744
X9.1245Y-2.8376
X9.1319Y-3.5315
X9.1319Y-3.6594
X9.1535Y-2.8642
X9.1535Y-2.9311
X9.1575Y-1.9843
X9.1609Y-5.0743
X9.1713Y-5.248
X9.1717Y-4.159
X9.1772Y-1.9272
X9.1811Y-3.0965
X9.1811Y-3.1437
X9.1821Y-2.7795
X9.1867Y-2.8429
X9.1995Y-4.1869
X9.3002Y-4.747
X9.3091Y-4.7087
X9.3386Y-1.5768
X9.3425Y-4.8071
X9.3445Y-2.9823
X9.3484Y-2.1752
X9.3524Y-3.063
X9.3701Y-4.2913
X9.377Y-2.8642
X9.4134Y-4.2972
X9.4193Y-3.7953
X9.4193Y-3.8622
X9.4463Y-2.3104
X9.4567Y-4.3307
X9.4575Y-2.38
X9.4638Y-4.002
X9.4749Y-2.1555
X9.486Y-2.5923
X9.4925Y-2.2642
X9.4961Y-2.4193
X9.4968Y-2.3799
X9.5194Y-2.8272
X9.5453Y-4.7146
X9.6088Y-2.7456
X9.6675Y-4.1862
X9.6713Y-4.4035
X9.6809Y-4.1102
X9.6813Y-4.863
X9.6821Y-2.8858
X9.6836Y-1.4611
X9.6929Y-1.6161
X9.6941Y-4.813
X9.6968Y-2.9744
X9.7095Y-4.1474
X9.7126Y-4.1909
X9.7141Y-1.5113
X9.7149Y-4.3934
X9.7226Y-4.748
X9.7253Y-2.9301
X9.7354Y-4.57
X9.7385Y-3.8627
X9.75Y-1.5768
X9.752Y-1.6181
X9.7782Y-3.6591
X9.7815Y-3.7028
X9.8396Y-2.5909
X9.8514Y-2.8416
X9.8642Y-1.8228
X9.8799Y-4.7352
X9.8819Y-2.8111
X9.8957Y-1.8724
X9.9105Y-2.7832
X9.916Y-4.1552
X9.936Y-3.7303
X9.9528Y-5.0295
X9.9646Y-3.7953
X9.9646Y-3.8622
X9.987Y-4.9736
X9.9943Y-2.5171
X10.0039Y-3.8622
X10.0247Y-2.6683
X10.0551Y-4.2972
X10.0605Y-1.7712
X10.0945Y-4.2972
X10.1614Y-3.7402
X10.2297Y-4.7986
X10.2323Y-4.502
X10.2392Y-3.9321
X10.2402Y-5.2894
X10.2661Y-4.7622
X10.3071Y-5.3051
X10.3183Y-4.8046
X10.3209Y-4.0581
X10.3258Y-2.7756
X10.3607Y-4.8066
X10.4459Y-4.1649
T2
X7.5063Y-2.252
X7.5563Y-2.252
X7.6063Y-2.252
X9.4728Y-3.6378
X9.5228Y-3.6378
X9.5728Y-3.6378
X10.2701Y-4.1417
X10.3201Y-4.1417
X10.3701Y-4.1417
X9.8858Y-2.0335
X9.9358Y-2.0335
X9.9858Y-2.0335
X7.9433Y-4.9843
X7.9933Y-4.9843
X8.0433Y-4.9843
X8.5004Y-5.1673
X8.5504Y-5.1673
X8.6004Y-5.1673
X8.4807Y-5.4114
X8.5307Y-5.4114
X8.5807Y-5.4114
T3
X9.9035Y-3.5354
X10.2035Y-3.5354
X7.7827Y-3.4213
X8.0827Y-3.4213
X7.822Y-3.748
X8.122Y-3.748
X7.0472Y-5.2343
X7.0472Y-5.5343
X8.9488Y-1.9114
X9.2488Y-1.9114
X7.5386Y-4.561
X7.8386Y-4.561
X7.826Y-2.8898
X8.126Y-2.8898
X7.1535Y-3.3031
X7.1535Y-3.4031
X7.1535Y-3.5031
X7.1535Y-3.6031
X7.1535Y-3.7031
X7.1535Y-3.8031
X7.1535Y-3.9031
X7.4535Y-3.3031
X7.4535Y-3.4031
X7.4535Y-3.5031
X7.4535Y-3.6031
X7.4535Y-3.7031
X7.4535Y-3.8031
X7.4535Y-3.9031
X9.8654Y-3.9587
X10.1654Y-3.9587
X3.7963Y-2.2018
X4.0963Y-2.2018
X7.5406Y-5.561
X7.8406Y-5.561
X6.762Y-4.1457
X7.062Y-4.1457
X8.3102Y-3.9055
X8.6102Y-3.9055
X8.2039Y-3.5492
X8.5039Y-3.5492
X7.3622Y-2.3732
X7.3622Y-2.6732
X6.7835Y-2.3465
X6.7835Y-2.4465
X6.7835Y-2.5465
X6.7835Y-2.6465
X7.0835Y-2.3465
X7.0835Y-2.4465
X7.0835Y-2.5465
X7.0835Y-2.6465
X9.4795Y-4.1732
X9.7795Y-4.1732
X9.4815Y-4.7638
X9.7815Y-4.7638
X9.3969Y-2.0965
X9.6969Y-2.0965
X8.9665Y-1.3898
X8.9665Y-1.6898
X8.7244Y-3.378
X8.7244Y-3.678
X9.7953Y-1.3898
X9.7953Y-1.6898
X8.2079Y-3.748
X8.5079Y-3.748
X9.4815Y-4.8858
X9.7815Y-4.8858
X10.3878Y-1.389
X10.3878Y-1.689
X8.311Y-4.0236
X8.611Y-4.0236
X7.7244Y-2.1969
X7.7244Y-2.3937
X7.5394Y-4.6811
X7.8394Y-4.6811
X9.5591Y-1.389
X9.5591Y-1.689
X7.5394Y-3.7835
X7.7362Y-3.7835
X9.4783Y-3.9429
X9.7783Y-3.9429
X9.3346Y-1.7913
X9.5315Y-1.7913
X7.252Y-2.374
X7.252Y-2.674
X4.1921Y-2.2008
X4.4921Y-2.2008
X4.5898Y-2.314
X4.8898Y-2.314
X10.3898Y-4.3858
X10.3898Y-4.6858
X7.9291Y-2.2244
X8.126Y-2.2244
X8.2323Y-2.4646
X8.2323Y-2.6614
X6.7659Y-3.7677
X7.0659Y-3.7677
X8.311Y-4.1417
X8.611Y-4.1417
X6.6811Y-2.5268
X6.6811Y-2.8268
X6.7835Y-2.7677
X6.9803Y-2.7677
X6.8858Y-2.2244
X7.0827Y-2.2244
X6.7669Y-5.0217
X7.0669Y-5.0217
X9.3504Y-3.8799
X9.3504Y-4.1799
X8.7051Y-4.4969
X8.7051Y-4.5969
X8.7051Y-4.6969
X8.7051Y-4.7969
X8.7051Y-4.8969
X8.7051Y-4.9969
X8.7051Y-5.0969
X8.7051Y-5.1969
X9.0051Y-4.4969
X9.0051Y-4.5969
X9.0051Y-4.6969
X9.0051Y-4.7969
X9.0051Y-4.8969
X9.0051Y-4.9969
X9.0051Y-5.0969
X9.0051Y-5.1969
X9.4409Y-1.3898
X9.4409Y-1.6898
X9.2283Y-5.1291
X9.2283Y-5.4291
X5.2293Y-2.314
X5.3278Y-2.314
X8.7224Y-3.8839
X8.7224Y-4.1839
X8.311Y-4.2736
X8.611Y-4.2736
X9.4795Y-4.5217
X9.7795Y-4.5217
X8.6043Y-3.1457
X8.9043Y-3.1457
X5.4411Y-2.3652
X5.7411Y-2.3652
X8.2047Y-3.6496
X8.5047Y-3.6496
X9.4795Y-4.4035
X9.7795Y-4.4035
X9.4795Y-4.063
X9.7795Y-4.063
X9.0Y-3.3583
X9.1969Y-3.3583
X8.2118Y-3.0039
X8.5118Y-3.0039
X9.0925Y-4.5217
X9.3925Y-4.5217
X9.7835Y-2.1752
X9.7835Y-2.2752
X9.7835Y-2.3752
X9.7835Y-2.4752
X9.7835Y-2.5752
X9.7835Y-2.6752
X9.7835Y-2.7752
X10.0835Y-2.1752
X10.0835Y-2.2752
X10.0835Y-2.3752
X10.0835Y-2.4752
X10.0835Y-2.5752
X10.0835Y-2.6752
X10.0835Y-2.7752
X7.1528Y-3.1811
X7.4528Y-3.1811
X3.0179Y-2.1998
X3.3179Y-2.1998
X10.2697Y-4.387
X10.2697Y-4.687
X8.311Y-4.6319
X8.611Y-4.6319
X6.7591Y-2.9291
X7.0591Y-2.9291
X9.3465Y-5.1291
X9.3465Y-5.4291
X8.311Y-4.5138
X8.611Y-4.5138
X9.5866Y-5.1299
X9.5866Y-5.4299
X7.5591Y-3.2835
X7.5591Y-3.4803
X8.4402Y-2.0807
X8.7402Y-2.0807
X4.5888Y-2.1988
X4.8888Y-2.1988
X9.8673Y-4.0811
X9.8673Y-4.1811
X9.8673Y-4.2811
X9.8673Y-4.3811
X9.8673Y-4.4811
X9.8673Y-4.5811
X9.8673Y-4.6811
X10.1673Y-4.0811
X10.1673Y-4.1811
X10.1673Y-4.2811
X10.1673Y-4.3811
X10.1673Y-4.4811
X10.1673Y-4.5811
X10.1673Y-4.6811
X10.187Y-2.2768
X10.187Y-2.5768
X10.1496Y-1.3898
X10.1496Y-1.6898
X6.8701Y-5.1319
X7.0669Y-5.1319
X9.3346Y-3.7795
X9.5315Y-3.7795
X8.8445Y-3.378
X8.8445Y-3.678
X9.9028Y-3.7776
X10.2028Y-3.7776
X9.9134Y-1.3898
X9.9134Y-1.6898
X7.5394Y-3.6614
X7.7362Y-3.6614
X3.4065Y-2.2008
X3.7065Y-2.2008
X5.0Y-2.3159
X5.0984Y-2.3159
X7.6417Y-4.4409
X7.8386Y-4.4409
X8.6043Y-2.6457
X8.9043Y-2.6457
X7.5374Y-4.3209
X7.7343Y-4.3209
X7.8268Y-2.3465
X7.8268Y-2.4465
X7.8268Y-2.5465
X7.8268Y-2.6465
X8.1268Y-2.3465
X8.1268Y-2.4465
X8.1268Y-2.5465
X8.1268Y-2.6465
X9.3969Y-2.2146
X9.6969Y-2.2146
X7.6024Y-2.7598
X7.6024Y-3.0598
X9.4016Y-5.0276
X9.7016Y-5.0276
X7.9264Y-4.8169
X8.2264Y-4.8169
X9.3969Y-2.5453
X9.6969Y-2.5453
X7.5386Y-4.2008
X7.8386Y-4.2008
X5.3533Y-1.4833
X5.6533Y-1.4833
X6.8949Y-2.0795
X7.1949Y-2.0795
X8.9969Y-2.4469
X8.9969Y-2.5469
X8.9969Y-2.6469
X8.9969Y-2.7469
X8.9969Y-2.8469
X8.9969Y-2.9469
X8.9969Y-3.0469
X8.9969Y-3.1469
X9.2969Y-2.4469
X9.2969Y-2.5469
X9.2969Y-2.6469
X9.2969Y-2.7469
X9.2969Y-2.8469
X9.2969Y-2.9469
X9.2969Y-3.0469
X9.2969Y-3.1469
X7.5406Y-5.4409
X7.8406Y-5.4409
X8.948Y-1.7913
X9.248Y-1.7913
X8.7028Y-4.372
X9.0028Y-4.372
X9.4665Y-5.1291
X9.4665Y-5.4291
X7.1547Y-5.5433
X7.4547Y-5.5433
X7.6811Y-3.261
X7.6811Y-3.561
X9.3969Y-2.6555
X9.6969Y-2.6555
X8.8425Y-3.885
X8.8425Y-4.185
X9.0917Y-4.6437
X9.3917Y-4.6437
X8.6035Y-3.0276
X8.9035Y-3.0276
X8.3504Y-2.4646
X8.3504Y-2.7646
X9.8268Y-5.1291
X9.8268Y-5.4291
X7.9252Y-4.0945
X7.9252Y-4.1945
X7.9252Y-4.2945
X7.9252Y-4.3945
X7.9252Y-4.4945
X7.9252Y-4.5945
X7.9252Y-4.6945
X8.2252Y-4.0945
X8.2252Y-4.1945
X8.2252Y-4.2945
X8.2252Y-4.3945
X8.2252Y-4.4945
X8.2252Y-4.5945
X8.2252Y-4.6945
X9.3969Y-2.4449
X9.6969Y-2.4449
X10.2677Y-1.3898
X10.2677Y-1.6898
X10.187Y-1.9685
X10.187Y-2.1654
X9.3969Y-2.3346
X9.6969Y-2.3346
X7.9252Y-3.9055
X8.2252Y-3.9055
X10.0Y-1.7913
X10.3Y-1.7913
X9.7067Y-5.1299
X9.7067Y-5.4299
X7.5386Y-3.9055
X7.8386Y-3.9055
X9.0917Y-4.7638
X9.3917Y-4.7638
X7.6024Y-2.3732
X7.6024Y-2.6732
X6.6791Y-2.2421
X6.6791Y-2.439
X10.2539Y-4.2815
X10.4508Y-4.2815
X6.7669Y-4.9114
X7.0669Y-4.9114
X9.3228Y-1.3898
X9.3228Y-1.6898
X7.2638Y-2.7756
X7.4606Y-2.7756
X9.6173Y-1.7913
X9.9173Y-1.7913
X10.0Y-5.1311
X10.0Y-5.4311
X7.5406Y-4.8012
X7.8406Y-4.8012
X7.5394Y-4.0827
X7.8394Y-4.0827
X8.4961Y-2.4488
X8.4961Y-2.6457
X7.7244Y-2.9055
X7.7244Y-3.1024
X9.7854Y-2.9035
X10.0854Y-2.9035
X7.7827Y-3.5394
X8.0827Y-3.5394
X6.763Y-4.5098
X7.063Y-4.5098
X8.6083Y-2.8228
X8.9083Y-2.8228
X8.2126Y-2.8858
X8.5126Y-2.8858
X6.763Y-4.628
X7.063Y-4.628
X7.8268Y-2.7677
X8.0236Y-2.7677
X8.313Y-4.872
X8.613Y-4.872
X8.7028Y-5.3169
X9.0028Y-5.3169
X8.6035Y-2.5276
X8.9035Y-2.5276
X7.6665Y-2.0787
X7.9665Y-2.0787
X10.187Y-2.6614
X10.187Y-2.9614
X7.1614Y-2.761
X7.1614Y-3.061
X8.4213Y-4.998
X8.6181Y-4.998
X9.0925Y-5.002
X9.2894Y-5.002
X7.2815Y-2.0787
X7.5815Y-2.0787
X7.7835Y-3.3031
X7.9803Y-3.3031
X5.4461Y-2.2372
X5.7461Y-2.2372
X7.5406Y-5.3209
X7.8406Y-5.3209
X7.7283Y-2.4795
X7.7283Y-2.7795
X9.6181Y-3.7795
X9.815Y-3.7795
X9.1083Y-5.2323
X9.1083Y-5.4291
X9.0917Y-4.8819
X9.3917Y-4.8819
X9.2047Y-1.3898
X9.2047Y-1.6898
X9.6772Y-1.3898
X9.6772Y-1.6898
X6.7659Y-3.6575
X7.0659Y-3.6575
X10.0315Y-1.3898
X10.0315Y-1.6898
X5.3947Y-2.001
X5.5915Y-2.001
X8.1004Y-3.2441
X8.1988Y-3.2441
X8.9488Y-3.4803
X8.9488Y-3.5803
X8.9488Y-3.6803
X8.9488Y-3.7803
X8.9488Y-3.8803
X8.9488Y-3.9803
X8.9488Y-4.0803
X9.2488Y-3.4803
X9.2488Y-3.5803
X9.2488Y-3.6803
X9.2488Y-3.7803
X9.2488Y-3.8803
X9.2488Y-3.9803
X9.2488Y-4.0803
X7.5406Y-5.0413
X7.8406Y-5.0413
X9.9028Y-3.6555
X10.2028Y-3.6555
X9.3358Y-1.9114
X9.6358Y-1.9114
X8.6654Y-3.7815
X8.8622Y-3.7815
X8.311Y-4.752
X8.611Y-4.752
X7.874Y-3.1299
X7.9724Y-3.1299
X8.2126Y-2.3465
X8.5126Y-2.3465
X9.3524Y-3.3752
X9.3524Y-3.6752
X3.4419Y-2.4252
X3.7419Y-2.4252
X8.0531Y-2.0787
X8.3531Y-2.0787
X9.4795Y-4.6417
X9.7795Y-4.6417
X6.7628Y-4.2677
X7.0628Y-4.2677
X6.8691Y-4.0039
X7.0659Y-4.0039
X7.822Y-3.6496
X8.122Y-3.6496
X7.1528Y-4.0858
X7.1528Y-4.1858
X7.1528Y-4.2858
X7.1528Y-4.3858
X7.1528Y-4.4858
X7.1528Y-4.5858
X7.1528Y-4.6858
X7.4528Y-4.0858
X7.4528Y-4.1858
X7.4528Y-4.2858
X7.4528Y-4.3858
X7.4528Y-4.4858
X7.4528Y-4.5858
X7.4528Y-4.6858
X7.4803Y-2.3732
X7.4803Y-2.6732
X7.5413Y-5.1614
X7.7382Y-5.1614
X9.5Y-2.7756
X9.6969Y-2.7756
X6.8691Y-3.8858
X7.0659Y-3.8858
X6.8661Y-4.3898
X7.063Y-4.3898
X7.1555Y-4.8228
X7.1555Y-4.9228
X7.1555Y-5.0228
X7.1555Y-5.1228
X7.1555Y-5.2228
X7.1555Y-5.3228
X7.1555Y-5.4228
X7.4555Y-4.8228
X7.4555Y-4.9228
X7.4555Y-5.0228
X7.4555Y-5.1228
X7.4555Y-5.2228
X7.4555Y-5.3228
X7.4555Y-5.4228
X5.8516Y-2.2667
X5.8516Y-2.3667
X5.8516Y-2.4667
X5.8516Y-2.5667
X6.1516Y-2.2667
X6.1516Y-2.3667
X6.1516Y-2.4667
X6.1516Y-2.5667
X7.5406Y-4.9213
X7.8406Y-4.9213
X9.5827Y-4.2815
X9.7795Y-4.2815
X8.311Y-4.3937
X8.5079Y-4.3937
X6.8071Y-5.3209
X6.9055Y-5.3209
X9.0846Y-1.3898
X9.0846Y-1.6898
T4
X4.4193Y-2.6575
X4.4193Y-3.378
X4.5177Y-2.6575
X4.5177Y-3.378
X4.6161Y-2.6575
X4.6161Y-3.378
X4.7106Y-2.6575
X4.7146Y-3.378
X4.813Y-2.6575
X4.813Y-3.378
X5.4815Y-2.9921
X5.5815Y-2.9921
X3.6508Y-2.9921
X3.7508Y-2.9921
T5
X8.2028Y-5.1594
X8.2028Y-5.2594
X8.2028Y-5.3594
X8.2028Y-5.4594
X8.2028Y-5.5594
X8.3028Y-5.1594
X8.3028Y-5.2594
X8.3028Y-5.3594
X8.3028Y-5.4594
X8.3028Y-5.5594
X8.189Y-1.3858
X8.189Y-1.8858
X8.289Y-1.5858
X7.1063Y-1.3858
X7.1063Y-1.8858
X7.2063Y-1.5858
X4.9638Y-2.0866
X5.0622Y-2.0866
X5.1606Y-2.0866
X6.6732Y-1.3858
X6.6732Y-1.8858
X6.7732Y-1.5858
X5.2352Y-5.565
X5.3352Y-5.565
X5.4352Y-5.565
X5.5352Y-5.565
X5.6352Y-5.565
X5.7352Y-5.565
X5.8352Y-5.565
X5.9352Y-5.565
X6.0352Y-5.565
X4.0685Y-2.0866
X4.1669Y-2.0866
X4.2654Y-2.0866
X6.8898Y-1.3858
X6.8898Y-1.8858
X6.9898Y-1.5858
X10.1205Y-5.235
X10.2205Y-4.935
X10.2205Y-5.435
X9.1909Y-5.565
X9.2909Y-5.565
X9.3909Y-5.565
X9.4909Y-5.565
X9.5909Y-5.565
X9.6909Y-5.565
X9.7909Y-5.565
X9.8909Y-5.565
X9.9909Y-5.565
X3.1728Y-2.0866
X3.2713Y-2.0866
X3.3697Y-2.0866
X5.0864Y-1.2717
X5.1864Y-1.2717
X5.2864Y-1.2717
X5.3864Y-1.2717
X5.4864Y-1.2717
X5.5864Y-1.2717
X5.6864Y-1.2717
X5.7864Y-1.2717
X5.8864Y-1.2717
X5.9864Y-1.2717
X6.0864Y-1.2717
X6.1864Y-1.2717
X6.2864Y-1.2717
X6.3864Y-1.2717
X10.337Y-5.235
X10.437Y-4.935
X10.437Y-5.435
X7.5394Y-1.3858
X7.5394Y-1.8858
X7.6394Y-1.5858
X8.626Y-1.3858
X8.626Y-1.8858
X8.726Y-1.5858
X7.9724Y-1.3858
X7.9724Y-1.8858
X8.0724Y-1.5858
X7.7559Y-1.3858
X7.7559Y-1.8858
X7.8559Y-1.5858
X5.8594Y-2.0866
X5.9579Y-2.0866
X6.0563Y-2.0866
X8.4055Y-1.3858
X8.4055Y-1.8858
X8.5055Y-1.5858
X7.3228Y-1.3858
X7.3228Y-1.8858
X7.4228Y-1.5858
X9.0394Y-1.2717
X9.1394Y-1.2717
X9.2394Y-1.2717
X9.3394Y-1.2717
X9.4394Y-1.2717
X9.5394Y-1.2717
X9.6394Y-1.2717
X9.7394Y-1.2717
X9.8394Y-1.2717
X9.9394Y-1.2717
X10.0394Y-1.2717
X10.1394Y-1.2717
X10.2394Y-1.2717
X10.3394Y-1.2717
T6
X4.9795Y-5.2679
X5.3252Y-4.9183
X4.0638Y-4.3722
X4.4094Y-4.0226
X3.148Y-5.2679
X3.4937Y-4.9183
X5.8953Y-5.2679
X6.2409Y-4.9183
X3.148Y-4.3722
X3.4937Y-4.0226
X4.0638Y-5.2679
X4.4094Y-4.9183
X5.8953Y-4.3722
X6.2409Y-4.0226
X4.9795Y-4.3722
X5.3252Y-4.0226
T7
X4.8228Y-5.0388
X5.0961Y-4.7656
X5.2579Y-5.2006
X3.9071Y-4.1431
X4.1803Y-3.8699
X4.3421Y-4.3049
X2.9913Y-5.0388
X3.2646Y-4.7656
X3.4264Y-5.2006
X5.7386Y-5.0388
X6.0118Y-4.7656
X6.1736Y-5.2006
X2.9913Y-4.1431
X3.2646Y-3.8699
X3.4264Y-4.3049
X4.3012Y-2.9744
X4.9311Y-2.9744
X3.9071Y-5.0388
X4.1803Y-4.7656
X4.3421Y-5.2006
X5.7386Y-4.1431
X6.0118Y-3.8699
X6.1736Y-4.3049
X4.8228Y-4.1431
X5.0961Y-3.8699
X5.2579Y-4.3049
T8
X6.7953Y-3.2677
X10.0551Y-3.2677
X6.1004Y-3.2677
X2.8406Y-3.2677
T9
X6.1311Y-1.811
X4.889Y-1.811
X5.2354Y-1.811
X3.9937Y-1.811
X4.3402Y-1.811
X3.098Y-1.811
X3.4445Y-1.811
X5.7846Y-1.811
T0
M30
